<svg width="222" height="184" viewBox="0 0 222 184" fill="none" xmlns="http://www.w3.org/2000/svg">
<path fill-rule="evenodd" clip-rule="evenodd" d="M221.447 178.02C194.667 179.57 157.457 171.74 130.727 174.24C130.297 173.54 129.837 172.84 129.337 172.16C122.767 162.97 111.587 155.23 100.357 153.82C87.5368 152.21 85.1168 161.82 77.9868 170.14C77.2168 171.03 76.5668 171.76 75.9768 172.35C72.7468 175.64 71.6068 174.89 63.9768 176.73C57.9968 178.17 49.8968 182.66 44.4768 180.93C38.7668 179.11 30.1468 168.51 27.2368 163.53C21.3968 153.58 20.7368 138.61 19.2768 127.27C16.0868 102.43 14.3268 76.6797 15.9268 51.6597C23.2668 54.7897 26.9768 37.6998 31.7268 33.0298C33.4368 31.3498 37.3568 26.5197 39.3168 25.3297C45.4868 21.5897 57.2868 25.0297 64.7168 23.6198C69.9968 11.4797 73.8968 4.84975 87.4768 15.2797C92.9468 19.4897 97.5168 24.8098 101.507 30.7798C101.507 30.7798 101.507 30.7897 101.517 30.8097C112.227 46.8197 118.717 67.3997 126.877 83.0798C133.597 95.9798 140.637 113.94 150.877 124.54C150.887 124.55 150.887 124.55 150.887 124.55C163.107 118.85 165.367 106.78 171.707 95.8497C183.997 98.0897 196.677 109.34 208.977 113.79C210.117 127.37 208.967 139.66 213.437 153.07C216.007 160.77 220.287 168.63 221.287 176.69C221.367 177.13 221.417 177.57 221.447 178.02Z" fill="url(#paint0_linear_27_4960)"/>
<path fill-rule="evenodd" clip-rule="evenodd" d="M64.7266 23.6201C64.7266 23.6201 77.0665 31.0101 87.0565 48.4501C97.0465 65.8901 104.567 95.7101 104.567 95.7101C104.567 95.7101 99.0365 42.5401 94.0665 27.6301C89.0965 12.7201 74.8165 8.41011 71.9365 11.7101C69.0565 15.0101 64.7266 23.6201 64.7266 23.6201Z" fill="url(#paint1_linear_27_4960)"/>
<path fill-rule="evenodd" clip-rule="evenodd" d="M39.3261 25.3298C47.0061 27.1798 66.4961 35.0798 77.1761 62.1598C87.8561 89.2398 90.8361 131.23 90.8361 131.23C90.8361 131.23 83.1361 91.6098 73.1961 73.0298C73.1961 73.0298 82.1361 102.9 75.4361 134.7C68.7261 166.5 59.8861 176.94 50.8361 178.26C41.7861 179.58 27.4861 175.69 19.0361 140.41C10.5861 105.13 15.9261 51.6498 15.9261 51.6498C15.9261 51.6498 20.5261 53.2098 23.0061 67.1198C25.4861 81.0298 25.9861 120.53 25.9861 120.53C25.9861 120.53 29.4661 88.9798 27.9761 74.8198C26.4861 60.6598 21.1861 50.3698 21.1861 50.3698C21.1861 50.3698 26.8261 39.9498 29.2661 36.4898C31.7361 33.0398 36.9961 24.7698 39.3261 25.3298Z" fill="url(#paint2_linear_27_4960)"/>
<path fill-rule="evenodd" clip-rule="evenodd" d="M171.725 95.8501C171.725 95.8501 192.455 103.41 196.685 111.6C200.905 119.8 177.055 137.44 165.135 140.92C153.205 144.4 129.355 140.92 129.355 140.92C129.355 140.92 148.865 136.01 150.915 124.55C150.905 124.55 169.625 106.68 171.725 95.8501Z" fill="#331F36"/>
<path fill-rule="evenodd" clip-rule="evenodd" d="M138.666 149.16C138.666 149.16 160.276 145.07 170.346 141.4C180.406 137.73 184.876 134.75 184.876 134.75C184.876 134.75 174.816 154.01 163.256 154.69C151.706 155.37 138.666 149.16 138.666 149.16Z" fill="#331F36"/>
<path fill-rule="evenodd" clip-rule="evenodd" d="M176.496 171.93C176.496 171.93 186.736 165.89 197.176 160.11C207.616 154.33 212.646 157.13 214.136 160.11C215.626 163.09 214.696 170.7 214.136 171.93C213.576 173.16 199.406 177.6 176.496 171.93Z" fill="#331F36"/>
<path fill-rule="evenodd" clip-rule="evenodd" d="M193.266 159.18C193.266 159.18 197.556 152.47 201.276 149.86C205.006 147.25 207.056 150.23 207.616 150.79C208.176 151.35 205.566 156.55 203.516 156.74C201.456 156.94 193.266 159.18 193.266 159.18Z" fill="#331F36"/>
<path fill-rule="evenodd" clip-rule="evenodd" d="M21.8571 150.42C19.5371 149.38 5.34707 181.17 4.74707 182.41C4.14707 183.65 43.2471 183.52 44.4871 180.93C45.7271 178.35 26.4071 152.47 21.8571 150.42Z" fill="url(#paint3_linear_27_4960)"/>
<path fill-rule="evenodd" clip-rule="evenodd" d="M4.73633 182.41C4.73633 182.41 27.7964 181.42 30.2164 179.43C32.6364 177.44 35.8264 166.09 34.2164 163.99C32.5964 161.89 22.8163 149.23 21.2963 148.71C19.7863 148.19 5.90633 176.2 4.73633 182.41Z" fill="url(#paint4_linear_27_4960)"/>
<path fill-rule="evenodd" clip-rule="evenodd" d="M39.3262 25.3297C39.3262 25.3297 52.6161 30.3097 60.4261 37.0797C68.2361 43.8397 74.6062 56.3097 74.9962 57.1397C75.3762 57.9597 89.3462 58.0597 94.2562 63.8097C94.2562 63.8097 85.2662 32.6597 64.7262 23.6297C64.7262 23.6297 54.6362 23.6297 53.3262 23.6297C52.0162 23.6297 40.6962 22.5697 39.3262 25.3297Z" fill="url(#paint5_linear_27_4960)"/>
<path fill-rule="evenodd" clip-rule="evenodd" d="M73.6465 10.67C73.6465 10.67 89.3465 20.37 94.0665 27.64L101.506 30.79C101.506 30.79 98.3165 23.35 90.2165 16.46C82.1165 9.55995 75.1465 8.04995 73.6465 10.67Z" fill="url(#paint6_linear_27_4960)"/>
<path fill-rule="evenodd" clip-rule="evenodd" d="M15.9355 51.6601C15.9355 51.6601 22.0956 60.0001 23.0156 67.1301C23.9456 74.2601 24.3956 79.4501 24.3956 79.4501C24.3956 79.4501 28.5756 76.0901 26.4156 65.5601C24.2556 55.0301 21.1956 50.3901 21.1956 50.3901L15.9355 51.6601Z" fill="url(#paint7_linear_27_4960)"/>
<path fill-rule="evenodd" clip-rule="evenodd" d="M129.337 172.16C122.767 162.97 111.587 155.23 100.357 153.82C87.5372 152.21 85.1172 161.82 77.9872 170.14C77.2172 171.03 76.5672 171.76 75.9772 172.35L75.6172 171.93C75.6172 171.93 93.2272 138.19 95.0772 133.4C96.9272 128.63 127.037 162.38 129.337 172.16Z" fill="#857299"/>
<path fill-rule="evenodd" clip-rule="evenodd" d="M150.897 124.54C150.377 124.17 133.667 111.94 123.767 93.9698C113.867 75.9998 101.907 32.1798 101.537 30.8198C112.247 46.8298 118.737 67.4098 126.897 83.0898C133.607 95.9798 140.647 113.94 150.897 124.54Z" fill="#857299"/>
<path fill-rule="evenodd" clip-rule="evenodd" d="M193.355 157.54C193.415 157.46 193.495 157.35 193.595 157.23C193.495 157.37 193.415 157.47 193.355 157.54Z" fill="#857299"/>
<path fill-rule="evenodd" clip-rule="evenodd" d="M221.307 176.69L214.937 172.34C214.937 172.34 214.127 160.11 212.577 158.23C211.027 156.35 205.007 156.75 205.007 156.75C205.007 156.75 208.357 151.85 208.237 151.36C208.117 150.86 203.897 148.83 200.577 150.4C198.297 151.48 195.697 154.52 194.307 156.32C196.457 153.43 201.277 146.76 201.667 144.6C202.157 141.81 209.017 113.8 209.017 113.8C210.157 127.38 209.007 139.67 213.477 153.08C216.027 160.77 220.317 168.63 221.307 176.69Z" fill="#857299"/>
<path fill-rule="evenodd" clip-rule="evenodd" d="M171.727 95.8501C171.727 95.8501 194.267 113.67 195.717 113.79C197.167 113.91 208.997 113.79 208.997 113.79C208.997 113.79 196.727 104.9 191.307 101.04C185.887 97.1701 171.727 95.8501 171.727 95.8501Z" fill="url(#paint8_linear_27_4960)"/>
<path fill-rule="evenodd" clip-rule="evenodd" d="M74.5673 55.9497C73.3173 56.0597 82.7373 79.8597 82.9873 80.9097C83.2473 81.9597 96.2773 72.2097 96.4173 69.4797C96.5573 66.7497 94.2473 62.0997 94.2473 62.0997C94.2473 62.0997 78.8573 55.5797 74.5673 55.9497Z" fill="#312137"/>
<path fill-rule="evenodd" clip-rule="evenodd" d="M94.0762 27.6299C94.0762 27.6299 96.0862 41.1099 97.3462 41.9199C98.6062 42.7299 104.576 44.3999 104.576 44.3999C104.576 44.3999 102.596 31.7499 101.536 30.8099C100.466 29.8699 94.0762 27.6299 94.0762 27.6299Z" fill="#312137"/>
<path fill-rule="evenodd" clip-rule="evenodd" d="M24.6367 78.6399L25.9967 120.54C25.9967 120.54 31.1167 82.5999 26.7767 67.6699L24.6367 78.6399Z" fill="#3A2B40"/>
<path opacity="0.5" fill-rule="evenodd" clip-rule="evenodd" d="M112.066 65.23C112.066 65.23 105.636 90.28 104.576 94.11C103.516 97.94 89.0758 114.24 89.3858 116.9C89.7058 119.56 96.4258 133.46 96.4258 133.46C96.4258 133.46 114.696 148.02 115.936 148.69C117.176 149.36 134.816 148.69 134.816 148.69L129.346 140.91C129.346 140.91 146.726 132.14 147.856 130.65C148.986 129.16 147.436 120.53 147.436 120.53C147.436 120.53 124.836 107.31 112.066 65.23Z" fill="#857299"/>
<path opacity="0.5" fill-rule="evenodd" clip-rule="evenodd" d="M134.936 173.94C134.936 173.94 161.026 172.11 161.776 172.36C162.526 172.61 165.686 154.75 165.686 154.75C165.686 154.75 179.616 147.06 181.336 142.47C183.056 137.88 185.806 134.75 185.806 134.75L187.366 127.68C187.366 127.68 194.186 122.29 197.166 115.02C197.166 115.02 207.096 114.76 207.676 115.77C208.256 116.77 201.426 140.37 200.466 144.6C199.506 148.82 193.256 158.4 193.256 158.4V162.3L176.486 171.94L175.036 175.69C175.046 175.68 155.046 173.41 134.936 173.94Z" fill="#857299"/>
<path fill-rule="evenodd" clip-rule="evenodd" d="M189.587 109.63C188.857 109.99 191.937 123.2 191.937 123.2C191.937 123.2 205.247 114.49 204.377 113.79C203.507 113.1 189.587 109.63 189.587 109.63Z" fill="#3A2B40"/>
<path fill-rule="evenodd" clip-rule="evenodd" d="M108.486 41.79C109.186 52.16 120.266 80.08 107.196 88.01C104.096 89.89 101.616 88.79 99.3861 92.61C95.1661 99.8 96.7761 109.71 94.1361 117.45C91.7161 124.52 88.6061 126.29 82.8361 127.93C82.5661 133.85 86.0861 137.84 84.6361 143.51C82.5161 151.81 81.3461 160.85 77.9361 168.49C76.4361 171.85 75.1261 173.84 71.5961 175.29C69.4161 176.19 64.6961 174.88 62.3761 175.67C58.9461 176.84 53.5861 180.65 49.9961 181.04C51.2461 181.28 59.3261 178.6 61.0661 178.31C66.7461 177.36 82.8661 173.34 81.9461 168.49C81.3561 165.36 83.2761 157.44 84.4661 154.5C86.5961 149.25 91.8161 143.37 88.6561 137.94C86.4361 134.13 83.0261 129.74 89.8561 127.87C90.9161 125.97 94.1061 123.47 95.4461 121.91C100.286 116.24 97.1661 98.51 104.806 94.33C106.446 93.43 108.536 93.31 110.056 92.84C114.706 91.39 117.266 90.88 120.886 95.97C125.526 102.49 127.756 112.5 127.796 120.36C124.416 121.35 125.066 124.28 121.706 124.92C118.356 125.56 112.006 121.45 109.186 124.55C106.726 127.26 109.576 134.35 110.776 137C113.806 143.7 119.746 147.12 123.406 153.22C125.676 157 128.326 163.79 128.546 168.45C130.726 174.23 131.566 174.84 143.976 173.86C136.076 173.85 131.766 171.99 131.956 167.74C132.186 162.5 130.816 154.86 127.556 150.54C125.726 148.12 123.886 147.66 121.436 146.14C114.726 141.97 111.546 135.2 111.156 127.55C114.006 126.33 117.026 128.02 119.976 128.15C122.786 128.27 121.166 128.79 124.206 127.11C126.746 125.71 129.046 124.36 131.906 123.7C132.646 116.49 129.196 107.87 127.866 100.77C126.136 91.57 119.676 86.87 117.266 78.13C115.566 71.97 116.836 65.25 115.586 59.3C114.256 52.98 110.056 48.06 108.486 41.79Z" fill="url(#paint9_linear_27_4960)"/>
<path fill-rule="evenodd" clip-rule="evenodd" d="M100.287 96.9502C98.557 102.43 98.097 108.05 101.347 113.09C103.607 116.59 106.837 117.72 109.747 120.09C111.677 121.66 112.877 123.7 115.177 124.81C111.387 124.57 109.707 127.26 109.527 130.76C108.327 127.15 107.267 121.99 104.107 119.38C101.167 116.95 99.687 118.46 96.627 119.66C94.857 112.68 97.897 102.81 100.287 96.9502Z" fill="url(#paint10_linear_27_4960)"/>
<path fill-rule="evenodd" clip-rule="evenodd" d="M99.5355 116.33C96.2055 117.24 96.5754 122.34 98.4454 124.52C100.425 126.82 102.785 126.37 105.215 127.34C106.165 127.72 106.645 128.87 107.895 128.63C109.005 128.42 109.915 126.56 110.145 125.99C110.235 128.86 109.605 131.67 109.965 134.53C108.375 130.41 106.155 128.26 101.675 127.51C99.6754 127.17 99.1455 127.53 97.8555 125.81C95.9755 123.29 95.4555 121.27 92.6055 124.1C92.8955 120.91 96.7455 117.01 99.5355 116.33Z" fill="url(#paint11_linear_27_4960)"/>
<path fill-rule="evenodd" clip-rule="evenodd" d="M109.727 49.25C109.977 55.94 112.097 62.2 111.967 69.05C111.887 73.07 111.657 80.65 107.977 83.22C105.327 85.07 101.867 85.95 99.2266 88.3C94.5266 92.48 93.3665 99.13 93.6365 105.17C93.9265 111.83 93.5465 126.56 84.3165 126.77C83.4465 126.79 82.5465 126.19 81.8265 126.75C80.4265 127.83 81.2665 132.67 81.5165 133.94C82.0165 136.48 83.5366 139.52 83.4066 142.12C83.3066 144.02 81.9665 145.67 81.3965 147.5C79.5365 153.48 79.7965 159.38 79.1165 165.46C78.8765 167.62 77.6966 169.46 77.2266 171.45C78.8866 169.81 79.5866 166.49 80.3566 164.27C81.7266 160.32 83.1865 156.4 84.3965 152.4C85.7965 147.75 87.5265 143.19 86.8165 138.24C86.4465 135.68 84.4165 133.07 85.1365 130.49C85.8065 128.06 88.1766 126.93 89.9666 125.39C92.9866 122.79 96.0765 119.64 96.7665 115.6C97.6465 110.42 97.2765 105.11 98.3065 99.93C98.9865 96.49 100.227 94.5 103.307 92.36C106.657 90.04 110.807 88.33 112.477 84.29C117.227 72.75 112.037 60.23 109.727 49.25Z" fill="url(#paint12_linear_27_4960)"/>
<path fill-rule="evenodd" clip-rule="evenodd" d="M101.277 116.33C98.8868 110.69 100.537 100.25 106.627 97.3198C110.687 95.3698 114.017 97.6798 117.427 99.5698C120.317 101.17 122.137 102.06 123.697 105.2C125.817 109.45 126.627 114.37 128.857 118.52C129.837 115.64 128.557 111.22 127.847 108.25C126.577 102.96 124.707 97.4698 122.077 92.6898C117.947 85.1798 114.357 90.2498 108.317 92.1098C103.837 93.4898 100.647 94.0398 99.1468 99.0698C97.5068 104.64 98.7068 109.73 101.277 116.33Z" fill="url(#paint13_linear_27_4960)"/>
<path fill-rule="evenodd" clip-rule="evenodd" d="M94.3164 122.29C96.5964 124.07 96.3564 125.67 98.0264 127.69C99.6064 129.6 101.856 129.74 103.896 130.86C107.096 132.6 108.536 135.09 110.026 138.3C112.536 143.74 115.246 147.43 119.366 151.67C123.646 156.09 126.256 161.76 129.816 166.52C127.486 159.38 126.016 152.56 120.636 146.86C118.416 144.5 116.186 142.48 114.436 139.73C113.166 137.73 112.406 135.51 111.216 133.46C109.256 130.09 106.196 129.22 102.826 127.69C99.0764 125.98 97.6764 123.12 94.3164 122.29Z" fill="url(#paint14_linear_27_4960)"/>
<path fill-rule="evenodd" clip-rule="evenodd" d="M111.216 130.24C115.626 127.24 117.806 131.17 122.446 130.75C125.166 130.51 126.916 128.33 129.136 127C133.046 124.67 132.666 122.23 131.276 117.89C130.166 122.52 126.226 126.14 121.396 126.89C117.906 127.44 114.166 126.07 110.746 125.8C110.666 127.09 111.216 128.57 111.216 130.24Z" fill="url(#paint15_linear_27_4960)"/>
<path fill-rule="evenodd" clip-rule="evenodd" d="M99.5359 98.8101C101.696 94.5501 104.086 90.4201 109.386 90.6401C111.276 90.7201 112.726 90.7301 114.536 90.1401C115.136 89.9401 115.356 89.8301 115.876 89.8601C117.666 89.9701 118.576 90.7701 119.336 92.1401C121.066 95.2301 122.566 98.5601 125.096 101.04C125.306 99.1301 124.896 96.7001 124.516 94.8301C123.916 91.9601 121.706 90.7401 119.846 88.7101C117.406 86.0401 116.196 82.5401 115.926 78.9701C115.746 76.6101 115.956 73.9001 115.346 71.6401C114.426 75.0501 114.356 78.8001 113.666 82.2901C113.266 84.3301 112.796 88.5101 110.466 89.2601C109.716 89.5001 108.666 89.3301 107.866 89.5201C106.656 89.8201 105.366 90.2101 104.226 90.7301C101.436 92.0101 99.3259 96.1301 99.5359 98.8101Z" fill="#FF6F00"/>
<path fill-rule="evenodd" clip-rule="evenodd" d="M98.1754 103.41C97.0754 106.31 97.4954 109.53 97.1254 112.59C96.8554 114.78 96.0954 116.96 95.7754 119.06C96.3254 118.21 97.1054 117.51 98.0154 117.06C98.5554 116.79 100.375 116.76 100.745 116.43C101.275 115.95 100.155 114.23 99.9654 113.76C98.7754 110.83 97.8554 107.95 98.1754 103.41Z" fill="#FF6F00"/>
<path fill-rule="evenodd" clip-rule="evenodd" d="M110.226 124.15C109.926 125.71 109.626 127.25 109.596 128.84C111.266 126.4 113.866 126.87 116.186 126.18C114.726 125.18 112.346 124.19 110.226 124.15Z" fill="#FF6F00"/>
<path fill-rule="evenodd" clip-rule="evenodd" d="M121.156 126.26C124.056 125.41 126.016 123.68 128.126 121.44C129.316 120.18 129.606 117.46 129.006 115.97C129.856 117.83 130.976 120.67 130.826 122.76C128.526 123.34 126.616 124.42 124.816 125.93C123.226 127.28 122.526 127.15 121.156 126.26Z" fill="#FF6F00"/>
<path fill-rule="evenodd" clip-rule="evenodd" d="M84.2559 132.22C85.1659 135.8 85.7759 139.44 85.3159 143.13C84.9559 146.06 84.6459 149 84.6259 151.95C85.5559 148.96 86.9459 146.05 87.8359 143.05C89.0659 138.93 85.6159 135.45 84.2559 132.22Z" fill="#FF6F00"/>
<path fill-rule="evenodd" clip-rule="evenodd" d="M121.156 148.13C123.076 151.39 125.026 154.65 126.596 158.1C127.736 160.62 128.636 163.26 130.076 165.6C130.136 162.12 128.836 158.36 127.986 155C127.556 153.29 126.926 152.1 125.516 151.03C124.176 150.03 122.236 149.29 121.156 148.13Z" fill="#FF6F00"/>
<path fill-rule="evenodd" clip-rule="evenodd" d="M109.726 90.36C112.166 90.18 114.386 89.75 116.846 90.36C118.536 90.78 120.046 91.68 121.646 92.21C121.016 90.22 119.076 88.64 117.916 86.95C116.646 85.09 115.386 82.81 115.296 80.5C115.146 76.17 115.516 71.86 115.196 67.49C114.996 64.79 115.036 61.81 114.186 59.21C114.256 63.04 114.126 66.89 113.916 70.72C113.746 73.9 113.316 77.21 113.716 80.35C113.926 82.02 114.206 84.6 113.086 86.09C111.996 87.54 108.856 88.2 107.306 89C105.586 89.9 103.906 90.87 102.176 91.73C103.336 92.18 105.596 91.45 106.756 91.35C108.216 91.22 110.556 90.78 109.726 90.36Z" fill="#FFC700"/>
<path fill-rule="evenodd" clip-rule="evenodd" d="M128.105 110.61C128.455 114.89 129.145 118.83 128.745 123.02C132.725 120.81 129.325 112.98 128.105 110.61Z" fill="#FFC700"/>
<path fill-rule="evenodd" clip-rule="evenodd" d="M108.105 121.29C108.685 123.09 108.835 125.6 109.615 127.2C110.965 126.31 112.485 125.95 114.055 125.74C112.955 123.45 109.255 122.2 108.105 121.29Z" fill="#FFC700"/>
<path fill-rule="evenodd" clip-rule="evenodd" d="M85.2564 145.27C85.3764 147.59 84.2764 149.95 83.5764 152.11C83.0364 153.77 81.8964 155.88 82.1764 157.67C83.6364 154.71 86.7264 149.11 85.2564 145.27Z" fill="#FFC700"/>
<path fill-rule="evenodd" clip-rule="evenodd" d="M126.365 154.34C127.605 156.79 128.045 159.48 128.305 162.19C128.475 163.9 128.325 166.61 129.565 167.96C130.275 166.71 130.015 164.06 129.895 162.71C129.655 160.02 129.265 156.3 126.365 154.34Z" fill="#FFC700"/>
<path fill-rule="evenodd" clip-rule="evenodd" d="M120.216 88C118.416 89.28 117.426 91.25 118.866 93.39C119.586 94.46 120.686 95.16 121.916 94.34C123.846 93.04 122.766 89.58 120.786 88.93L120.216 88Z" fill="#2D1D26"/>
<path fill-rule="evenodd" clip-rule="evenodd" d="M130.467 122.35C130.427 121.76 130.487 121.57 129.977 121.3C129.477 121.04 128.637 121.16 128.137 121.29C127.057 121.57 125.197 122.9 126.067 124.22C127.217 125.95 131.727 123.49 130.467 122.35Z" fill="#2D1D26"/>
<path fill-rule="evenodd" clip-rule="evenodd" d="M51.8364 127.26C51.1364 131.68 50.6964 135.98 52.1264 140.37C53.4164 144.32 56.8264 147.12 60.0264 143.17C63.9664 138.31 64.3064 119.65 51.8364 127.26Z" fill="#A68CD0"/>
<path fill-rule="evenodd" clip-rule="evenodd" d="M66.7477 138.19C64.9377 132.61 64.5477 126.8 66.0677 121.06C66.7477 118.5 68.5977 111.82 71.8277 115.69C75.2277 119.74 75.9377 137.09 66.7477 138.19Z" fill="#A68CD0"/>
<path fill-rule="evenodd" clip-rule="evenodd" d="M32.9573 45.7701C30.3273 50.4001 30.2473 56.0101 33.3473 60.6701C36.0373 64.7101 40.8073 66.3201 43.7773 61.6901C47.4773 55.9101 44.9273 36.5201 32.9573 45.7701Z" fill="#A68CD0"/>
<path fill-rule="evenodd" clip-rule="evenodd" d="M90.0964 82.5402C88.0264 85.1202 86.7864 96.9802 92.4464 94.8602C96.1964 93.4502 99.8464 79.7502 90.0964 82.5402Z" fill="#A68CD0"/>
<path fill-rule="evenodd" clip-rule="evenodd" d="M188.977 140.18C183.897 139.9 180.737 145.42 178.997 149.58C176.177 156.35 179.817 157.74 186.247 156.84C192.037 156.03 195.557 152.8 196.397 146.77C197.067 142.06 194.637 139.33 188.977 140.18Z" fill="#A68CD0"/>
<path fill-rule="evenodd" clip-rule="evenodd" d="M192.708 135.45C190.628 132.51 190.788 130.44 193.718 127.83C195.748 126.01 199.408 124.81 201.658 126.88C206.558 131.4 197.428 137.61 192.708 135.45Z" fill="#A68CD0"/>
<path opacity="0.5" fill-rule="evenodd" clip-rule="evenodd" d="M43.6372 38.0698C44.5872 44.1698 47.2472 49.8098 47.5572 56.0098C47.7472 59.7498 47.8773 69.8598 43.6673 72.3898C39.3773 74.9698 37.0772 69.0398 35.0472 66.1498C35.6772 78.7498 33.9372 91.6098 33.9472 104.25C33.9472 107.11 33.9273 123.65 26.6073 116.74C23.8473 114.13 24.7872 104.21 24.2572 100.56C24.0072 98.8098 23.6072 98.0198 23.7472 96.3898C24.2672 90.2998 26.1372 85.5698 25.1272 79.0898C24.3472 74.0998 23.3372 68.8098 20.9572 64.3098C18.0672 81.6798 16.4372 100.78 19.3272 118.27C21.1172 129.11 25.4272 144.09 34.9572 150.94C40.0672 142.56 46.8772 113.34 60.6872 119.3C62.1372 115.02 64.7472 110.81 66.0472 106.64C66.7872 104.25 66.1972 102.79 65.8472 99.8998C64.9272 92.2998 64.0672 79.7398 68.2572 72.8498C69.9472 70.0698 69.8872 70.3098 73.0372 72.2498C72.3472 57.4098 62.4872 45.9298 43.6372 38.0698Z" fill="#8B91BD"/>
<path opacity="0.5" fill-rule="evenodd" clip-rule="evenodd" d="M42.1469 146.14C38.2169 154.47 36.4469 176.91 52.1369 170.37C64.2269 165.33 60.9969 144.32 42.1469 146.14Z" fill="#8B91BD"/>
<path opacity="0.5" fill-rule="evenodd" clip-rule="evenodd" d="M171.467 106.26C167.107 109.58 161.337 114.55 159.537 119.72C158.567 122.51 158.357 124.89 156.747 127.68C155.997 128.98 150.677 134.72 151.357 136.64C152.777 140.63 209.467 122.89 171.467 106.26Z" fill="#8B91BD"/>
<path opacity="0.5" fill-rule="evenodd" clip-rule="evenodd" d="M166.246 144.27C161.406 145.83 156.786 147.63 152.096 149.57C155.576 156.44 174.996 150.69 166.246 144.27Z" fill="#8B91BD"/>
<path fill-rule="evenodd" clip-rule="evenodd" d="M187.277 173.99C187.277 173.99 200.037 173.34 205.067 173.09C210.097 172.84 213.617 172.35 213.617 172.35C213.617 172.35 207.987 176.01 201.837 176.13C195.687 176.26 187.277 173.99 187.277 173.99Z" fill="#473048"/>
<path fill-rule="evenodd" clip-rule="evenodd" d="M159.287 154.68C159.287 154.68 167.527 153.7 168.357 153.19C169.197 152.68 172.287 150.71 172.287 150.71C172.287 150.71 166.977 155.27 165.547 155.46C164.137 155.64 159.287 154.68 159.287 154.68Z" fill="#473048"/>
<path fill-rule="evenodd" clip-rule="evenodd" d="M149.477 142.09C149.477 142.09 158.177 140.8 164.137 139.43C170.097 138.06 172.297 137.9 172.297 137.9C172.297 137.9 159.787 144.62 149.477 142.09Z" fill="#473048"/>
<path fill-rule="evenodd" clip-rule="evenodd" d="M71.9461 11.7101C71.9461 11.7101 73.7561 10.1601 74.4561 9.89009C75.1561 9.62009 93.5761 25.6501 94.0761 27.6401C94.5761 29.6301 97.4861 42.6801 97.4861 42.6801L100.216 60.1401C100.216 60.1401 95.5661 38.4101 94.0761 35.0101C92.5861 31.6101 83.6461 17.7001 78.5461 14.9601C73.4561 12.2301 68.2461 16.3401 68.2461 16.3401C68.2461 16.3401 70.2361 12.7501 71.9461 11.7101Z" fill="#4A3653"/>
<path fill-rule="evenodd" clip-rule="evenodd" d="M31.7363 33.0301C31.7363 33.0301 39.4364 27.5801 42.1464 27.6301C44.8564 27.6801 60.9063 39.5601 67.7363 47.7501C74.5663 55.9501 84.2264 86.1901 84.2264 86.1901L83.5063 80.9801C83.5063 80.9801 75.3264 55.5601 74.4464 53.8901C73.5663 52.2201 56.5464 31.3501 53.6964 29.8601C50.8363 28.3701 40.4464 24.3701 40.4464 24.3701C40.4464 24.3701 35.4863 24.5201 31.7363 33.0301Z" fill="#4A3653"/>
<path opacity="0.5" fill-rule="evenodd" clip-rule="evenodd" d="M56.1258 25.87C51.4658 25.95 70.0958 48 75.5058 51.42C80.9058 54.84 85.4458 55.41 85.4458 55.41C85.4458 55.41 84.5358 42.18 77.2258 32.86C69.9158 23.53 56.1258 25.87 56.1258 25.87Z" fill="#8B91BD"/>
<path fill-rule="evenodd" clip-rule="evenodd" d="M30.2267 179.43L40.0767 181.95C40.0767 181.95 30.7667 182.94 26.5867 183.04C22.4067 183.13 6.13672 182.35 6.13672 182.35C6.13672 182.35 20.4067 181.42 30.2267 179.43Z" fill="#331F36"/>
<path opacity="0.5" fill-rule="evenodd" clip-rule="evenodd" d="M14.276 167.05C6.07595 175.4 12.0959 178.91 24.6459 175.81C37.1759 172.72 28.626 152.44 14.276 167.05Z" fill="#8B91BD"/>
<path fill-rule="evenodd" clip-rule="evenodd" d="M47.457 178.48C47.457 178.48 58.727 171.57 61.427 167.65C64.127 163.74 73.457 144.82 74.147 136.81C74.847 128.8 77.787 115.75 77.787 115.75C77.787 115.75 76.427 135.51 74.147 143.24C71.857 150.97 66.527 168.02 61.617 173.21C56.707 178.41 50.757 178.88 47.457 178.48Z" fill="#534057"/>
<path fill-rule="evenodd" clip-rule="evenodd" d="M53.4759 97.24C53.5859 96.32 53.8359 94.85 53.3259 94.01C52.7159 93.02 51.2959 91.97 50.4659 91.13C48.7559 89.42 47.6459 87.44 45.9259 90.01C44.7459 91.77 45.1259 94.27 45.8959 96.12C46.8159 98.32 48.3259 99.3 50.6859 99.4C51.8359 99.46 52.9459 99.14 53.4759 97.24Z" fill="url(#paint16_linear_27_4960)"/>
<path fill-rule="evenodd" clip-rule="evenodd" d="M45.7968 90.3501C45.0368 92.0101 45.3368 94.0801 46.3268 95.6101C47.2368 97.0201 48.8768 97.6201 50.3668 98.2001C51.4368 98.6101 52.1468 98.3101 53.1968 98.0401C52.8268 99.5101 51.6668 99.5001 50.2868 99.4301C48.6368 99.3501 47.3268 98.5601 46.3568 97.2001C45.1468 95.4901 44.5168 92.0101 45.7968 90.3501Z" fill="#4F3A52"/>
<path opacity="0.5" fill-rule="evenodd" clip-rule="evenodd" d="M46.0565 95.48C45.8365 93.9 44.6466 90.08 47.3566 90.94C49.6366 91.67 51.0365 93.44 51.9965 95.51C52.5165 96.64 53.3066 98.22 51.7866 98.83C49.5266 99.72 46.3765 96.71 46.0565 95.48Z" fill="#9ECAB7"/>
<path fill-rule="evenodd" clip-rule="evenodd" d="M45.9754 106.07C45.5754 107.78 45.5854 109.65 45.5354 111.39C45.5154 112.09 45.3453 113.12 45.8053 113.69C46.0153 113.95 47.3953 114.6 47.8153 114.79C48.6153 113.12 48.6853 111.06 49.0053 109.25C49.1053 108.7 49.9254 105.99 49.5854 105.43C48.8654 104.25 46.8954 104.55 45.9754 106.07Z" fill="url(#paint17_linear_27_4960)"/>
<path fill-rule="evenodd" clip-rule="evenodd" d="M45.9764 105.84C45.9764 107.88 45.7763 110.09 46.2063 112.06C46.5163 113.46 46.8764 113.73 48.2864 113.76C48.1764 114.23 48.0663 114.66 47.9263 115.12C46.9563 114.28 45.4763 114.22 45.3063 112.9C45.1163 111.45 45.4663 109.85 45.4863 108.38C45.4963 107.35 45.7664 106.02 45.9764 105.84Z" fill="#4F3A52"/>
<path opacity="0.5" fill-rule="evenodd" clip-rule="evenodd" d="M46.0955 107.7C46.6055 105.36 47.7854 105.83 48.0654 107.82C48.3454 109.81 47.8954 111.88 47.8254 113.85C45.3754 114.3 45.9655 108.26 46.0955 107.7Z" fill="#9ECAB7"/>
<path fill-rule="evenodd" clip-rule="evenodd" d="M137.925 152.68C137.925 152.68 136.545 149.57 138.675 149.16C140.805 148.75 150.905 145.33 150.905 145.33C150.905 145.33 140.405 144.27 137.495 144.27C134.585 144.27 134.835 148.7 134.835 148.7L137.925 152.68Z" fill="#857299"/>
<path fill-rule="evenodd" clip-rule="evenodd" d="M36.276 179.66C35.696 179.35 38.136 173.1 38.696 173.22C39.256 173.34 43.566 177.88 43.886 178.59C44.196 179.3 39.166 181.22 36.276 179.66Z" fill="url(#paint18_linear_27_4960)"/>
<path fill-rule="evenodd" clip-rule="evenodd" d="M28.2756 138.88C28.2056 140.9 27.7956 141.25 25.8656 140.95C24.9156 140.8 24.5256 140.77 23.9456 140.95C23.8256 140.98 23.7056 141.02 23.5756 141.07C21.7956 141.71 21.0456 140.06 20.2356 138.5C19.8356 137.72 19.4656 136.92 19.1556 136.09C19.1556 136.08 19.1456 136.08 19.1456 136.07C18.9056 135.45 18.6956 134.82 18.4956 134.18C18.4956 134.15 18.4856 134.13 18.4756 134.1C18.2256 133.3 18.0156 132.49 17.8256 131.67C17.8256 131.65 17.8156 131.62 17.8056 131.6C17.3256 129.52 16.9656 127.38 16.6356 125.31C15.7856 120.12 15.7756 115.1 16.0156 109.85C16.1756 106.42 14.8356 104.51 15.9756 101.24C15.6056 99.2898 16.1656 96.8698 17.7356 95.5498C18.3156 96.3098 18.4956 97.4098 18.8956 98.2798C19.6056 99.7998 20.3556 101.32 21.3056 102.71C21.3756 102.82 21.4456 102.92 21.5256 103.02C22.4956 104.38 23.6156 105.6 25.1156 106.38C25.8756 106.77 26.9656 107 27.2356 107.91C27.4456 108.59 27.0456 109.81 27.0056 110.49C26.8356 113.07 26.9756 115.69 27.0556 118.28C27.1156 120.4 27.1756 122.52 27.2856 124.63C27.3556 126.3 27.4556 127.97 27.5856 129.64C27.8556 132.69 28.3756 135.8 28.2756 138.88Z" fill="url(#paint19_linear_27_4960)"/>
<path fill-rule="evenodd" clip-rule="evenodd" d="M28.2764 138.88C28.2064 140.9 27.7964 141.25 25.8664 140.95C24.9164 140.8 24.5264 140.77 23.9464 140.95C23.1964 140.43 22.5864 139.76 22.0764 139L22.0664 138.99C20.9264 137.33 20.2664 135.26 19.6864 133.44C17.3864 126.24 17.6064 118.94 17.2964 111.5C17.1864 108.9 16.7464 106.25 16.9564 103.65C17.0764 102.17 17.3864 99.6702 18.5464 98.6602C19.5764 99.7602 20.3964 101.4 21.0264 102.78C21.1164 102.75 21.2164 102.71 21.3064 102.69C21.3764 102.8 21.4464 102.9 21.5264 103C22.4964 104.36 23.6164 105.58 25.1164 106.36C25.8764 106.75 26.9664 106.98 27.2364 107.89C27.4464 108.57 27.0464 109.79 27.0064 110.47C26.8364 113.05 26.9764 115.67 27.0564 118.26C27.1164 120.38 27.1764 122.5 27.2864 124.61C27.3564 126.28 27.4564 127.95 27.5864 129.62C27.8564 132.69 28.3764 135.8 28.2764 138.88Z" fill="#37253B"/>
<path fill-rule="evenodd" clip-rule="evenodd" d="M17.8262 131.67C18.1062 132.49 18.2662 133.3 18.4762 134.1C18.2262 133.3 18.0062 132.49 17.8262 131.67Z" fill="#4F3A52"/>
<path fill-rule="evenodd" clip-rule="evenodd" d="M28.2762 138.88C28.2062 140.9 27.7962 141.25 25.8662 140.95C24.9162 140.8 24.5262 140.77 23.9462 140.95C23.8262 140.98 23.7062 141.02 23.5762 141.07C21.7962 141.71 21.0462 140.06 20.2362 138.5C19.8362 137.72 19.4663 136.92 19.1562 136.09C19.4563 136.71 19.8562 137.29 20.4262 137.83C20.9562 138.32 21.4962 138.71 22.0762 138.99L22.0862 139C22.7562 139.33 23.4762 139.55 24.2662 139.68C24.7562 139.77 25.6562 140.07 26.1262 139.94C27.3362 139.59 27.6162 137.56 27.6162 136.46C27.6162 135.65 27.3262 134.91 27.2162 134.11C26.9062 131.91 27.0262 129.46 27.1162 127.23C27.1462 126.37 27.2063 125.51 27.2863 124.64C27.3563 126.31 27.4562 127.98 27.5862 129.65C27.8562 132.69 28.3762 135.8 28.2762 138.88Z" fill="#4F3A52"/>
<path fill-rule="evenodd" clip-rule="evenodd" d="M47.457 27.1499C47.457 27.1499 56.557 29.6699 56.817 30.0999C57.077 30.5299 76.377 52.8899 79.037 54.1999C81.697 55.4999 88.057 59.6399 88.057 59.6399L75.587 56.9499C75.587 56.9499 75.027 55.2999 74.007 53.8999C72.987 52.4999 56.967 32.0099 55.377 31.2599C53.797 30.5199 47.457 27.1499 47.457 27.1499Z" fill="#6D5D74"/>
<path fill-rule="evenodd" clip-rule="evenodd" d="M75.7266 10.6699C75.7266 10.6699 82.9566 15.5899 89.1666 21.1099C95.3766 26.6399 97.1165 26.8899 97.9265 27.6299C98.7365 28.3799 101.537 30.8099 101.537 30.8099L94.2665 28.1999C94.2665 28.1999 90.6665 23.2799 85.9465 19.4999C81.2165 15.7099 75.7266 10.6699 75.7266 10.6699Z" fill="#6D5D74"/>
<path fill-rule="evenodd" clip-rule="evenodd" d="M176.496 99.4502C176.496 99.4502 188.606 107.79 190.746 108.69C192.896 109.58 204.426 113.16 204.426 113.16L208.236 113.79C208.236 113.79 204.326 114.15 204.226 114.28C204.126 114.41 190.436 110.9 189.496 110.35C188.546 109.8 176.496 99.4502 176.496 99.4502Z" fill="#6D5D74"/>
<path fill-rule="evenodd" clip-rule="evenodd" d="M150.406 160.26C151.496 161.01 154.506 166.44 154.666 166.56C154.826 166.67 160.106 173.17 160.106 173.17C160.106 173.17 156.436 167.34 156.066 166.75C155.696 166.16 153.986 161.09 154.096 160.3C154.206 159.51 150.696 158.31 149.166 157.74C147.636 157.17 138.836 153.44 138.836 153.44L150.406 160.26Z" fill="url(#paint20_linear_27_4960)"/>
<path fill-rule="evenodd" clip-rule="evenodd" d="M139.066 153.66C139.066 153.66 141.696 156.43 142.786 157.29C143.876 158.16 149.026 159.78 150.606 161.63C152.186 163.48 155.506 168.27 155.506 168.27L158.406 171.07C158.406 171.07 154.326 166.02 154.016 165.5C153.706 164.98 151.236 160.29 150.766 159.83C150.296 159.36 143.566 156.55 142.706 156.25C141.846 155.96 139.066 153.66 139.066 153.66Z" fill="#3F2941"/>
<path fill-rule="evenodd" clip-rule="evenodd" d="M172.297 137.9C172.297 137.9 173.657 133.57 176.497 130.76C179.337 127.95 185.267 128.83 185.267 128.83C185.267 128.83 180.087 137.05 172.297 137.9Z" fill="url(#paint21_linear_27_4960)"/>
<path fill-rule="evenodd" clip-rule="evenodd" d="M185.267 128.84C185.267 128.84 181.537 134.15 178.287 135.72C175.047 137.28 172.287 137.91 172.287 137.91C172.287 137.91 177.177 137.81 180.457 136.17C183.737 134.53 186.857 128.12 186.857 128.12L185.267 128.84Z" fill="#473048"/>
<path opacity="0.7" fill-rule="evenodd" clip-rule="evenodd" d="M112.126 126.57C116.026 126.57 123.256 128.92 126.316 126.34C128.656 124.36 128.866 120.1 131.446 117.88C133.426 116.17 135.226 115.75 137.716 115.45C140.796 115.07 141.906 115.87 142.446 112.89C143.216 108.66 141.696 103.11 141.476 98.8799C141.186 93.0799 141.556 87.3599 143.396 81.8099C145.146 76.5499 144.246 74.7399 141.126 69.3999C134.006 57.2199 134.756 40.6599 139.946 27.8499C140.846 25.6399 141.746 24.0399 141.686 21.8899C141.636 20.2299 140.956 17.5899 140.686 16.3599C139.806 20.7899 137.206 28.0699 131.856 28.7999C129.676 29.0999 127.956 27.2099 126.066 26.8099C125.226 36.0999 132.766 53.2599 122.126 59.2599C114.716 63.4299 113.386 50.6999 111.176 46.7599C110.686 50.9799 112.586 55.4799 113.136 59.6099C114.056 66.5199 114.296 73.3799 114.946 80.3199C118.546 78.6899 119.926 77.8399 122.536 81.9099C125.116 85.9299 127.216 90.3899 129.436 94.6199C131.056 97.7099 134.036 102.72 133.836 106.37C133.706 108.67 132.746 108.78 131.126 110.39C128.906 112.6 128.726 114.55 128.146 117.5C127.766 119.43 127.486 123.01 125.956 124.49C123.526 126.84 115.396 126.85 112.126 126.57Z" fill="url(#paint22_linear_27_4960)"/>
<path opacity="0.7" fill-rule="evenodd" clip-rule="evenodd" d="M128.547 120.5C132.457 118.47 137.777 117.98 139.457 113.32C141.227 108.41 138.027 104.56 137.727 100.04C137.487 96.41 141.987 94.62 142.557 91.58C143.117 88.6 138.687 81.21 138.087 78.04C137.197 73.4 136.817 68.66 135.687 64.07C126.567 68.25 121.817 58.96 118.657 51.57C115.547 44.31 115.027 37.06 115.667 29.26C115.947 25.86 117.367 19.37 114.397 16.51C110.807 13.06 103.567 15.81 98.9772 13.24C93.7472 10.32 91.0972 5.08 89.2372 0C89.1972 4.54 87.1672 9.51 82.8672 11.37C89.4172 15.45 94.8972 18.1 99.0172 25.03C102.767 31.34 105.507 38.22 107.347 45.3C111.417 60.98 125.547 72.2 130.037 87.85C121.687 86.97 126.437 100.43 127.807 104.13C128.937 107.16 130.947 110.72 130.767 113.97C130.647 115.82 129.517 117.89 128.547 120.5Z" fill="url(#paint23_linear_27_4960)"/>
<path opacity="0.7" fill-rule="evenodd" clip-rule="evenodd" d="M11.0763 165.47C14.5163 155.93 21.6563 146.52 15.6763 137.48C9.27628 127.8 3.07627 119.94 1.23627 107.94C0.126274 100.68 -1.46369 87.74 2.77631 81.1199C3.38631 80.17 5.0263 80.2599 5.6363 79.2199C6.8563 77.1399 7.08631 74.9599 7.52631 72.4799C9.73631 59.9899 6.02631 46.8499 8.58631 34.1499C22.8863 37.4399 29.6063 22.6999 34.9263 11.9399C39.5763 14.1699 43.4663 17.8399 48.7463 19.4499C55.8963 21.6399 62.8063 20.1999 70.0363 20.4599C57.4063 20.6499 43.9963 25.6399 35.2863 33.2999C28.6363 39.1499 22.6863 42.8499 22.6163 52.7199C13.5263 51.9099 17.7963 69.6399 18.0363 74.5599C18.6263 87.0599 15.6163 99.1799 16.1163 111.6C16.5763 123.04 16.9163 135.24 20.1763 146.31C20.6363 147.86 22.2063 148.57 22.1163 150.31C21.8363 155.68 12.5963 162.68 11.0763 165.47Z" fill="url(#paint24_linear_27_4960)"/>
<defs>
<linearGradient id="paint0_linear_27_4960" x1="112.675" y1="186.826" x2="127.089" y2="14.3121" gradientUnits="userSpaceOnUse">
<stop stop-color="#1E0B21"/>
<stop offset="0.9904" stop-color="#24172A"/>
</linearGradient>
<linearGradient id="paint1_linear_27_4960" x1="81.7983" y1="93.8103" x2="88.6528" y2="11.7747" gradientUnits="userSpaceOnUse">
<stop stop-color="#3D2841"/>
<stop offset="0.9904" stop-color="#3A2941"/>
</linearGradient>
<linearGradient id="paint2_linear_27_4960" x1="46.1166" y1="178.397" x2="58.7709" y2="26.9468" gradientUnits="userSpaceOnUse">
<stop stop-color="#3D2841"/>
<stop offset="0.9904" stop-color="#3A2941"/>
</linearGradient>
<linearGradient id="paint3_linear_27_4960" x1="24.4066" y1="184.335" x2="27.2042" y2="150.853" gradientUnits="userSpaceOnUse">
<stop stop-color="#1E0B21"/>
<stop offset="0.9904" stop-color="#24172A"/>
</linearGradient>
<linearGradient id="paint4_linear_27_4960" x1="18.9378" y1="183.596" x2="21.8494" y2="148.749" gradientUnits="userSpaceOnUse">
<stop stop-color="#5F4A63"/>
<stop offset="0.9904" stop-color="#594B60"/>
</linearGradient>
<linearGradient id="paint5_linear_27_4960" x1="65.3849" y1="61.3936" x2="68.5144" y2="23.9391" gradientUnits="userSpaceOnUse">
<stop stop-color="#5F4A63"/>
<stop offset="0.9904" stop-color="#594B60"/>
</linearGradient>
<linearGradient id="paint6_linear_27_4960" x1="86.8449" y1="29.5604" x2="88.4425" y2="10.4412" gradientUnits="userSpaceOnUse">
<stop stop-color="#5F4A63"/>
<stop offset="0.9904" stop-color="#594B60"/>
</linearGradient>
<linearGradient id="paint7_linear_27_4960" x1="20.0438" y1="79.0865" x2="22.4334" y2="50.4867" gradientUnits="userSpaceOnUse">
<stop stop-color="#5F4A63"/>
<stop offset="0.9904" stop-color="#594B60"/>
</linearGradient>
<linearGradient id="paint8_linear_27_4960" x1="189.652" y1="113.285" x2="190.974" y2="97.4591" gradientUnits="userSpaceOnUse">
<stop stop-color="#5F4A63"/>
<stop offset="0.9904" stop-color="#594B60"/>
</linearGradient>
<linearGradient id="paint9_linear_27_4960" x1="96.3584" y1="184.927" x2="108.319" y2="41.7798" gradientUnits="userSpaceOnUse">
<stop stop-color="#FF3800"/>
<stop offset="0.6328" stop-color="#FF1400"/>
<stop offset="1" stop-color="#FF0400"/>
</linearGradient>
<linearGradient id="paint10_linear_27_4960" x1="104.709" y1="130.361" x2="107.451" y2="97.5458" gradientUnits="userSpaceOnUse">
<stop stop-color="#FF3800"/>
<stop offset="0.6328" stop-color="#FF1400"/>
<stop offset="1" stop-color="#FF0400"/>
</linearGradient>
<linearGradient id="paint11_linear_27_4960" x1="100.932" y1="133.772" x2="102.37" y2="116.562" gradientUnits="userSpaceOnUse">
<stop stop-color="#FF3800"/>
<stop offset="0.6328" stop-color="#FF1400"/>
<stop offset="1" stop-color="#FF0400"/>
</linearGradient>
<linearGradient id="paint12_linear_27_4960" x1="91.6948" y1="172.662" x2="102.06" y2="48.6062" gradientUnits="userSpaceOnUse">
<stop stop-color="#FF3800"/>
<stop offset="0.6328" stop-color="#FF1400"/>
<stop offset="1" stop-color="#FF0400"/>
</linearGradient>
<linearGradient id="paint13_linear_27_4960" x1="113.195" y1="117.321" x2="115.599" y2="88.5477" gradientUnits="userSpaceOnUse">
<stop stop-color="#FF3800"/>
<stop offset="0.6328" stop-color="#FF1400"/>
<stop offset="1" stop-color="#FF0400"/>
</linearGradient>
<linearGradient id="paint14_linear_27_4960" x1="110.357" y1="164.886" x2="113.78" y2="123.913" gradientUnits="userSpaceOnUse">
<stop stop-color="#FF3800"/>
<stop offset="0.6328" stop-color="#FF1400"/>
<stop offset="1" stop-color="#FF0400"/>
</linearGradient>
<linearGradient id="paint15_linear_27_4960" x1="120.928" y1="131.049" x2="122.092" y2="117.123" gradientUnits="userSpaceOnUse">
<stop stop-color="#FF3800"/>
<stop offset="0.6328" stop-color="#FF1400"/>
<stop offset="1" stop-color="#FF0400"/>
</linearGradient>
<linearGradient id="paint16_linear_27_4960" x1="48.9725" y1="99.2705" x2="49.8332" y2="88.9689" gradientUnits="userSpaceOnUse">
<stop offset="0.00959658" stop-color="#24172A"/>
<stop offset="1" stop-color="#1E0B21"/>
</linearGradient>
<linearGradient id="paint17_linear_27_4960" x1="47.0266" y1="114.72" x2="47.8663" y2="104.671" gradientUnits="userSpaceOnUse">
<stop offset="0.00959658" stop-color="#24172A"/>
<stop offset="1" stop-color="#1E0B21"/>
</linearGradient>
<linearGradient id="paint18_linear_27_4960" x1="39.9317" y1="180.358" x2="40.5156" y2="173.37" gradientUnits="userSpaceOnUse">
<stop stop-color="#5F4A63"/>
<stop offset="0.9904" stop-color="#594B60"/>
</linearGradient>
<linearGradient id="paint19_linear_27_4960" x1="20.2471" y1="140.992" x2="24.0011" y2="96.063" gradientUnits="userSpaceOnUse">
<stop offset="0.00959658" stop-color="#24172A"/>
<stop offset="1" stop-color="#1E0B21"/>
</linearGradient>
<linearGradient id="paint20_linear_27_4960" x1="147.875" y1="170.417" x2="151.073" y2="156.183" gradientUnits="userSpaceOnUse">
<stop offset="0.00959658" stop-color="#24172A"/>
<stop offset="1" stop-color="#1E0B21"/>
</linearGradient>
<linearGradient id="paint21_linear_27_4960" x1="178.36" y1="138.411" x2="179.203" y2="128.315" gradientUnits="userSpaceOnUse">
<stop stop-color="#1E0B21"/>
<stop offset="0.9904" stop-color="#24172A"/>
</linearGradient>
<linearGradient id="paint22_linear_27_4960" x1="127.689" y1="127.546" x2="127.689" y2="16.3529" gradientUnits="userSpaceOnUse">
<stop stop-color="#42478B"/>
<stop offset="0.4441" stop-color="#252217"/>
<stop offset="0.9904"/>
</linearGradient>
<linearGradient id="paint23_linear_27_4960" x1="112.73" y1="120.502" x2="112.73" y2="-0.00609823" gradientUnits="userSpaceOnUse">
<stop stop-color="#42478B"/>
<stop offset="0.4441" stop-color="#252217"/>
<stop offset="0.9904"/>
</linearGradient>
<linearGradient id="paint24_linear_27_4960" x1="25.7944" y1="166.7" x2="38.6993" y2="12.2502" gradientUnits="userSpaceOnUse">
<stop stop-color="#42478B"/>
<stop offset="0.4441" stop-color="#252217"/>
<stop offset="0.9904"/>
</linearGradient>
</defs>
</svg>
