<svg width="252" height="166" viewBox="0 0 252 166" fill="none" xmlns="http://www.w3.org/2000/svg">
<path fill-rule="evenodd" clip-rule="evenodd" d="M209.717 101.775C209.313 102.97 207.825 104.65 205.71 106.578C205.71 106.578 205.7 106.578 205.69 106.588C198.426 113.214 183.8 122.767 180.173 126.055C174.886 130.864 168.965 136.202 162.669 141.085L162.659 141.086C155.65 146.568 148.184 151.476 140.623 154.486C149.172 151.363 161.882 148.216 169.857 143.931C165.623 146.737 160.901 152.71 159.438 157.819C151.627 157.762 144.878 162.511 137.56 163.437C124.74 165.055 108.831 161.393 95.447 161.979C79.065 162.694 62.5604 164.741 46.2979 165.414C48.1329 164.26 50.6885 162.386 52.2911 161.045C51.1542 160.53 50.8755 159.863 50.1588 159.363C55.2408 155.666 58.6266 154.561 64.5473 153.054C64.5181 152.354 64.4291 151.665 64.3206 151.016C62.5219 141.219 51.3866 136.315 44.3376 130.337C30.5732 118.656 15.1051 98.3174 9.20297 78.3731C9.20283 78.3631 9.20283 78.3631 9.20283 78.3631C7.40363 72.3362 6.49488 66.3376 6.77009 60.6335C8.04152 61.4969 9.95384 61.6618 11.1254 62.5365C11.3351 49.5526 2.34388 38.0796 0.495605 25.2627C-1.56338 10.8685 5.21032 8.81946 18.2817 11.8883C26.0665 13.7263 36.3745 17.3214 43.544 21.0477C48.2464 23.4862 52.9078 28.8956 56.937 32.623C74.3097 48.7265 91.0389 64.5685 99.2685 87.3525C100.846 91.7122 103.676 97.0355 101.115 101.529C100.274 103.001 97.8014 103.593 96.6053 104.659C96.4173 104.811 96.2596 104.993 96.1421 105.185C93.9114 108.955 90.1378 114.045 88.6133 119.045C88.7134 119.054 88.7936 119.063 88.8935 119.061C101.806 119.952 112.422 108.082 118.158 97.8456C121.519 91.851 122.235 91.5416 127.866 85.4572C137.007 75.5865 130.763 75.3083 130.767 65.6475C130.767 64.1273 131.672 59.9951 132.448 58.9148C133.912 56.8655 137.901 55.263 139.945 54.0161C155.958 44.2452 171.804 34.6565 188.995 27.0204C206.832 19.0957 222.356 13.1916 241.186 12.3045C244.255 12.1543 246.518 12.4346 249.414 10.5765C249.424 10.5663 249.424 10.5663 249.424 10.5663C243.254 44.1601 203.077 65.999 191.694 97.061C191.51 97.5635 191.546 97.983 191.77 98.3001C193.73 101.355 211.247 97.1545 209.717 101.775Z" fill="url(#paint0_linear_27_4526)"/>
<path opacity="0.7" fill-rule="evenodd" clip-rule="evenodd" d="M111.857 106.119C116.121 100.273 121.168 92.4057 121.913 85.1153C122.586 78.4859 117.855 79.9681 113.264 81.4784C96.6144 86.9473 93.3331 55.6076 96.2536 44.9584C97.6757 39.7693 100.255 41.2356 104.723 39.5369C111.321 37.0301 113.696 31.2884 114.972 24.8712C115.882 20.2888 115.065 15.2391 117.15 10.9714C117.6 11.0255 117.195 11.3808 117.517 11.5566C121.111 4.91893 129.915 0.653068 137.258 0.816769C129.361 -1.97988 123.616 10.6666 126.754 16.5559C132.824 27.9473 144.324 24.8662 154.256 22.6157C156.746 27.9935 162.013 29.2045 167.279 30.4455C165.133 33.774 162.75 35.0654 163.987 39.4295C151.547 41.7829 132.173 50.0077 131.724 64.5448C131.612 68.2566 134.586 73.8381 133.468 77.033C132.417 80.0271 127.316 84.5644 125.613 87.417C122.276 93.0312 120.578 99.244 111.857 106.119Z" fill="url(#paint1_linear_27_4526)"/>
<path opacity="0.7" fill-rule="evenodd" clip-rule="evenodd" d="M132.15 121.514C132.076 115.114 136.439 103.906 131.108 99.2957C128.023 96.626 125.53 94.1185 124.943 89.7658C124.423 85.9623 126.036 82.3908 126.067 78.6801C126.818 78.7102 127.513 78.3311 128.263 78.3213C129.278 74.9076 129.897 70.9792 130.88 67.426C131.415 65.4888 131.798 61.8935 133.56 60.5602C134.6 59.7765 136.255 60.1449 137.316 59.4309C139.586 57.931 141.921 53.68 143.403 51.5704C145.455 48.6532 147.382 46.0877 145.348 42.7741C143.703 40.0854 140.819 38.2731 139.083 35.5456C138.388 34.4547 137.801 33.1123 136.869 32.2644C134.808 37.4919 129.843 37.927 125.03 36.9501C116.466 35.2123 113.636 46.6304 112.563 53.295C111.306 61.1122 112.157 68.8617 113.688 76.5623C114.063 78.4575 114.586 84.7812 116.047 86.3222C117.314 87.6657 119.819 87.2628 120.631 89.6823C122.182 94.3324 110.683 99.0636 116.927 103.132C119.782 104.995 120.903 103.52 122.612 107.288C124.487 111.484 126.083 120.273 132.15 121.514Z" fill="url(#paint2_linear_27_4526)"/>
<path fill-rule="evenodd" clip-rule="evenodd" d="M169.918 143.91C170.473 143.533 171.019 143.226 171.556 142.979C171.04 143.296 170.494 143.613 169.918 143.91Z" fill="url(#paint3_linear_27_4526)"/>
<path fill-rule="evenodd" clip-rule="evenodd" d="M132.429 58.9349C131.028 63.4037 177.176 56.8678 190.385 55.9645C203.594 55.0611 228.815 36.6087 232.689 33.1276C236.564 29.6465 249.405 10.5864 249.405 10.5864C249.405 10.5864 234.659 11.72 215.125 16.9166C195.571 22.1035 146.497 46.5193 132.429 58.9349Z" fill="url(#paint4_linear_27_4526)"/>
<path fill-rule="evenodd" clip-rule="evenodd" d="M3.73322 12.0291C0.983696 15.8955 20.3777 49.624 22.6113 52.1649C24.8448 54.7058 19.1093 46.7004 21.2228 39.332C23.3262 31.9538 49.9543 64.4173 51.738 70.0244C53.5217 75.6315 49.6056 75.1928 49.6056 75.1928C49.6056 75.1928 91.1639 104.52 99.0872 103.196C107.011 101.872 100.142 81.4205 82.9491 59.2241C65.7565 37.0277 46.2092 23.6429 41.8942 20.2392C37.5792 16.8355 6.79707 7.7285 3.73322 12.0291Z" fill="url(#paint5_linear_27_4526)"/>
<path fill-rule="evenodd" clip-rule="evenodd" d="M6.75195 60.6538C6.75195 60.6538 7.78863 79.4518 26.1856 101.212C44.5927 122.973 61.1311 128.086 61.1311 128.086C61.1311 128.086 19.8022 100.226 11.1173 62.5567L6.75195 60.6538Z" fill="#331F36"/>
<path fill-rule="evenodd" clip-rule="evenodd" d="M50.1501 159.383C50.1501 159.383 61.859 150.838 64.3018 151.036C66.7546 151.234 82.486 155.808 82.486 155.808C82.486 155.808 78.8368 157.416 69.9082 158.343C60.9895 159.271 50.1501 159.383 50.1501 159.383Z" fill="#331F36"/>
<path fill-rule="evenodd" clip-rule="evenodd" d="M52.2924 161.065C52.2924 161.065 59.1665 160.565 62.3516 160.933C65.5367 161.301 65.5367 161.301 65.5367 161.301C65.5367 161.301 52.2518 164.826 46.8644 165.056C46.8744 165.056 49.7256 162.849 52.2924 161.065Z" fill="#331F36"/>
<path fill-rule="evenodd" clip-rule="evenodd" d="M131.802 158.312C131.802 158.312 142.337 149.473 147.427 145.606C152.517 141.729 168.66 138.097 171.555 142.979C171.555 142.979 155.969 152.554 152.677 153.958C149.395 155.361 131.802 158.312 131.802 158.312Z" fill="#331F36"/>
<path fill-rule="evenodd" clip-rule="evenodd" d="M124.644 158.406C124.644 158.406 127.699 153.435 130.266 153.222C132.834 153.008 132.834 153.008 132.834 153.008C132.834 153.008 127.945 158.512 124.644 158.406Z" fill="#331F36"/>
<path fill-rule="evenodd" clip-rule="evenodd" d="M26.998 78.5498C26.998 78.5498 41.1906 96.1852 55.4317 103.799C69.6628 111.413 86.674 110.63 86.674 110.63C86.674 110.63 75.4727 120.518 67.4882 120.992C59.5138 121.467 34.1846 94.2469 26.998 78.5498Z" fill="#331F36"/>
<path fill-rule="evenodd" clip-rule="evenodd" d="M112.253 106.514C108.437 110.644 134.315 125.626 134.315 125.626C134.315 125.626 128.157 139.478 112.74 143.631C97.3229 147.783 82.2387 136.13 82.2387 136.13L88.6054 119.065C88.6053 119.055 104.879 117.692 112.253 106.514Z" fill="#251128"/>
<path fill-rule="evenodd" clip-rule="evenodd" d="M191.732 98.3308C192.582 102.09 146.626 140.866 146.626 140.866C146.626 140.866 169.807 130.121 186.737 118.518C203.666 106.915 208.916 100.756 207.611 99.6826C206.307 98.5996 191.732 98.3308 191.732 98.3308Z" fill="#331F36"/>
<path fill-rule="evenodd" clip-rule="evenodd" d="M191.741 98.3204C191.731 98.3205 191.731 98.3305 191.741 98.3204C188.89 103.608 172.116 118.65 171.078 119.583C171.729 118.855 179.092 110.657 182.536 105.582C186.126 100.284 193.238 74.4387 193.238 74.4387C193.238 74.4387 191.394 65.7522 196.545 58.1539C201.696 50.5557 232.699 33.1176 232.699 33.1176C237.033 28.0503 249.032 11.1114 249.405 10.5865C249.415 10.5764 249.415 10.5764 249.415 10.5764C243.245 44.1702 203.068 66.0091 191.685 97.071C191.482 97.5937 191.517 98.0033 191.741 98.3204Z" fill="#857299"/>
<path fill-rule="evenodd" clip-rule="evenodd" d="M205.691 106.588C198.428 113.214 183.802 122.767 180.175 126.054C174.887 130.864 168.967 136.202 162.67 141.085L162.66 141.085C158.589 141.749 154.359 142.564 151.569 143.381C144.995 145.348 138.737 152.4 138.293 152.896C138.695 152.261 145.033 142.147 146.626 140.856C148.258 139.524 173.82 128.038 179.705 123.07C185.512 118.184 205.086 106.936 205.691 106.588Z" fill="#857299"/>
<path fill-rule="evenodd" clip-rule="evenodd" d="M99.6782 103.219C99.4902 103.371 96.2512 104.994 96.1338 105.195C93.9031 108.965 90.1295 114.055 88.605 119.055C88.7051 119.064 88.7853 119.073 88.8852 119.071C81.3984 126.22 81.3612 143.972 81.3612 143.972C78.561 135.588 78.7791 117.904 78.7791 117.904L86.6843 110.63L96.3585 103.262C96.3485 103.262 99.5867 102.34 99.6782 103.219Z" fill="#857299"/>
<path fill-rule="evenodd" clip-rule="evenodd" d="M181.465 56.8015C180.759 57.1308 192.434 64.2683 193.094 64.2496C193.754 64.2309 204.963 51.1128 204.963 51.1128C204.963 51.1128 188.533 53.5185 181.465 56.8015Z" fill="#3A2B40"/>
<path fill-rule="evenodd" clip-rule="evenodd" d="M23.918 53.488C23.918 53.488 33.146 32.6952 46.0648 75.9694C46.0649 75.9794 27.5653 79.9424 23.918 53.488Z" fill="#331F36"/>
<path fill-rule="evenodd" clip-rule="evenodd" d="M64.3109 151.047C62.5123 141.249 51.377 136.345 44.328 130.367C30.5636 118.686 15.0955 98.3476 9.19336 78.4033C9.59133 79.0082 26.0523 104.134 42.4047 118.691C58.9391 133.406 65.7503 134.976 66.0251 135.343C66.3098 135.699 67.3863 149.906 64.3109 151.047Z" fill="#857299"/>
<path fill-rule="evenodd" clip-rule="evenodd" d="M151.504 59.8548C151.504 59.8548 178.392 56.4519 180.958 55.3981C183.515 54.3445 201.64 48.5363 204.919 46.9331C208.178 45.3202 228.145 35.7475 228.145 35.7475C228.145 35.7475 209.252 47.9064 204.964 51.1129C204.964 51.1129 193.387 52.1648 181.467 56.8016C181.467 56.8016 157.626 59.9646 151.504 59.8548Z" fill="#6D5D74"/>
<path fill-rule="evenodd" clip-rule="evenodd" d="M50.8436 68.1862C50.8436 68.1862 54.0078 73.0651 54.4978 75.3489C54.988 77.6426 67.9688 87.5332 67.9688 87.5332L78.9793 94.3594C78.9793 94.3594 69.1897 89.1173 61.6025 84.8065C54.0153 80.4956 49.6055 75.203 49.6055 75.203C49.6055 75.203 51.771 74.0845 50.8436 68.1862Z" fill="#534057"/>
<path fill-rule="evenodd" clip-rule="evenodd" d="M131.835 72.4041C131.663 74.5465 131.043 77.5549 133.13 78.8677C135.076 80.0923 139.538 79.4537 141.688 79.3855C149.395 79.1444 156.981 78.8048 164.616 79.0847C169.228 79.2542 173.99 77.7816 178.638 77.6607C182.417 77.5711 184.458 79.1044 187.049 81.4907C190.576 78.9142 194.167 76.7069 198.485 75.7402C203.501 74.6243 207.457 69.782 211.364 66.4304C213.47 64.6127 215.684 62.5734 217.274 60.2924C214.419 62.2 212.205 64.9693 209.38 66.9265C207.884 67.9562 206.281 68.4973 204.753 69.4674C201.897 71.285 200.201 73.9375 196.763 74.8627C195.248 75.2726 193.557 75.1648 192.071 75.5243C189.938 76.0323 188.103 77.2265 185.801 77.0867C182.819 76.9058 180.185 75.8802 177.048 76.0914C167.805 76.7127 158.831 77.2304 149.541 77.3123C145.311 77.3478 133.824 79.8987 131.835 72.4041Z" fill="url(#paint6_linear_27_4526)"/>
<path fill-rule="evenodd" clip-rule="evenodd" d="M121.554 91.3908C120.873 93.6299 117.909 98.6192 119.16 100.993C120.021 102.612 123.464 103.587 124.86 104.799C128.502 107.971 128.843 112.627 130.758 116.762C131.89 119.218 132.664 120.298 135.442 120.111C141.927 119.656 148.806 114.995 154.777 112.737C161.325 110.261 167.992 108.473 174.854 107.083C176.939 106.666 179.277 106.505 181.022 105.312C183.371 103.701 185.054 100.859 186.926 98.7539C188.917 96.5176 190.746 94.8635 193.054 93.1831C191.855 94.789 190.473 96.9873 191.48 99.0442C190.208 100.411 188.858 101.909 187.597 103.366C186.07 105.146 183.948 109.564 181.689 110.424C179.918 111.097 176.578 109.631 174.717 109.595C171.796 109.543 168.813 110.072 165.95 110.65C155.148 112.802 144.478 118.202 135.422 124.722C133.543 124.026 131.716 122.7 129.805 121.885C128.537 121.342 124.673 121.052 123.823 120.244C122.8 119.257 123.625 116.646 123.629 115.406C123.648 112.995 123.094 110.432 122.006 108.276C121.133 106.578 117.914 104.34 117.562 102.724C117.36 101.787 118.715 99.8487 119.053 98.9742C119.807 96.9342 120.619 94.7933 121.554 91.3908Z" fill="url(#paint7_linear_27_4526)"/>
<path fill-rule="evenodd" clip-rule="evenodd" d="M87.3835 118.161C85.883 121.941 80.1508 130.957 82.0758 135.142C83.2698 137.727 87.3823 137.893 89.7639 138.762C93.5625 140.152 96.5886 142.123 99.8085 144.381C104.199 147.463 106.663 144.641 111.303 146.21C114.327 147.23 114.642 149.096 115.991 152.099C117.289 154.992 118.754 156.873 116.212 158.997C112.947 161.73 105.536 160.917 101.596 160.929C95.1654 160.943 89.6391 161.265 83.262 162.289C80.7971 162.692 80.2751 162.548 73.377 163.499C84.0622 162.299 74.163 163.949 103.03 163.57C113.43 163.434 125.763 165.112 133.326 163.783C126.675 164.53 122.344 161.457 122.037 154.83C121.883 151.472 121.988 151.8 120.207 149.484C118.335 147.028 115.908 145.03 114.83 142.083C111.587 141.916 108.753 143.123 105.343 142.428C100.039 141.337 96.2526 137.857 91.8256 135.065C87.6103 132.4 83.8511 130.959 85.2502 124.78C85.9873 121.51 88.6201 118.655 92.0486 118.52C91.4232 118.108 89.5694 117.833 87.3835 118.161Z" fill="url(#paint8_linear_27_4526)"/>
<path fill-rule="evenodd" clip-rule="evenodd" d="M98.8988 142.252C100.692 144.799 104.539 146.079 105.748 148.993C106.295 150.306 106.223 152.457 106.212 153.867C106.157 159.578 99.5821 159.275 96.0559 162.631C100.741 162.97 106.179 160.508 110.666 161.75C109.446 161.786 107.018 161.967 106.509 160.484C105.905 158.712 108.63 158.316 109.014 157.101C109.571 155.343 107.139 152.105 106.914 150.238C106.657 148.141 107.091 143.905 110.116 145.015C109.322 143.166 103.565 143.441 98.8988 142.252Z" fill="url(#paint9_linear_27_4526)"/>
<path fill-rule="evenodd" clip-rule="evenodd" d="M9.91797 53.5117C14.6828 64.5202 14.6514 75.0915 20.1137 85.9008C23.9024 93.4017 30.996 100.489 37.9872 105.108C40.0451 106.461 41.8124 107.768 43.0993 109.811C47.4703 116.725 53.9816 121.35 61.0672 125.547C65.3207 128.071 69.2051 129.141 73.8999 130.239C74.4415 130.362 74.7654 129.888 75.3486 130.13C75.9821 130.392 76.3242 131.317 77.0388 131.658C80.2688 133.166 81.334 127.451 84.2553 126.013C82.8924 130.371 82.6705 135.565 86.8807 137.839C85.2977 137.62 81.7646 135.886 80.3201 136.315C79.7323 136.483 79.3707 137.888 78.7715 137.956C77.7029 138.07 77.0651 136.718 76.3465 136.067C69.3937 129.798 59.6983 127.925 52.409 121.93C48.0214 118.328 44.605 114.052 40.4359 110.336C36.9448 107.222 33.4361 102.767 29.8364 99.7644C24.7097 95.4813 21.1069 89.9481 18.3592 84.0436C15.8482 78.6461 13.7811 73.5428 12.5845 67.718C12.0935 65.3542 11.6628 63.0196 11.2132 60.7653C10.7206 58.2816 10.8556 54.8495 9.91797 53.5117Z" fill="url(#paint10_linear_27_4526)"/>
<path fill-rule="evenodd" clip-rule="evenodd" d="M131.944 71.4828C134.815 77.6557 146.254 78.2657 151.859 76.282C158.757 73.8313 166.919 74.7243 174.235 74.3284C177.893 74.1304 181.695 73.5604 185.276 74.3235C187.432 74.7753 189.28 74.651 191.474 74.1622C197.228 72.8866 201.196 70.4144 206.228 67.5281C209.315 65.7475 212.411 63.8967 215.499 62.2061C209.969 65.2889 205.817 70.4938 200.45 73.8044C196.115 76.4815 190.285 78.8282 185.113 78.696C179.451 78.5503 173.899 76.913 168.218 76.8775C160.096 76.834 152.162 78.8283 144.034 77.5248C141.559 77.1172 127.823 78.3175 131.944 71.4828Z" fill="url(#paint11_linear_27_4526)"/>
<path fill-rule="evenodd" clip-rule="evenodd" d="M121.552 91.2709C121.214 93.6855 120.175 96.0794 120.988 98.5289C122.258 102.353 126.433 102.758 129.065 105.124C131.605 107.39 130.468 111.496 132.574 114.188C138.057 121.217 149.468 112.126 155.274 110.21C162.583 107.794 170.543 108.55 177.563 105.407C182.345 103.265 186.405 99.4609 190.129 95.9218C188.529 98.983 185.301 102.966 182.65 105.211C179.604 107.791 175.646 107.943 171.894 108.602C164.49 109.899 157.523 111.671 150.582 114.652C145.102 117.004 139.405 121.119 133.202 120.871C128.919 120.707 128.005 115.808 126.591 112.517C124.951 108.698 123.28 106.3 120.401 103.397C117.006 99.9613 120.415 93.776 121.552 91.2709Z" fill="url(#paint12_linear_27_4526)"/>
<path fill-rule="evenodd" clip-rule="evenodd" d="M88.6731 118.144C83.6062 127.561 93.7909 133.188 99.1866 139.688C96.3797 139.175 93.6371 137.471 91.159 136.113C88.9127 134.882 86.1156 133.599 84.4786 131.55C81.7539 128.156 85.387 119.987 88.6731 118.144Z" fill="url(#paint13_linear_27_4526)"/>
<path fill-rule="evenodd" clip-rule="evenodd" d="M11.2798 55.9843C12.6641 60.8766 14.9643 65.4468 16.6172 70.2355C18.395 75.3926 19.573 80.5676 21.9087 85.5574C24.1517 90.3484 27.116 95.2299 31.1225 98.7477C33.1662 100.541 35.77 101.577 38.1565 102.826C43.5942 105.665 45.8108 110.726 49.4224 115.399C53.9497 121.26 60.441 125.125 67.4887 127.193C71.7053 128.428 77.3099 131.035 81.4299 128.72C81.0381 130.876 80.3156 133.735 77.821 133.398C74.3545 132.924 70.8105 130.36 67.5635 129.082C61.1198 126.557 55.0413 122.136 49.3202 118.281C41.9847 113.336 35.3915 106.272 29.7913 99.4352C25.0957 93.6963 20.2193 89.4299 17.3068 82.3975C13.8676 74.0919 11.239 64.3055 11.2798 55.9843Z" fill="url(#paint14_linear_27_4526)"/>
<path fill-rule="evenodd" clip-rule="evenodd" d="M102.565 141.834C105.867 142.711 108.465 142.507 111.759 141.334C112.655 141.012 115.888 138.889 116.935 139.456C117.65 139.836 118.216 142.579 118.545 143.275C119.636 145.561 120.917 147.964 122.779 149.65C125.219 151.858 125.006 152.421 124.821 155.844C124.684 158.386 124.6 161.097 126.465 163.013C124.924 162.943 123.135 160.756 122.25 159.588C120.408 157.172 119.812 153.649 118.645 150.894C117.521 148.249 116.26 145.885 113.672 144.589C111.135 143.312 108.431 143.788 102.565 141.834Z" fill="url(#paint15_linear_27_4526)"/>
<path fill-rule="evenodd" clip-rule="evenodd" d="M106.93 152.058C105.985 150.21 106.401 148.324 108.747 148.014C110.394 147.802 111.801 149.094 113.14 149.736C115.394 150.817 116.574 151.581 117.249 154.253C115.856 150.2 115.6 145.203 110.504 144.75C106.599 144.411 105.376 146.488 106.93 152.058Z" fill="url(#paint16_linear_27_4526)"/>
<path fill-rule="evenodd" clip-rule="evenodd" d="M34.1855 103.438C37.2366 106.548 40.53 109.835 44.113 112.328C42.9769 110.343 41.5961 108.771 39.9156 107.213C38.883 106.266 37.2266 104.258 34.1855 103.438Z" fill="#FF6F00"/>
<path fill-rule="evenodd" clip-rule="evenodd" d="M73.1148 131.449C74.8683 131.706 78.1218 133.474 79.6806 132.613C81.4579 131.63 81.8125 128.935 83.4474 127.774C84.8006 132.576 88.8767 134.543 92.0117 137.952C91.3865 137.56 90.5055 137.492 89.7738 137.361C88.0894 137.043 86.5331 136.574 84.9067 136.095C83.2402 135.607 81.4422 135.01 79.9422 135.78C79.3163 136.098 79.0518 136.522 78.3407 136.441C76.1675 136.21 74.426 132.292 73.1148 131.449Z" fill="#FF6F00"/>
<path fill-rule="evenodd" clip-rule="evenodd" d="M98.3359 141.16C100.518 143.581 103.684 144.8 106.102 146.918C106.088 145.818 106.966 144.887 107.202 143.854C104.956 142.673 102.29 142.948 98.3359 141.16Z" fill="#FF6F00"/>
<path fill-rule="evenodd" clip-rule="evenodd" d="M112.078 143.549C112.662 146.162 115.118 147.35 116.398 149.573C117.513 151.509 118.85 154.291 119.288 156.486C119.738 158.77 117.204 160.764 115.662 162.094C117.902 162.085 119.944 161.448 122.219 161.868C121.519 160.317 120.678 158.708 120.336 157.022C120.1 155.875 120.689 154.207 120.416 153.241C120.196 152.474 118.863 151.491 118.374 150.827C116.46 148.242 115.059 145.88 112.078 143.549Z" fill="#FF6F00"/>
<path fill-rule="evenodd" clip-rule="evenodd" d="M106.504 157.084C103.662 159.261 101.063 161.635 97.5372 162.722C100.075 162.568 102.392 161.518 104.948 162.004C105.593 160.066 105.877 158.062 106.504 157.084Z" fill="#FF6F00"/>
<path fill-rule="evenodd" clip-rule="evenodd" d="M122.955 104.353C121.042 105.689 122.224 107.323 123.157 109.131C124.132 111.009 125.507 112.891 125.855 115.036C126.247 117.481 124.79 117.701 127.334 118.767C128.732 119.349 130.001 120.042 131.321 120.775C132.137 121.234 133.129 122.162 133.983 122.45C134.867 122.749 134.715 122.601 135.808 122.056C136.613 121.656 137.529 121.374 138.325 121.043C137.542 120.794 136.674 121.015 135.853 120.936C134.531 120.803 133.026 120.393 131.761 120.009C128.698 119.079 126.884 115.733 126.644 112.686C126.571 111.677 126.598 110.676 126.485 109.678C126.156 106.722 123.488 106.127 122.955 104.353Z" fill="#FF6F00"/>
<path fill-rule="evenodd" clip-rule="evenodd" d="M171.858 108.852C174.427 108.779 177.003 109.155 179.528 109.552C181.151 109.81 181.488 109.556 182.441 108.223C183.934 106.154 185.165 103.917 186.758 101.916C187.555 100.916 188.452 99.8839 189.007 98.7465C184.205 102.46 179.231 109.036 171.858 108.852Z" fill="#FF6F00"/>
<path fill-rule="evenodd" clip-rule="evenodd" d="M179.759 76.9158C181.098 77.6183 182.684 78.0476 184.13 78.5086C185.145 78.8353 187.431 80.0655 188.48 79.9617C189.598 79.847 190.709 78.3923 191.631 77.7202C192.473 77.1091 193.615 76.484 194.305 75.7649C192.653 75.6166 190.832 76.2705 189.225 76.5716C186.442 77.0982 183.694 77.2342 179.759 76.9158Z" fill="#FF6F00"/>
<path fill-rule="evenodd" clip-rule="evenodd" d="M196.764 75.713C198.963 74.824 201.348 74.4427 203.269 72.9874C204.863 71.7764 206.063 70.2205 207.061 68.5273C205.948 69.1019 204.824 70.3268 203.804 71.0802C201.902 72.4653 199.951 73.891 196.764 75.713Z" fill="#FF6F00"/>
<path fill-rule="evenodd" clip-rule="evenodd" d="M84.5481 126.279C83.7458 127.64 80.496 131.483 80.7767 133.059C81.1546 135.185 86.0436 136.601 87.6736 137.359C89.495 138.215 90.7174 139.149 92.7757 139.002C92.2864 137.539 90.227 136.076 89.0734 135.041C86.2596 132.487 84.4577 130.061 84.5481 126.279Z" fill="#FFC700"/>
<path fill-rule="evenodd" clip-rule="evenodd" d="M123.614 108.135C123.945 109.751 123.958 113.041 125.342 114.043C127.303 111.867 125.044 108.857 123.234 107.41L123.614 108.135Z" fill="#FFC700"/>
<path fill-rule="evenodd" clip-rule="evenodd" d="M130.49 119.186C131.801 123.069 135.393 123.162 137.968 120.458C136.975 120.251 135.977 120.404 134.966 120.357C133.825 120.312 132.607 119.698 130.49 119.186Z" fill="#FFC700"/>
<path fill-rule="evenodd" clip-rule="evenodd" d="M114.169 162.744C116.596 160.972 118.724 159.304 119.715 156.35C120.871 159.076 121.931 162.062 124.936 163.253C124.419 163.449 123.587 163.32 122.967 163.288C120.124 163.086 117.538 162.66 114.169 162.744Z" fill="#FFC700"/>
<path fill-rule="evenodd" clip-rule="evenodd" d="M89.4417 163.068C91.2973 162.724 93.0817 162.28 94.9795 162.106C96.4978 161.966 98.1429 162.344 99.6178 161.945C101.521 161.43 103.759 159.69 105.181 158.371C104.759 160.437 105.465 161.658 107.514 162.341C105.371 162.149 103.226 162.507 101.066 162.546C97.5364 162.612 94.0354 162.558 89.4417 163.068Z" fill="#FFC700"/>
<path fill-rule="evenodd" clip-rule="evenodd" d="M174.135 77.3598C176.187 77.5029 178.214 77.2663 180.287 77.4292C181.608 77.5318 182.931 77.7545 184.242 77.8273C187.775 78.011 191.119 76.037 194.549 76.012C192.999 76.7924 191.334 77.1642 189.846 78.1038C189.172 78.5327 188.384 79.4831 187.574 79.4938C186.505 79.5178 184.99 78.4476 183.956 78.1411C181.296 77.3659 178.46 76.9631 174.135 77.3598Z" fill="#FFC700"/>
<path fill-rule="evenodd" clip-rule="evenodd" d="M198.343 74.7119C200.48 73.7438 202.159 72.1017 204.154 70.9754C203.585 71.8129 203.206 72.618 202.375 73.2989C201.306 74.183 200.205 74.0875 198.343 74.7119Z" fill="#FFC700"/>
<path fill-rule="evenodd" clip-rule="evenodd" d="M132.484 75.3359C132.842 77.4514 134.865 79.9251 137.302 78.9531C137.029 77.2165 133.872 76.6779 132.484 75.3359Z" fill="#FFC700"/>
<path fill-rule="evenodd" clip-rule="evenodd" d="M82.8973 130.711C79.9191 130.87 77.5963 134.481 81.5386 135.399C85.2101 136.251 85.9685 132.311 82.8973 130.711Z" fill="#2D1D26"/>
<path fill-rule="evenodd" clip-rule="evenodd" d="M125.115 110.446C124.074 111.86 123.704 114.135 124.664 115.712C125.288 116.734 126.548 117.528 127.556 116.614C129.731 114.626 127.71 110.002 125.115 110.446Z" fill="#2D1D26"/>
<path fill-rule="evenodd" clip-rule="evenodd" d="M128.864 116.397C128.611 116.94 127.606 120.394 129.581 119.258C130.743 118.593 130.255 116.489 129.229 116.022L128.864 116.397Z" fill="#2D1D26"/>
<path fill-rule="evenodd" clip-rule="evenodd" d="M87.745 78.7528C87.657 78.904 87.569 79.0552 87.4606 79.1766C84.7027 82.403 73.5012 75.4994 71.1325 74.0903C60.2575 67.6824 51.3353 58.4286 44.5279 47.997C39.6801 40.57 30.2836 35.5628 30.6276 26.7175C30.6705 25.4169 30.9224 24.0334 31.443 22.5465C48.5774 25.0619 58.0021 32.2189 67.3662 44.6672C70.5013 48.8464 90.9655 72.6701 87.745 78.7528Z" fill="url(#paint17_linear_27_4526)"/>
<path fill-rule="evenodd" clip-rule="evenodd" d="M87.7458 78.7527C87.7262 78.783 87.7166 78.8131 87.697 78.8434C87.6186 78.9644 87.55 79.0753 87.4613 79.1765C84.7034 82.4029 73.5019 75.4993 71.1332 74.0902C60.2582 67.6823 51.3361 58.4285 44.5287 47.9969C39.6808 40.5699 30.2843 35.5627 30.6283 26.7174C30.6866 26.5867 30.7551 26.4657 30.8135 26.345C31.2131 25.5497 31.6733 24.8036 32.2241 24.0963C40.5697 22.1766 58.7036 39.8903 64.4431 45.1555C70.79 50.9727 75.3609 57.8734 80.4945 64.9766C82.8778 68.2657 86.5175 74.3184 87.7458 78.7527Z" fill="#4C384F"/>
<path fill-rule="evenodd" clip-rule="evenodd" d="M87.6973 78.8433C87.6189 78.9644 87.5504 79.0753 87.4617 79.1765C84.7038 82.4029 73.5022 75.4992 71.1335 74.0902C60.2586 67.6823 51.3364 58.4285 44.529 47.9969C39.6811 40.5699 30.2847 35.5627 30.6287 26.7174C30.687 26.5866 30.7554 26.4657 30.8138 26.3449C31.1964 29.5902 31.9054 32.5612 34.2796 35.1502C36.2276 37.2749 39.1889 38.1161 41.1454 40.1206C42.7673 41.7795 43.5399 44.2596 44.8848 46.1521C47.504 49.8881 49.7328 54.3492 52.6976 57.7506C57.5619 63.3773 64.0674 68.3324 69.918 72.916C73.4041 75.6405 77.1593 77.5415 81.4925 78.5147C83.6491 79.0065 85.6688 78.97 87.6973 78.8433Z" fill="#62516A"/>
<path fill-rule="evenodd" clip-rule="evenodd" d="M144.316 53.1888C140.641 52.807 177.801 57.95 207.051 43.2551C236.301 28.5602 236.5 12.4662 235.563 12.7485C234.627 13.0208 232.757 13.0753 232.757 13.0753C232.757 13.0753 229.195 31.2336 202.689 42.3422C176.192 53.4407 153.149 54.103 144.316 53.1888Z" fill="url(#paint18_linear_27_4526)"/>
<path fill-rule="evenodd" clip-rule="evenodd" d="M144.316 53.1887C140.037 51.7947 170.228 34.1571 193.878 24.8061C217.527 15.4551 230.97 12.5485 231.644 13.6098C232.308 14.6712 224.862 38.6809 192.428 46.197C159.994 53.7131 147.148 54.1116 144.316 53.1887Z" fill="#67576B"/>
<path fill-rule="evenodd" clip-rule="evenodd" d="M175.115 81.197C170.865 83.5529 165.366 87.4354 164.293 92.5299C163.21 97.6646 167.545 99.5678 171.96 99.1299C177.273 98.6002 184.213 92.4186 185.222 87.0049C186.193 81.7617 181.752 80.9199 175.115 81.197Z" fill="#A68CD0"/>
<path fill-rule="evenodd" clip-rule="evenodd" d="M176.783 101.687C177.09 100.673 179.707 95.1383 181.261 97.6981C182.365 99.5238 179.882 103.107 177.77 102.164L176.783 101.687Z" fill="#A68CD0"/>
<path fill-rule="evenodd" clip-rule="evenodd" d="M161.058 115.845C157.459 116.722 153.779 119.06 151.822 122.336C150.129 125.159 151.094 126.276 154.195 125.565C157.146 124.887 161.304 122.442 163.093 120.008C164.075 118.665 165.185 116.39 161.058 115.845Z" fill="#A68CD0"/>
<path fill-rule="evenodd" clip-rule="evenodd" d="M116.614 124.998C115.519 128.473 120.519 134.518 123.11 130.743C125.71 126.939 119.862 123.335 116.834 123.525L116.614 124.998Z" fill="#A68CD0"/>
<path fill-rule="evenodd" clip-rule="evenodd" d="M127.002 133.193C126.424 131.79 125.442 124.832 129.066 126.585C131.622 127.822 130.479 132.977 128.228 133.667L127.002 133.193Z" fill="#A68CD0"/>
<path fill-rule="evenodd" clip-rule="evenodd" d="M81.6399 147.009C82.096 149.763 82.7698 153.095 85.5078 154.449C87.4807 155.423 90.3205 155.386 91.3004 153.083C93.5313 147.803 87.297 143.704 81.6399 147.009Z" fill="#A68CD0"/>
<path fill-rule="evenodd" clip-rule="evenodd" d="M95.9118 152.452C91.7654 150.466 94.6845 141.987 97.7732 145.677C98.8196 146.923 100.332 156.244 97.1542 154.146L95.9118 152.452Z" fill="#A68CD0"/>
<path fill-rule="evenodd" clip-rule="evenodd" d="M207.379 33.31C205.2 34.1587 199.245 39.9472 205.048 39.3211C206.965 39.1159 209.429 37.8435 210.355 36.0412C211.028 34.7323 210.687 33.1066 209.11 32.6472L207.379 33.31Z" fill="#A68CD0"/>
<path fill-rule="evenodd" clip-rule="evenodd" d="M67.0588 67.0032C67.5338 68.9071 74.2687 73.8092 74.6238 70.3842C74.6948 69.6932 73.8813 68.6738 73.5138 68.0986C72.6972 66.8392 71.6517 65.6628 70.4497 64.7585C69.5002 64.0409 66.8386 63.1757 67.0588 67.0032Z" fill="#A68CD0"/>
<path opacity="0.5" fill-rule="evenodd" clip-rule="evenodd" d="M7.04849 13.9857C6.1395 17.1179 6.89947 20.1582 7.63099 23.3189C8.56443 27.387 10.0891 33.0675 14.4918 34.7699C19.0854 36.5398 24.3022 34.7412 28.9819 36.97C28.2879 34.3889 27.4973 32.059 27.6411 29.2969C27.7679 26.765 29.7214 23.2091 29.1991 20.7457C28.7301 18.5417 25.9533 18.0381 24.0458 17.4831C19.1867 16.0567 15.1578 16.1695 10.2044 16.7045L7.04849 13.9857Z" fill="#8B91BD"/>
<path opacity="0.5" fill-rule="evenodd" clip-rule="evenodd" d="M185.239 32.5903C181.413 32.9405 178.003 34.4954 174.587 36.3203C172.273 37.5608 164.647 41.7612 165.585 45.3692C166.354 48.3294 171.409 47.933 173.527 47.7952C179.893 47.3817 186.534 45.9545 192.704 44.3734C198.944 42.7714 204.173 38.1124 208.909 33.9499C210.135 32.8738 214.392 29.5877 213.865 27.5044C212.841 23.4475 193.575 29.9307 190.894 30.686L185.239 32.5903Z" fill="#8B91BD"/>
<path opacity="0.5" fill-rule="evenodd" clip-rule="evenodd" d="M194.567 99.4935C190.191 100.591 185.836 105.559 182.931 109.007C179.09 113.568 173.224 118.445 171.017 124.035C174.691 122.776 178.071 119.752 181.446 117.807C184.295 116.18 187.249 114.901 190.149 113.403C195.076 110.858 199.529 105.709 194.567 99.4935Z" fill="#8B91BD"/>
<path opacity="0.5" fill-rule="evenodd" clip-rule="evenodd" d="M153.837 143.912C149.795 143.825 144.269 146.407 142.328 150.173C140.836 153.063 143.693 153.586 146.159 153.273C149.563 152.838 155.18 151.745 157.573 148.943C159.632 146.536 158.386 144.622 157.662 142.021L153.837 143.912Z" fill="#8B91BD"/>
<path opacity="0.5" fill-rule="evenodd" clip-rule="evenodd" d="M56.8717 106.93C55.0151 106.435 52.7848 105.664 51.0087 106.737C52.6932 112.406 61.3044 120.063 67.454 119.233C71.1179 118.744 76.4808 116.644 79.4125 114.465C77.1683 113.395 74.8456 112.445 72.5339 111.565C67.8904 109.806 62.6116 109.935 56.8717 106.93Z" fill="#8B91BD"/>
<path opacity="0.5" fill-rule="evenodd" clip-rule="evenodd" d="M50.6328 60.4883C53.7026 65.7885 54.1623 72.623 57.6465 77.4978C62.496 84.2847 72.0115 89.9804 79.4944 93.2025C82.4111 94.4544 88.1324 98.3297 91.5308 97.425C93.4941 96.8992 94.1557 93.9703 96.3993 94.2309C97.7998 89.6821 95.4024 79.9827 92.2949 76.3832C89.3494 81.3222 83.7282 82.026 78.5904 80.7033C73.6632 79.4278 69.8033 75.6481 66.1588 72.2757C62.4026 68.7846 57.7123 65.7359 50.6328 60.4883Z" fill="#8B91BD"/>
<path opacity="0.5" fill-rule="evenodd" clip-rule="evenodd" d="M117.996 137.221C112.689 133.7 106.525 124.22 115.054 121.058C115.24 118.466 115.27 113.125 113.742 111.045C107.396 117.498 99.0384 122.278 89.9332 122.698C89.8487 126.169 93.8377 132.167 96.2473 134.406C99.8313 137.739 107.257 138.862 111.887 137.311L117.996 137.231L117.996 137.221Z" fill="#8B91BD"/>
<path fill-rule="evenodd" clip-rule="evenodd" d="M150.26 138.918C150.26 138.918 162.291 130.59 166.031 128.98C169.77 127.371 175.214 126.1 175.214 126.1C175.214 126.1 162.807 134.803 160.973 135.287C159.139 135.771 150.26 138.918 150.26 138.918Z" fill="#473048"/>
<path fill-rule="evenodd" clip-rule="evenodd" d="M138.777 157.08C138.777 157.08 152.899 152.545 155.235 150.744C157.572 148.953 161.98 148.755 161.98 148.755C161.98 148.755 153.202 154.331 151.39 154.905C149.577 155.479 138.777 157.08 138.777 157.08Z" fill="#473048"/>
<path fill-rule="evenodd" clip-rule="evenodd" d="M141.777 92.9554C141.777 92.9554 148.164 85.0409 150.459 83.9107C152.755 82.7805 168.689 80.6913 168.689 80.6913C168.689 80.6913 160.118 96.7251 157.745 98.7764C155.372 100.838 146.898 98.2887 147.338 96.8128C147.779 95.3268 141.777 92.9554 141.777 92.9554Z" fill="url(#paint19_linear_27_4526)"/>
<path fill-rule="evenodd" clip-rule="evenodd" d="M142.862 93.4209C142.862 93.4209 147 94.7967 147.684 95.0878C148.358 95.389 147.991 97.1639 149.758 97.6308C151.524 98.0977 156.495 98.1225 159.914 94.2073C163.333 90.2921 168.687 80.6811 168.687 80.6811C168.687 80.6811 163.121 91.695 162.048 93.7293C160.974 95.7635 158.502 98.6562 156.863 99.5178C155.224 100.369 151.118 99.9232 148.834 98.893C146.56 97.8528 146.956 96.0174 146.401 95.5947C145.845 95.1719 142.862 93.4209 142.862 93.4209Z" fill="#3A2B40"/>
<path opacity="0.5" fill-rule="evenodd" clip-rule="evenodd" d="M147.215 87.5334C145.719 89.3032 147.815 93.5861 150.606 95.1996C153.398 96.8131 162.702 87.1902 163.564 84.2287C164.435 81.277 152.021 81.8499 147.215 87.5334Z" fill="#857299"/>
<path opacity="0.5" fill-rule="evenodd" clip-rule="evenodd" d="M135.661 155.091L132.833 152.998C132.833 152.998 129.726 153.229 128.986 153.188C128.245 153.148 126.36 154.293 126.36 154.293C126.36 154.293 127.02 152.044 125.208 151.128C123.396 150.211 120.298 141.961 120.298 141.961C120.298 141.961 131.34 130.666 134.329 127.526C137.319 124.387 149.796 116.482 159.316 114.147C168.836 111.822 174.646 116.326 174.646 116.326C174.646 116.326 152.88 136.634 146.611 139.776C140.352 142.928 135.661 155.091 135.661 155.091Z" fill="#857299"/>
<path fill-rule="evenodd" clip-rule="evenodd" d="M23.918 53.4878C23.918 53.4878 27.1823 64.4659 33.7553 70.7502C40.3283 77.0346 46.0649 75.9792 46.0649 75.9792C46.0649 75.9792 36.0377 77.0208 31.9463 73.1342C27.8549 69.2375 23.918 53.4878 23.918 53.4878Z" fill="#534057"/>
<path fill-rule="evenodd" clip-rule="evenodd" d="M43.9844 102.609C43.9844 102.609 54.0904 113.677 61.5634 116.91C69.0466 120.152 73.7847 119.209 73.7847 119.209C73.7847 119.209 67.9935 122.206 65.3557 121.63C62.7179 121.055 47.0477 108.939 43.9844 102.609Z" fill="#534057"/>
<path fill-rule="evenodd" clip-rule="evenodd" d="M28.875 104.277C28.875 104.277 42.312 113.872 44.159 115.918C46.006 117.964 50.6607 122.863 50.6607 122.863C50.6607 122.863 36.4267 114.269 28.875 104.277Z" fill="#534057"/>
<path fill-rule="evenodd" clip-rule="evenodd" d="M57.6855 158.994C57.6855 158.994 65.4929 157.221 68.9204 157.006C72.348 156.801 79.9663 156.621 79.9663 156.621C79.9663 156.621 67.4833 159.525 57.6855 158.994Z" fill="#534057"/>
<path fill-rule="evenodd" clip-rule="evenodd" d="M56.2158 163.534C56.2158 163.534 57.7323 162.494 58.889 162.239C60.0458 161.984 62.5171 162.071 62.5171 162.071C62.5171 162.071 57.507 163.617 56.2158 163.534Z" fill="#534057"/>
<path fill-rule="evenodd" clip-rule="evenodd" d="M62.9434 85.5586C62.9434 85.5586 71.785 87.1528 73.8916 88.4052C75.9984 89.6677 77.3163 93.3107 77.3163 93.3107C77.3163 93.3107 64.5726 95.3981 62.9434 85.5586Z" fill="url(#paint20_linear_27_4526)"/>
<path fill-rule="evenodd" clip-rule="evenodd" d="M62.9434 85.5586C62.9434 85.5586 64.9873 93.4725 77.3127 93.8008C77.3127 93.8008 64.4082 96.5903 62.9434 85.5586Z" fill="url(#paint21_linear_27_4526)"/>
<path fill-rule="evenodd" clip-rule="evenodd" d="M62.9434 85.5586C62.9434 85.5586 71.7855 87.1928 74.1095 89.0024C76.4334 90.8121 77.3164 93.3207 77.3164 93.3207L85.4288 98.0247C85.4288 98.0247 79.2259 94.0357 78.7146 93.1724C78.1932 92.3091 77.0171 89.5643 74.7821 87.6735C72.5469 85.7626 62.9434 85.5586 62.9434 85.5586Z" fill="#534057"/>
<path fill-rule="evenodd" clip-rule="evenodd" d="M43.8926 95.5596C43.8926 95.5596 56.2115 103.019 71.6674 104.896C87.1134 106.774 95.8689 104.089 95.8689 104.089C95.8689 104.089 88.3938 110.607 86.6839 110.63C84.9741 110.652 62.4986 112.667 43.8926 95.5596Z" fill="#857299"/>
<path fill-rule="evenodd" clip-rule="evenodd" d="M177.268 124.823C177.268 124.823 187.089 114.933 188.619 114.163C190.15 113.393 194.586 110.844 199.023 108.236C203.469 105.637 205.838 103.246 205.838 103.246C205.838 103.246 197.128 110.961 194.979 112.589C192.831 114.218 186.462 118.212 185.779 118.701C185.095 119.21 177.268 124.823 177.268 124.823Z" fill="#473048"/>
<path fill-rule="evenodd" clip-rule="evenodd" d="M176.454 57.4474C176.454 57.4474 171.84 56.4478 169.056 56.1043C166.271 55.7608 158.356 59.2749 158.356 59.2749C158.356 59.2749 157.124 61.4413 162.564 62.13C168.013 62.8085 176.454 57.4474 176.454 57.4474Z" fill="url(#paint22_linear_27_4526)"/>
<path fill-rule="evenodd" clip-rule="evenodd" d="M158.366 59.275C158.366 59.275 161.483 61.3343 166.379 60.96C171.264 60.5859 176.464 57.4474 176.464 57.4474C176.464 57.4474 170.727 62.3331 164.16 62.5493C157.592 62.7554 158.366 59.275 158.366 59.275Z" fill="#3A2B40"/>
<path opacity="0.7" fill-rule="evenodd" clip-rule="evenodd" d="M185.791 108.179C188.191 102.107 194.922 94.4785 200.318 91.0774C204.682 88.3199 209.969 88.0706 214.695 86.2484C227.382 81.3516 221.639 73.5163 220.246 63.3637C219.45 57.5736 223.999 58.284 228.286 54.9075C232.562 51.5511 234.471 44.6055 237.071 40.021C238.107 38.1972 239.303 36.3314 240.108 34.4606C232.938 43.6355 224.452 53.1676 215.237 60.4091C210.347 64.2536 212.469 64.4358 210.735 70.239C207.765 80.1488 198.701 82.9679 192.361 89.9017C186.032 96.8153 181.302 107.568 177.23 115.832C179.189 114.167 181.583 112.195 185.791 108.179Z" fill="url(#paint23_linear_27_4526)"/>
<defs>
<linearGradient id="paint0_linear_27_4526" x1="113.862" y1="170.183" x2="125.703" y2="1.8863" gradientUnits="userSpaceOnUse">
<stop stop-color="#1E0B21"/>
<stop offset="0.9904" stop-color="#24172A"/>
</linearGradient>
<linearGradient id="paint1_linear_27_4526" x1="132.131" y1="105.852" x2="130.749" y2="0.474422" gradientUnits="userSpaceOnUse">
<stop stop-color="#42478B"/>
<stop offset="0.4441" stop-color="#252217"/>
<stop offset="0.9904"/>
</linearGradient>
<linearGradient id="paint2_linear_27_4526" x1="129.963" y1="121.545" x2="128.793" y2="32.3786" gradientUnits="userSpaceOnUse">
<stop stop-color="#42478B"/>
<stop offset="0.4441" stop-color="#252217"/>
<stop offset="0.9904"/>
</linearGradient>
<linearGradient id="paint3_linear_27_4526" x1="170.704" y1="143.965" x2="170.777" y2="142.922" gradientUnits="userSpaceOnUse">
<stop stop-color="#1E0B21"/>
<stop offset="0.9904" stop-color="#24172A"/>
</linearGradient>
<linearGradient id="paint4_linear_27_4526" x1="188.84" y1="64.1116" x2="192.886" y2="6.61203" gradientUnits="userSpaceOnUse">
<stop stop-color="#5F4A63"/>
<stop offset="0.9904" stop-color="#594B60"/>
</linearGradient>
<linearGradient id="paint5_linear_27_4526" x1="49.806" y1="99.8228" x2="55.8297" y2="14.2107" gradientUnits="userSpaceOnUse">
<stop stop-color="#432F47"/>
<stop offset="0.9904" stop-color="#4F4055"/>
</linearGradient>
<linearGradient id="paint6_linear_27_4526" x1="173.418" y1="82.2107" x2="175.168" y2="57.3319" gradientUnits="userSpaceOnUse">
<stop stop-color="#FF3800"/>
<stop offset="0.6328" stop-color="#FF1400"/>
<stop offset="1" stop-color="#FF0400"/>
</linearGradient>
<linearGradient id="paint7_linear_27_4526" x1="153.291" y1="125.977" x2="155.783" y2="90.5563" gradientUnits="userSpaceOnUse">
<stop stop-color="#FF3800"/>
<stop offset="0.6328" stop-color="#FF1400"/>
<stop offset="1" stop-color="#FF0400"/>
</linearGradient>
<linearGradient id="paint8_linear_27_4526" x1="103.194" y1="165.615" x2="106.46" y2="119.199" gradientUnits="userSpaceOnUse">
<stop stop-color="#FF3800"/>
<stop offset="0.6328" stop-color="#FF1400"/>
<stop offset="1" stop-color="#FF0400"/>
</linearGradient>
<linearGradient id="paint9_linear_27_4526" x1="103.298" y1="163.144" x2="104.74" y2="142.661" gradientUnits="userSpaceOnUse">
<stop stop-color="#FF3800"/>
<stop offset="0.6328" stop-color="#FF1400"/>
<stop offset="1" stop-color="#FF0400"/>
</linearGradient>
<linearGradient id="paint10_linear_27_4526" x1="45.5936" y1="135.625" x2="51.1668" y2="56.4136" gradientUnits="userSpaceOnUse">
<stop stop-color="#FF3800"/>
<stop offset="0.6328" stop-color="#FF1400"/>
<stop offset="1" stop-color="#FF0400"/>
</linearGradient>
<linearGradient id="paint11_linear_27_4526" x1="172.516" y1="79.6622" x2="173.951" y2="59.2736" gradientUnits="userSpaceOnUse">
<stop stop-color="#FF3800"/>
<stop offset="0.6328" stop-color="#FF1400"/>
<stop offset="1" stop-color="#FF0400"/>
</linearGradient>
<linearGradient id="paint12_linear_27_4526" x1="152.805" y1="122.254" x2="154.832" y2="93.4459" gradientUnits="userSpaceOnUse">
<stop stop-color="#FF3800"/>
<stop offset="0.6328" stop-color="#FF1400"/>
<stop offset="1" stop-color="#FF0400"/>
</linearGradient>
<linearGradient id="paint13_linear_27_4526" x1="90.9812" y1="139.115" x2="92.438" y2="118.409" gradientUnits="userSpaceOnUse">
<stop stop-color="#FF3800"/>
<stop offset="0.6328" stop-color="#FF1400"/>
<stop offset="1" stop-color="#FF0400"/>
</linearGradient>
<linearGradient id="paint14_linear_27_4526" x1="43.6329" y1="131" x2="48.7254" y2="58.6221" gradientUnits="userSpaceOnUse">
<stop stop-color="#FF3800"/>
<stop offset="0.6328" stop-color="#FF1400"/>
<stop offset="1" stop-color="#FF0400"/>
</linearGradient>
<linearGradient id="paint15_linear_27_4526" x1="113.839" y1="162.127" x2="115.446" y2="139.281" gradientUnits="userSpaceOnUse">
<stop stop-color="#FF3800"/>
<stop offset="0.6328" stop-color="#FF1400"/>
<stop offset="1" stop-color="#FF0400"/>
</linearGradient>
<linearGradient id="paint16_linear_27_4526" x1="111.569" y1="153.863" x2="112.201" y2="144.878" gradientUnits="userSpaceOnUse">
<stop stop-color="#FF3800"/>
<stop offset="0.6328" stop-color="#FF1400"/>
<stop offset="1" stop-color="#FF0400"/>
</linearGradient>
<linearGradient id="paint17_linear_27_4526" x1="59.5404" y1="80.1975" x2="59.1508" y2="22.3582" gradientUnits="userSpaceOnUse">
<stop stop-color="#1E0B21"/>
<stop offset="0.9904" stop-color="#24172A"/>
</linearGradient>
<linearGradient id="paint18_linear_27_4526" x1="188.332" y1="56.3579" x2="191.618" y2="9.64872" gradientUnits="userSpaceOnUse">
<stop stop-color="#301D33"/>
<stop offset="0.9904" stop-color="#423449"/>
</linearGradient>
<linearGradient id="paint19_linear_27_4526" x1="154.34" y1="99.54" x2="155.73" y2="79.7777" gradientUnits="userSpaceOnUse">
<stop stop-color="#1E0B21"/>
<stop offset="0.9904" stop-color="#24172A"/>
</linearGradient>
<linearGradient id="paint20_linear_27_4526" x1="62.9925" y1="89.6025" x2="77.2556" y2="89.4154" gradientUnits="userSpaceOnUse">
<stop stop-color="#1E0B21"/>
<stop offset="0.9904" stop-color="#24172A"/>
</linearGradient>
<linearGradient id="paint21_linear_27_4526" x1="69.8309" y1="93.8773" x2="70.3795" y2="86.0788" gradientUnits="userSpaceOnUse">
<stop stop-color="#432F47"/>
<stop offset="0.9904" stop-color="#4F4055"/>
</linearGradient>
<linearGradient id="paint22_linear_27_4526" x1="167.079" y1="62.4514" x2="167.533" y2="55.9892" gradientUnits="userSpaceOnUse">
<stop offset="0.00959658" stop-color="#24172A"/>
<stop offset="1" stop-color="#1E0B21"/>
</linearGradient>
<linearGradient id="paint23_linear_27_4526" x1="209.192" y1="115.411" x2="208.136" y2="34.8781" gradientUnits="userSpaceOnUse">
<stop stop-color="#42478B"/>
<stop offset="0.4441" stop-color="#252217"/>
<stop offset="0.9904"/>
</linearGradient>
</defs>
</svg>
