<svg width="179" height="183" viewBox="0 0 179 183" fill="none" xmlns="http://www.w3.org/2000/svg">
<path fill-rule="evenodd" clip-rule="evenodd" d="M118.26 157.11C119.47 158.4 122.57 159.44 123.97 161.73C131.1 156.43 141.83 142.98 151.22 149.6C156.87 148.51 166.75 142.31 172.28 144.28C174.87 145.2 175.89 146.95 176.03 149.03C176.26 152.98 173.24 158.11 171.67 160.82C169.31 164.84 169.73 166.56 168.8 170.49C167.36 176.55 161.57 179.3 155.78 180.74H155.77C154.06 181.17 152.34 181.48 150.74 181.73C146.32 182.42 141.63 181.84 136.91 180.93H136.9C130.89 179.78 124.8 178.12 119.1 177.89C112.31 177.63 105.85 177.87 99.2198 178.82C98.4198 178.93 97.6098 179.05 96.7998 179.19C94.6698 179.55 91.8298 180.55 89.6398 180.54C86.6098 180.51 83.7898 179.45 80.6698 179.2C85.1698 175.27 95.9998 173.54 100.59 169.08C95.9698 171.59 90.7398 173.42 85.1998 174.7C70.3098 178.13 53.1398 177.55 39.4398 175.34C37.7298 175.06 35.9298 174.6 34.1598 173.95C34.1498 173.95 34.1498 173.95 34.1498 173.95C26.5098 171.18 19.2198 165.12 19.6998 156.5C13.1398 156.94 8.15982 158.89 3.91982 151.91C-2.57018 141.24 3.16979 124.32 6.51979 113.79C12.3698 95.3799 20.6098 76.5299 31.5598 60.5899C39.7998 48.5999 59.3598 18.0599 78.6698 23.4599C79.9898 23.8299 80.3498 25.7699 81.5698 25.9799C82.8798 26.2099 89.3998 22.5899 89.3998 22.5199C100.65 16.7099 112.51 13.1099 125.25 11.8099C150.66 9.19991 169.9 18.7499 180.15 42.3699C183.85 50.8899 185.97 60.7299 186.49 70.6399C186.89 78.2199 186.34 85.8199 184.81 92.8999C180.21 114.21 162.97 128.22 146.4 140.85C141.68 144.45 136.73 147.76 131.06 149.64C128.2 150.59 124.56 150.58 121.94 152.12C117.65 154.64 117.23 155.97 118.26 157.11Z" fill="url(#paint0_linear_27_4443)"/>
<path fill-rule="evenodd" clip-rule="evenodd" d="M163.74 55.7098C159.35 50.8098 150.52 50.3798 133.2 63.3298C99.5998 88.4398 90.7298 133.96 89.6898 150.15C65.4998 163.74 40.4898 175.84 34.1398 173.95C21.4398 170.15 19.6898 156.5 19.6898 156.5C19.6898 156.5 29.4798 152.79 33.5498 149.2C52.2598 132.72 62.3298 106.43 63.0698 105.52C62.3698 106.22 45.1198 132.65 27.7698 143.62C20.9098 147.96 1.75983 156.01 1.19983 143.62C0.579828 130.16 5.01982 92.1098 32.8198 55.6998C60.6298 19.2798 73.7298 21.9898 75.5798 22.8998C77.4298 23.8098 76.8698 31.5998 72.2598 48.5298C67.7898 64.9298 48.4898 100.27 47.2998 102.46C48.6198 100.4 68.8999 68.4498 73.2899 55.5898C77.8199 42.2998 81.5898 25.9898 81.5898 25.9898C81.5898 25.9898 101.98 12.3998 118.93 10.5398C135.88 8.68984 157.34 9.44984 165.83 24.1798C168.83 29.3898 167.28 41.6898 163.74 55.7098Z" fill="url(#paint1_linear_27_4443)"/>
<path fill-rule="evenodd" clip-rule="evenodd" d="M80.6602 179.2C80.6602 179.2 99.7401 168.39 102.94 167.16C106.14 165.93 112.54 174.14 112.54 174.14C112.54 174.14 90.8402 181.58 80.6602 179.2Z" fill="#331F36"/>
<path fill-rule="evenodd" clip-rule="evenodd" d="M120.471 158.67C120.471 158.67 141.721 147.32 145.241 147.82C148.761 148.32 137.881 164.33 133.701 165.74C129.521 167.16 123.081 161.71 120.471 158.67Z" fill="#331F36"/>
<path fill-rule="evenodd" clip-rule="evenodd" d="M151.22 149.6C152.89 151.42 136.9 171.07 136.9 171.07C136.9 171.07 151.91 169.01 162.24 160.33C172.57 151.66 173.69 144.95 173.69 144.95C173.69 144.95 168.5 140.15 151.22 149.6Z" fill="#331F36"/>
<path fill-rule="evenodd" clip-rule="evenodd" d="M142.561 178.24C142.561 178.24 145.761 172.52 150.191 171.07C154.621 169.62 157.081 174.65 157.081 174.65C157.081 174.65 148.221 178.24 142.561 178.24Z" fill="#331F36"/>
<path fill-rule="evenodd" clip-rule="evenodd" d="M96.5991 143.73C97.5291 146 112.239 122.87 130.069 102.55C152.399 77.1096 163.589 60.3696 163.589 60.3696C163.589 60.3696 153.259 47.4496 123.729 79.1896C94.2092 110.94 96.5991 143.73 96.5991 143.73Z" fill="#331F36"/>
<path fill-rule="evenodd" clip-rule="evenodd" d="M184.81 92.8899C180.21 114.2 162.97 128.21 146.4 140.84C141.68 144.44 136.73 147.75 131.06 149.63C128.2 150.58 124.56 150.57 121.94 152.11C117.64 154.64 117.23 155.97 118.26 157.11C117.75 157.43 101.45 167.79 98.5001 169.36C96.7901 170.28 90.3701 172.75 85.2001 174.7C70.3101 178.13 53.1401 177.55 39.4401 175.34C37.7301 175.06 35.9302 174.6 34.1602 173.95C34.9602 173.82 69.6402 168.22 86.9702 151.67C86.9702 151.67 115 147.23 127.8 145.26C140.6 143.29 178.83 97.0399 182.68 83.9899C184.01 79.4699 185.34 74.7999 186.5 70.6299C186.89 78.2099 186.34 85.8199 184.81 92.8899Z" fill="#857299"/>
<path fill-rule="evenodd" clip-rule="evenodd" d="M56.8789 70.63C65.3489 49.78 62.0889 27.89 63.2189 28.99C64.3489 30.09 68.0189 51.2 56.8789 77.83C39.2089 120.06 6.72891 138.98 6.37891 132.71C6.37891 132.72 46.8689 95.29 56.8789 70.63Z" fill="url(#paint2_linear_27_4443)"/>
<path fill-rule="evenodd" clip-rule="evenodd" d="M6.3801 132.72C1.5601 132.92 1.6301 114.24 15.1301 84.8496C28.6301 55.4596 59.1901 24.6996 63.2301 28.9996C67.2701 33.3096 62.8601 67.9696 48.6301 88.9796C34.3901 109.98 11.2001 132.52 6.3801 132.72Z" fill="#4B3850"/>
<path fill-rule="evenodd" clip-rule="evenodd" d="M54.9805 32.4897C54.9805 32.4897 58.7704 29.0897 62.1904 31.2097C65.6004 33.3297 62.8204 58.7197 62.8204 58.7197C62.8204 58.7197 66.1405 40.7097 64.7205 33.7897C63.2905 26.8797 61.6105 26.6597 54.9805 32.4897Z" fill="url(#paint3_linear_27_4443)"/>
<path fill-rule="evenodd" clip-rule="evenodd" d="M74.0804 22.5096C74.0804 22.5096 76.4404 21.2296 76.4604 28.3396C76.4804 35.4496 72.7305 46.7096 72.7305 46.7096C72.7305 46.7096 81.3904 27.2796 81.5704 25.9696C81.7504 24.6596 78.3204 20.8296 74.0804 22.5096Z" fill="url(#paint4_linear_27_4443)"/>
<path fill-rule="evenodd" clip-rule="evenodd" d="M64.6505 91.9698C60.6205 96.5398 111.551 76.5798 131.481 55.9198C151.411 35.2698 141.811 11.6398 140.711 9.7998C140.711 9.7998 144.95 10.9098 145.69 12.0198C146.43 13.1298 151.151 41.9598 127.971 63.7198C86.2005 102.94 61.4505 99.6098 60.0105 99.0898C58.5905 98.5698 64.6505 91.9698 64.6505 91.9698Z" fill="url(#paint5_linear_27_4443)"/>
<path fill-rule="evenodd" clip-rule="evenodd" d="M140.71 8.84994C137.76 6.81994 121.38 0.57994 99.0003 15.3399C85.4903 24.2599 74.2703 57.4199 69.4703 69.7799C64.6703 82.1399 58.2003 95.6899 60.5603 97.0399C62.9203 98.3899 115.97 77.3199 131.47 55.9199C146.99 34.5299 145.88 14.5399 140.71 8.84994Z" fill="url(#paint6_linear_27_4443)"/>
<path fill-rule="evenodd" clip-rule="evenodd" d="M127.049 99.0899C125.079 99.2799 128.28 80.5499 139.35 70.8299C150.42 61.1099 157.55 66.3599 157.92 68.2899C158.31 70.2099 146.119 97.2999 127.049 99.0899Z" fill="#3F2C42"/>
<path fill-rule="evenodd" clip-rule="evenodd" d="M127.049 99.0898C127.049 99.0898 142.829 95.5698 149.809 83.6898C156.789 71.8098 157.929 68.2798 157.929 68.2798C157.929 68.2798 156.339 88.0098 144.159 96.6998C131.979 105.4 127.049 99.0898 127.049 99.0898Z" fill="url(#paint7_linear_27_4443)"/>
<path opacity="0.5" fill-rule="evenodd" clip-rule="evenodd" d="M96.5997 150.15C96.5397 148.96 129.98 105.93 134.79 102.7C139.6 99.4697 170.22 98.2397 171.84 99.0997C173.46 99.9597 139.96 142 133.2 143.74C126.44 145.47 96.5997 150.15 96.5997 150.15Z" fill="#857299"/>
<path fill-rule="evenodd" clip-rule="evenodd" d="M171.659 160.82C169.299 164.84 169.719 166.56 168.789 170.49C167.349 176.55 161.559 179.3 155.769 180.74C155.869 180.49 157.809 175.8 157.079 174.66C156.339 173.48 153.909 171.45 152.249 170.81C150.849 170.27 149.439 171.21 149.049 171.51C150.069 170.61 158.369 163.45 160.599 161.64C162.499 160.1 172.259 152.11 176.039 149.03C176.259 152.99 173.239 158.11 171.659 160.82Z" fill="#857299"/>
<path fill-rule="evenodd" clip-rule="evenodd" d="M136.889 180.93C130.879 179.78 124.789 178.12 119.089 177.89C112.299 177.63 105.839 177.87 99.209 178.82C99.209 178.82 118.869 172.76 120.469 172.58C122.039 172.39 136.439 180.67 136.889 180.93Z" fill="#857299"/>
<path fill-rule="evenodd" clip-rule="evenodd" d="M116.471 97.5298C112.661 99.9598 110.451 103.27 109.091 107.62C108.361 109.98 106.421 118.37 111.431 117.52C117.371 116.52 121.911 98.1098 116.471 97.5298Z" fill="#A68CD0"/>
<path fill-rule="evenodd" clip-rule="evenodd" d="M105.16 127.05C104.77 125.39 106.34 118.77 109.17 120.39C111.55 121.75 108.62 126.8 106.63 127.05H105.16Z" fill="#A68CD0"/>
<path fill-rule="evenodd" clip-rule="evenodd" d="M136.41 116.72C131.65 117.96 127.23 122.51 125.13 126.83C123 131.2 121.22 138.49 128.35 137.98C134.18 137.57 141.13 131.89 143.43 126.63C145.41 122.07 143.74 117.88 136.41 116.72Z" fill="#A68CD0"/>
<path fill-rule="evenodd" clip-rule="evenodd" d="M74.4004 164.7C76.8604 159.52 96.8404 150.41 97.5304 159.74C98.0904 167.36 81.3204 173.45 74.4004 164.7Z" fill="#A68CD0"/>
<path fill-rule="evenodd" clip-rule="evenodd" d="M103.92 155.84C102.34 157.28 96.2304 165.17 102.21 163.69C105.15 162.96 111.2 155.58 105.15 155.1L103.92 155.84Z" fill="#A68CD0"/>
<path fill-rule="evenodd" clip-rule="evenodd" d="M165.2 162.24C163.17 163.43 158.58 167.02 158.6 169.85C158.62 172.2 160.42 172.47 162.5 171.71C165.9 170.46 170.17 160.66 165.2 162.24Z" fill="#A68CD0"/>
<path fill-rule="evenodd" clip-rule="evenodd" d="M53.11 36.9898C49.8 38.8898 45.75 51.0998 52.08 48.7998C56.42 47.2298 61.16 35.8998 53.11 36.9898Z" fill="#A68CD0"/>
<path fill-rule="evenodd" clip-rule="evenodd" d="M53.5999 56.5601C53.5899 54.4101 53.8099 52.8401 55.3599 51.1101C56.3399 50.0201 58.4799 48.4301 59.5999 50.1401C61.2399 52.6101 55.9799 59.1001 53.5999 56.5601Z" fill="#A68CD0"/>
<path fill-rule="evenodd" clip-rule="evenodd" d="M133.579 20.1399C132.449 22.7699 131.619 25.7599 132.119 28.6499C132.679 31.8499 134.759 32.5199 136.959 30.0799C138.789 28.0399 140.059 24.8099 139.489 22.0699C138.979 19.6199 137.089 17.8499 133.579 20.1399Z" fill="#A68CD0"/>
<path opacity="0.5" fill-rule="evenodd" clip-rule="evenodd" d="M11.9005 97.65C9.28053 102.35 5.68053 116.92 13.3405 117.63C18.6405 118.12 29.1105 107.65 32.9805 104.77C34.7705 103.44 39.2005 100.82 39.9605 98.2C41.7905 91.88 34.7605 89.74 30.3105 87.5C25.8105 85.24 23.5605 83.84 25.0205 78.44C26.0505 74.62 29.4505 70.39 32.5605 67.84C31.5805 71.38 29.5905 77.78 32.8905 80.79C39.8305 87.11 51.5105 76.86 54.0205 70.67C55.0805 68.05 55.4305 65.55 56.5905 62.92C58.8605 57.77 61.3605 52.28 61.4505 46.55C61.4805 44.67 61.5605 38.68 60.3405 37.28C56.4205 32.82 40.5805 50.26 37.4905 54.06C26.6505 67.39 14.2605 78.05 11.9005 97.65Z" fill="#8B91BD"/>
<path opacity="0.5" fill-rule="evenodd" clip-rule="evenodd" d="M45.4793 100.23C38.0493 116.18 24.3193 132.86 6.7793 137.94C8.1293 152.83 26.6193 140.64 33.8393 137.48C40.1293 134.73 42.8393 132.51 46.7293 126.82C50.1693 121.8 52.9293 116.36 55.8593 111.03C56.8693 109.19 58.1493 107.48 58.3493 105.44C46.5393 106.38 58.9693 88.98 60.6493 84.46C56.3493 90.41 51.3493 97.16 45.4793 100.23Z" fill="#8B91BD"/>
<path opacity="0.5" fill-rule="evenodd" clip-rule="evenodd" d="M72.4291 68.8599C68.3291 73.0199 61.9191 85.7299 64.2191 91.7099C74.1491 90.5799 78.8991 81.6599 72.4291 68.8599Z" fill="#8B91BD"/>
<path opacity="0.5" fill-rule="evenodd" clip-rule="evenodd" d="M96.42 28.6299C90.69 32.6599 85.07 41.7599 83.53 48.4899C82.61 52.4999 83.06 52.6599 86.44 54.0999C89.54 55.4199 93.92 56.0599 96.03 59.0399C98.08 61.9299 96.06 65.2499 97.43 68.1999C100.99 75.8599 124.58 59.2799 124.22 52.5399C123.97 47.7699 117.28 46.9499 113.77 45.6399C107.14 43.1399 104.16 39.7999 96.42 28.6299Z" fill="#8B91BD"/>
<path opacity="0.5" fill-rule="evenodd" clip-rule="evenodd" d="M91.6189 117.21C83.9889 116.49 74.0889 122.31 70.7789 129.6C68.9889 133.54 70.5789 135.67 70.9689 139.37C71.3689 143.17 70.4189 151 67.3089 153.69C63.2789 157.18 55.4689 158.07 52.8789 163.3C58.5289 163.27 65.8489 158.56 70.9189 156.22C74.6889 154.49 78.7989 152.85 82.3789 150.79C85.1889 149.18 86.0289 148.34 87.2889 144.9C90.4289 136.33 91.7589 124.53 91.6189 117.21Z" fill="#8B91BD"/>
<path fill-rule="evenodd" clip-rule="evenodd" d="M24.0996 118.52C24.0996 118.52 31.0296 114.84 34.2896 110.12C37.5496 105.4 41.3196 98.3799 41.3196 98.3799C41.3196 98.3799 32.1296 100.72 29.8596 101.31C27.5796 101.89 24.0996 118.52 24.0996 118.52Z" fill="url(#paint8_linear_27_4443)"/>
<path fill-rule="evenodd" clip-rule="evenodd" d="M24.3494 117.38C24.3494 117.38 29.7994 108.81 32.1094 106.05C34.4194 103.28 40.2894 100.26 40.2894 100.26C40.2894 100.26 36.6394 108.04 33.2194 112.16C29.8094 116.29 24.1094 118.51 24.1094 118.51L24.3494 117.38Z" fill="#534057"/>
<path fill-rule="evenodd" clip-rule="evenodd" d="M6.37891 132.72C6.37891 132.72 16.2789 124.71 19.5189 122.29C22.7589 119.87 23.4289 117.38 23.4289 117.38C23.4289 117.38 26.1089 103.11 28.5089 100.89C30.9089 98.6699 40.1389 97.2799 41.7089 96.1799C43.2789 95.0699 47.6489 90.4199 47.6489 90.4199L41.3289 98.9599C41.3289 98.9599 32.1889 98.7899 29.2589 102.18C26.3289 105.57 24.1189 118.53 24.1189 118.53C24.1189 118.53 10.1789 132.54 6.37891 132.72Z" fill="#62516A"/>
<path fill-rule="evenodd" clip-rule="evenodd" d="M34.06 141.57C33.04 139.83 34.15 134.8 34.15 134.8C34.15 134.8 44.9901 118.9 45.8501 117.37C46.7101 115.85 45.23 127.24 44.05 129.47C42.87 131.71 34.06 141.57 34.06 141.57Z" fill="url(#paint9_linear_27_4443)"/>
<path fill-rule="evenodd" clip-rule="evenodd" d="M34.0605 141.57C34.0605 141.57 38.4206 136.68 39.2106 135.48C39.9906 134.28 43.8206 128.1 44.2906 126.62C44.7506 125.14 46.0406 119.29 46.0406 119.29C46.0406 119.29 44.4806 129.9 44.2006 130.23C43.9206 130.56 35.7905 141.16 34.0605 141.57Z" fill="#534057"/>
<path fill-rule="evenodd" clip-rule="evenodd" d="M111.92 87.9296C111.92 87.9296 112.43 83.8696 112.66 80.2896C112.89 76.6996 123.24 73.6896 123.24 73.6896L122.89 72.3896L111.92 87.9296Z" fill="url(#paint10_linear_27_4443)"/>
<path fill-rule="evenodd" clip-rule="evenodd" d="M110.34 88.25C110.34 88.25 112.01 81.93 111.92 80.65C111.83 79.37 114.01 75.77 117.58 73.56C121.15 71.35 129.77 66.02 129.77 66.02L120.78 74.76C120.78 74.76 114.34 76.51 113.12 78.82C111.9 81.13 112.2 85.45 112.2 85.45L110.34 88.25Z" fill="#62516A"/>
<path fill-rule="evenodd" clip-rule="evenodd" d="M105.939 76.88C105.939 76.88 115.429 69.18 121.339 63.9C127.249 58.62 132.699 54.21 132.699 54.21C132.699 54.21 118.679 72.43 105.939 76.88Z" fill="#62516A"/>
<path fill-rule="evenodd" clip-rule="evenodd" d="M126.669 95.4399C127.179 97.1599 137.199 93.3399 143.659 88.2599C150.119 83.1799 154.499 75.3999 154.499 75.3999C154.499 75.3999 148.459 86.7099 144.149 91.1399C139.839 95.5699 127.719 99.2499 127.039 99.0999C126.379 98.9399 126.669 95.4399 126.669 95.4399Z" fill="#534057"/>
<path fill-rule="evenodd" clip-rule="evenodd" d="M137.49 170.34C137.49 170.34 149.23 167.4 158.25 161.8C167.27 156.2 172.05 149.03 172.05 149.03C172.05 149.03 165.3 159.65 158.99 164.01C152.67 168.37 137.49 170.34 137.49 170.34Z" fill="#473048"/>
<path fill-rule="evenodd" clip-rule="evenodd" d="M128.9 164.88C128.9 164.88 135.9 162.59 138.38 160.58C140.87 158.58 143.79 154.12 143.79 154.12C143.79 154.12 137.85 164.35 135.08 165.97C132.31 167.59 128.9 164.88 128.9 164.88Z" fill="#473048"/>
<path fill-rule="evenodd" clip-rule="evenodd" d="M143.799 178.18C143.799 178.18 147.669 178.8 149.819 178.18C151.969 177.56 157.079 174.65 157.079 174.65C157.079 174.65 147.709 178.07 143.799 178.18Z" fill="#473048"/>
<path fill-rule="evenodd" clip-rule="evenodd" d="M85.9707 179.67C85.9707 179.67 92.7307 177.81 97.2507 177.13C101.771 176.45 110.971 174.65 110.971 174.65C110.971 174.65 98.4107 178.23 95.1307 179.26C91.8507 180.3 85.9707 179.67 85.9707 179.67Z" fill="#473048"/>
<path fill-rule="evenodd" clip-rule="evenodd" d="M58.709 166.27C58.709 166.27 79.189 154.92 84.529 149.4C89.869 143.88 92.579 131.58 92.579 131.58C92.579 131.58 90.559 149.15 90.419 150.15C90.279 151.15 68.529 163.09 58.709 166.27Z" fill="#534057"/>
<path opacity="0.5" fill-rule="evenodd" clip-rule="evenodd" d="M149.939 155.04C149.139 157.71 145.299 165.63 146.579 166.26C147.859 166.9 170.519 155.75 172.039 149.03C173.559 142.31 153.299 143.82 149.939 155.04Z" fill="#8B91BD"/>
<path fill-rule="evenodd" clip-rule="evenodd" d="M80.9204 25.31C82.8804 37.12 72.7704 48.71 73.1904 60.54C73.5004 69.38 83.1504 62.38 86.8404 68.4C89.2604 72.34 86.4704 77 90.4804 80.78C93.8204 83.92 96.2204 82.91 97.1604 86.95C98.2304 91.56 97.9504 98.64 94.3904 101.69C90.0304 105.42 83.1904 106.98 78.3104 110.08C72.7504 113.61 68.1304 117.8 65.4404 123.89C62.0704 131.5 60.7804 139.94 57.9704 147.79C50.2404 150.03 46.0004 158.21 37.8004 159.64C32.7604 160.51 24.5404 159.03 19.6504 157.82C19.6804 159.89 20.1004 161.14 20.8304 162.93C23.6104 162.05 26.0304 160.76 29.3204 161.2C31.6404 161.51 36.5304 164.64 38.6104 163.91C39.8104 163.49 41.1804 161 42.2004 160.13C44.7604 157.95 48.0104 155.93 51.0304 154.47C53.9304 153.07 57.0004 152.25 60.1904 152.23C62.6804 146.62 63.0304 140.24 65.0904 134.42C67.3404 128.09 67.3004 119.85 74.7004 117.9C76.1104 117.53 82.0004 115.76 83.5004 115.32C88.3504 113.88 95.6704 107.9 100.84 106.22C110.83 87.52 100.33 88.91 103.4 81.12C96.4504 80.8 92.3004 75 90.8704 68.52C90.1404 65.23 90.8104 60.01 87.2104 59.53C85.1404 59.25 82.1604 62.25 79.8104 61.86C67.1104 59.74 86.5704 28.38 89.7304 21C87.9204 22.47 83.1304 24.56 80.9204 25.31Z" fill="url(#paint11_linear_27_4443)"/>
<path fill-rule="evenodd" clip-rule="evenodd" d="M108.6 9.79986C103.76 17.3199 101.54 30.1399 109.63 36.0699C115.66 40.4899 122.8 38.7499 128.97 40.7099C138.34 43.6899 131.27 55.0499 142.49 57.7599C146.78 58.7999 150.81 57.3799 154.47 59.8799C155.53 60.5999 156.04 63.7699 156.6 64.7999C159.17 69.5099 164.09 72.2299 166.88 76.7199C170.78 83.0199 166.54 89.4499 167.62 96.3399C168.69 103.23 170.62 109.45 169.12 116.26C168.51 119.02 166.85 121.11 166.07 123.79C167.73 122.22 171.37 118.76 172.19 116.07C173.52 111.7 170.28 105.99 169.77 101.24C169.34 97.1999 168.78 93.0599 169.86 89.0699C170.15 88.0099 171.51 85.9899 171.54 84.8899C171.63 81.8199 169.36 77.6299 168.39 74.3699C166.99 69.6599 160.12 68.0699 157.67 63.8299C155.92 60.7899 155.92 57.0699 154.29 54.1299C147.94 56.2599 140.04 57.0899 137.44 49.4799C136.34 46.2699 137.01 43.4099 134.97 41.1799C133.45 39.5199 130.31 38.4699 128.24 37.7599C119.01 34.5699 108.59 35.0899 109.03 21.9999C109.21 16.6399 111.77 11.8499 114.09 7.35986C112.39 8.17986 110.34 9.06986 108.6 9.79986Z" fill="url(#paint12_linear_27_4443)"/>
<path fill-rule="evenodd" clip-rule="evenodd" d="M80.1795 64.0597C85.1995 70.2197 82.6495 75.7397 80.7095 82.8197C78.1495 92.1397 72.7795 97.0697 66.0595 102.72C60.0895 107.74 58.9396 116.93 55.2896 123.49C49.4796 133.93 41.1495 141.37 32.1795 148.97C28.7395 151.89 24.3695 155.85 19.6995 156.39C19.7595 157.25 19.2296 158.38 19.7796 158.97C22.9096 156.46 28.4695 156.58 31.6395 154.3C33.8895 152.68 34.9396 150.33 36.5396 147.81C40.4696 141.6 45.5596 138.76 50.6596 133.75C55.4396 129.05 57.1896 123.72 59.4196 117.31C60.8596 113.19 62.6895 108.8 65.8795 105.78C68.2095 103.57 73.0695 103.59 74.9495 100.98C76.2395 99.1997 77.7195 96.3197 78.8095 94.3497C81.0395 90.3097 82.5295 82.9597 83.3195 78.4197C84.1095 73.8997 86.1995 67.5597 85.0695 63.9597C83.4595 62.7397 85.0695 63.9497 80.1795 64.0597Z" fill="url(#paint13_linear_27_4443)"/>
<path fill-rule="evenodd" clip-rule="evenodd" d="M114.26 8.20996C110.33 15.65 106.28 26.56 116.6 30.06C118.57 30.73 120.18 30.94 121.78 31.95C125.24 34.12 129.31 34.97 132.76 37.07C137.53 39.98 136.99 46.87 141.33 50.56C146.13 54.63 150.97 52.88 156.55 53.29C157 57.34 157.73 61.54 160.84 64.52C164.58 68.12 168.03 69.98 170.02 75.02C171.58 78.97 173.92 83.93 172.44 88.06C170.88 92.42 168.05 97.99 169.9 102.6C165.57 94.13 170.52 84.73 166.74 76.04C165.29 72.7 162.97 70.17 160.22 67.81C157.09 65.11 156.53 61.27 153.87 58.39C151.36 55.68 147.62 57.52 144.28 57.42C141.3 57.34 139.78 55.86 138.08 53.48C135.59 50.01 134.26 45.39 131.49 42.18C128.23 38.41 122.43 38.53 117.96 37.55C110.61 35.93 106.57 32.65 106.65 24.93C106.7 18.17 111.06 14.62 114.26 8.20996Z" fill="url(#paint14_linear_27_4443)"/>
<path fill-rule="evenodd" clip-rule="evenodd" d="M89.4095 21.7397C88.2995 26.9697 84.8694 31.3997 82.5694 36.1397C80.3294 40.7497 78.6294 46.2397 78.8194 51.4198C78.9194 54.2298 79.1894 57.9797 82.5094 58.4297C84.3594 58.6897 86.6994 57.5397 88.3594 56.9697C89.3794 58.2997 91.1595 59.4098 91.8895 60.8898C92.7195 62.5798 92.1695 64.3897 92.3995 66.2597C92.8595 70.0497 95.1294 74.4998 98.3194 76.7098C99.5694 77.5698 103.119 77.8498 103.869 79.1297C104.319 79.8897 103.589 82.2697 103.659 83.2497C103.839 85.6797 104.909 87.7297 105.589 89.9697C106.759 93.8197 104.649 97.4498 102.909 100.89C104.219 94.6598 102.909 88.6198 98.9294 83.6698C95.7794 79.7497 92.2694 77.5097 90.3694 72.6797C88.7594 68.5597 87.9794 63.8997 82.9294 63.1297C80.7094 62.7897 77.9895 64.1598 76.2195 62.4598C72.7795 59.1497 76.5594 48.4197 77.6994 44.7497C78.9894 40.5997 80.1294 36.6697 82.3094 32.8697C84.1394 29.7097 87.0195 27.0797 89.4095 21.7397Z" fill="url(#paint15_linear_27_4443)"/>
<path fill-rule="evenodd" clip-rule="evenodd" d="M85.2196 66.0298C87.6796 69.0798 88.3896 71.9898 88.1796 75.8798C88.0696 77.8798 87.5796 79.5998 88.5096 81.4098C90.3196 84.9198 93.6696 85.6998 94.5096 90.0698C96.8096 102.03 84.8096 106.17 78.3496 113.94C82.9596 109.44 89.6196 107.41 94.2996 102.74C97.7296 99.3198 99.9996 93.8998 99.1296 89.0198C97.8596 81.8998 89.2896 80.3498 88.1696 73.4098L85.2196 66.0298Z" fill="url(#paint16_linear_27_4443)"/>
<path fill-rule="evenodd" clip-rule="evenodd" d="M29.4902 160.15C31.1302 161.28 32.8403 161.43 34.6703 162.12C35.4503 162.41 36.8602 163.51 37.6802 163.49C38.7202 163.46 40.8803 161.37 41.3203 160.4C40.7703 159.89 39.6602 160.22 38.9402 160.28C35.9002 160.5 33.0102 160.52 29.4902 160.15Z" fill="#FF6F00"/>
<path fill-rule="evenodd" clip-rule="evenodd" d="M68.9805 120.04C72.1005 115.82 76.3305 112 81.0405 109.67C82.8805 108.76 84.6604 108.61 86.5604 108.06C90.6804 106.87 95.2805 104.22 97.6705 100.6C99.1305 98.4001 100.21 96.0201 101.23 93.6001C102.45 94.6901 101.72 97.6901 101.52 99.1301C101.33 100.53 100.91 101.86 100.61 103.23C100.5 103.73 100.53 105.14 100.23 105.51C99.9505 105.85 99.5005 105.82 99.0405 105.95C96.7605 106.59 94.5004 107.21 92.2504 107.99C89.0804 109.08 85.7604 110.09 83.0104 112.08C83.3004 112.85 84.1804 113.4 84.8304 113.75C82.5504 113.82 80.0804 114.77 77.9404 115.49C75.4304 116.32 72.3305 117.43 68.9805 120.04Z" fill="#FF6F00"/>
<path fill-rule="evenodd" clip-rule="evenodd" d="M86.6992 64.7998C88.2792 67.1798 89.0892 69.7698 89.5792 72.5798C90.0492 75.2398 89.9992 77.4198 92.2192 79.2498C94.5692 81.1898 96.9892 82.7498 98.5292 85.4698C99.2792 86.7898 99.4392 88.3198 100.109 89.6098C101.309 85.9398 100.159 83.3198 96.9092 81.6698C93.5192 79.9498 91.6392 77.5498 90.3492 73.9598C89.6092 71.8898 88.9692 69.7698 88.3092 67.6698C88.0892 66.9498 87.8792 65.9598 86.6992 64.7998Z" fill="#FF6F00"/>
<path fill-rule="evenodd" clip-rule="evenodd" d="M74.2689 95.4399C72.7289 97.8899 69.0089 100.14 68.3789 102.93C70.6989 102.35 76.2189 98.1999 74.2689 95.4399Z" fill="#FF6F00"/>
<path fill-rule="evenodd" clip-rule="evenodd" d="M74.1487 55.4497C73.7487 59.5397 75.0487 67.1897 80.7887 64.3397C76.8987 63.3097 75.5187 59.2497 74.1487 55.4497Z" fill="#FF6F00"/>
<path fill-rule="evenodd" clip-rule="evenodd" d="M82.5202 26.17C81.7502 29.22 81.8602 32.94 81.9302 36.09C82.7602 34.65 87.5802 25.67 82.5202 26.17Z" fill="#FF6F00"/>
<path fill-rule="evenodd" clip-rule="evenodd" d="M137.76 50.77C138.11 53.2 139.6 55.07 142.1 55.59C144.85 56.15 147.39 55.15 150.1 55.22C151.4 55.25 152.19 56.05 153.61 56.33C153.96 57.8 154.42 59.61 155.36 60.82C154.14 57.75 151.95 56.03 148.59 56.61C146.61 56.95 144.99 57.51 143.01 56.93C139.98 56.05 138.82 53.44 137.76 50.77Z" fill="#FF6F00"/>
<path fill-rule="evenodd" clip-rule="evenodd" d="M168.89 78.6997C168.26 80.8997 169.02 82.7597 169.13 85.0297C169.19 86.2897 168.54 88.2997 169 89.4197C170.42 88.7797 170.66 85.8697 170.68 84.5897C170.72 82.2697 170.07 80.5497 168.89 78.6997Z" fill="#FF6F00"/>
<path fill-rule="evenodd" clip-rule="evenodd" d="M34.2891 160.77C37.3091 162.87 39.989 162.69 41.799 159.06C39.729 159.84 37.8591 161.05 34.2891 160.77Z" fill="#FFC700"/>
<path fill-rule="evenodd" clip-rule="evenodd" d="M26.5391 154.37C28.9391 154.77 29.6391 153.84 31.0991 151.84C31.7891 150.91 32.7491 149.92 33.1691 148.84C31.0891 149.71 29.0091 152.36 26.5391 154.37Z" fill="#FFC700"/>
<path fill-rule="evenodd" clip-rule="evenodd" d="M66.2793 124.96C67.6693 119.58 73.7393 115.14 79.0493 114.34C81.1793 114.02 83.7493 115.67 84.8493 113.74C86.7793 110.34 87.5493 109.03 90.8893 107.63C92.9893 106.75 96.4593 104.97 97.6493 102.86C93.4793 105.42 89.0093 108.44 84.1393 108.83C81.8093 109.02 79.8093 110.5 77.8593 111.66C74.1293 113.89 71.3993 116.93 69.3593 120.77L66.2793 124.96Z" fill="#FFC700"/>
<path fill-rule="evenodd" clip-rule="evenodd" d="M97.5293 82.7598C99.5893 85.0498 99.8693 88.0598 100.349 91.0298C100.669 93.0198 100.999 95.0998 100.979 97.1198C100.979 95.3798 102.059 93.5198 102.259 91.7498C102.649 88.2698 101.359 86.1298 97.5293 82.7598Z" fill="#FFC700"/>
<path fill-rule="evenodd" clip-rule="evenodd" d="M81.2891 63.82C84.2891 64.07 86.419 64.61 88.549 66.88C89.609 65.88 88.659 62.1 87.549 61.28C85.829 60.03 82.5091 62.21 81.2891 63.82Z" fill="#FFC700"/>
<path fill-rule="evenodd" clip-rule="evenodd" d="M149.939 57.0496C152.869 57.5296 154.699 58.5496 155.969 61.3196C155.989 58.7796 154.429 53.5996 149.939 57.0496Z" fill="#FFC700"/>
<path fill-rule="evenodd" clip-rule="evenodd" d="M170.49 111.18C170.06 113.14 170.22 115.16 169.72 117.11C169.54 117.82 169.07 118.48 169.39 119.16C172.19 118.46 171.34 113.48 170.49 111.18Z" fill="#FFC700"/>
<path fill-rule="evenodd" clip-rule="evenodd" d="M108.6 11.3999C107.63 14.2499 105.96 16.4899 105.78 19.6399C105.66 21.6899 105.84 25.0699 107.47 26.5599C107.68 22.8899 108.54 19.1299 109.66 15.6399C110.04 14.4399 111.44 11.7699 108.6 11.3999Z" fill="#FFC700"/>
<path fill-rule="evenodd" clip-rule="evenodd" d="M82.6393 25.9199C82.2493 29.8299 82.0493 33.6199 81.0293 37.4499C82.9493 34.6599 87.4293 27.8899 82.6393 25.9199Z" fill="#FFC700"/>
<path fill-rule="evenodd" clip-rule="evenodd" d="M93.4697 104.11C87.5997 108.23 94.8197 110.92 97.3297 107.1C99.3797 103.99 95.4397 102.26 92.9097 103.55L93.4697 104.11Z" fill="#2D1D26"/>
<path fill-rule="evenodd" clip-rule="evenodd" d="M99.4593 103.83C97.7393 102.32 97.0993 99.8398 97.4093 97.5598C97.6793 95.5098 99.3892 91.8998 102.109 92.6898C104.169 93.2898 103.649 96.8098 103.329 98.3498C103.139 99.2698 101.289 105.68 99.4593 103.83Z" fill="#2D1D26"/>
<path fill-rule="evenodd" clip-rule="evenodd" d="M24.2005 156.46C27.1105 159.95 35.8604 159.78 39.8004 158.34C43.2004 157.1 45.6904 154.39 48.4404 152.15C51.4504 149.69 55.9104 147.96 57.8004 144.4C60.7204 138.91 60.3305 131.91 62.4605 126.13C63.4505 123.45 65.2605 120.6 66.7605 118.18C69.0205 114.54 71.9704 111.01 75.7504 108.9C79.6604 106.71 84.9304 105.92 89.2504 104.93C85.8204 107.29 81.6305 108.65 77.9505 110.6C74.3105 112.52 71.4504 115.01 69.0004 118.27C63.4804 125.6 62.7005 134.67 60.7205 143.35C59.8705 147.07 59.5504 149.21 55.8804 150.63C53.0104 151.74 50.5205 153.41 48.0405 155.21C43.0705 158.82 38.4905 161.53 32.0805 161.51C28.5905 161.5 25.2605 160.98 21.9505 159.88C18.2405 158.64 22.6005 156.1 24.2005 156.46Z" fill="url(#paint17_linear_27_4443)"/>
<path fill-rule="evenodd" clip-rule="evenodd" d="M125.58 5.7998C125.58 5.7998 136.59 4.7798 140.56 11.8098C144.53 18.8298 143.68 31.1198 143.68 31.1198C143.68 31.1198 147.14 13.9898 146.75 11.4098C146.37 8.8198 141.57 3.7598 125.58 5.7998Z" fill="#6D5D74"/>
<path fill-rule="evenodd" clip-rule="evenodd" d="M98.5 142.52C98.5 142.52 104.08 132.89 109.43 124.96C114.78 117.02 128.9 103.12 128.9 103.12C128.9 103.12 111.24 125.4 110.06 127.53C108.88 129.67 99.6 141.46 98.5 142.52Z" fill="#473048"/>
<path fill-rule="evenodd" clip-rule="evenodd" d="M133.2 179.66C132.24 179.16 139.23 174.15 140.08 174.65C140.93 175.16 142.58 179.75 142.16 180.73C141.75 181.71 135.09 180.65 133.2 179.66Z" fill="url(#paint18_linear_27_4443)"/>
<path opacity="0.7" fill-rule="evenodd" clip-rule="evenodd" d="M3.46912 125.34C2.21912 113.38 1.68908 101.31 0.799079 89.3C0.639078 87.16 -0.74087 81.53 0.53913 79.46C1.69913 77.59 7.60908 76.11 9.29908 75.2C23.4391 67.56 27.3191 51.83 30.0691 37.1C31.4391 29.76 33.5291 21.24 39.3791 16.24C38.8991 26.64 55.1891 24.49 61.0691 22.19C68.8291 19.16 76.1691 14.05 81.4391 7.59001C83.8091 4.68001 85.2091 2.02001 88.9891 0.860007C90.7291 0.330007 95.6891 -0.549993 97.4291 0.470007C98.5991 1.15001 98.3091 2.45001 99.3191 3.55001C104.159 8.79001 110.949 5.97001 117.019 4.80001C112.959 8.97001 110.089 13.09 104.599 15.34C99.7091 17.34 94.4691 18.36 89.8991 21.12C87.5391 22.55 84.7091 25.91 81.9391 26.39C78.6791 26.95 75.3491 24.66 71.2991 25.62C64.1191 27.33 56.6491 33.3 51.0091 37.8C33.6591 51.64 26.0391 73.51 13.0091 90.77C8.2191 97.12 5.09913 101.2 4.28913 109.31C3.73913 115.14 3.84912 120.99 3.46912 125.34Z" fill="url(#paint19_linear_27_4443)"/>
<path opacity="0.7" fill-rule="evenodd" clip-rule="evenodd" d="M168.06 125.34C171.29 118.77 174.76 115.47 180.75 111.14C182.65 109.77 186.6 108.27 187.8 106.25C188.44 105.17 188.28 104.79 188.73 103.58C189.32 102 188.39 97.8298 188.66 95.9298C189.23 91.9798 190.71 88.1998 192.3 84.5698C197.77 72.0298 201.97 65.8498 195.67 52.6598C192.13 45.2598 189.2 37.2198 185.73 30.0298C185.84 30.7998 185.71 31.5598 185.68 32.2998C180.13 33.0398 175.15 25.4598 170.83 23.0098C167.94 21.3698 167.1 21.0998 163.18 21.3598C177.62 29.3998 181.76 52.3998 181.72 67.2198C181.69 77.7498 180.42 87.7498 178.39 98.0798C176.93 105.45 174.61 118.88 168.06 125.34Z" fill="url(#paint20_linear_27_4443)"/>
<defs>
<linearGradient id="paint0_linear_27_4443" x1="87.784" y1="180.424" x2="102.144" y2="8.56031" gradientUnits="userSpaceOnUse">
<stop stop-color="#1E0B21"/>
<stop offset="0.9904" stop-color="#24172A"/>
</linearGradient>
<linearGradient id="paint1_linear_27_4443" x1="76.64" y1="177.588" x2="90.966" y2="6.13014" gradientUnits="userSpaceOnUse">
<stop stop-color="#3A253E"/>
<stop offset="0.9904" stop-color="#4A3B51"/>
</linearGradient>
<linearGradient id="paint2_linear_27_4443" x1="31.5811" y1="135.88" x2="40.6719" y2="27.0793" gradientUnits="userSpaceOnUse">
<stop stop-color="#301D33"/>
<stop offset="0.9904" stop-color="#423449"/>
</linearGradient>
<linearGradient id="paint3_linear_27_4443" x1="58.2086" y1="58.3403" x2="60.7212" y2="28.2693" gradientUnits="userSpaceOnUse">
<stop stop-color="#5F4A63"/>
<stop offset="0.9904" stop-color="#594B60"/>
</linearGradient>
<linearGradient id="paint4_linear_27_4443" x1="75.926" y1="46.9821" x2="77.9949" y2="22.2199" gradientUnits="userSpaceOnUse">
<stop stop-color="#5F4A63"/>
<stop offset="0.9904" stop-color="#594B60"/>
</linearGradient>
<linearGradient id="paint5_linear_27_4443" x1="99.7106" y1="102.51" x2="107.687" y2="7.04241" gradientUnits="userSpaceOnUse">
<stop stop-color="#301D33"/>
<stop offset="0.9904" stop-color="#423449"/>
</linearGradient>
<linearGradient id="paint6_linear_27_4443" x1="73.7655" y1="104.66" x2="131.999" y2="3.79752" gradientUnits="userSpaceOnUse">
<stop stop-color="#48344B"/>
<stop offset="0.9904" stop-color="#4F4055"/>
</linearGradient>
<linearGradient id="paint7_linear_27_4443" x1="127.054" y1="84.794" x2="157.932" y2="84.794" gradientUnits="userSpaceOnUse">
<stop stop-color="#1E0B21"/>
<stop offset="0.9904" stop-color="#24172A"/>
</linearGradient>
<linearGradient id="paint8_linear_27_4443" x1="31.8125" y1="119.161" x2="33.6032" y2="97.7296" gradientUnits="userSpaceOnUse">
<stop offset="0.00959658" stop-color="#24172A"/>
<stop offset="1" stop-color="#1E0B21"/>
</linearGradient>
<linearGradient id="paint9_linear_27_4443" x1="38.7464" y1="141.964" x2="40.8479" y2="116.811" gradientUnits="userSpaceOnUse">
<stop offset="0.00959658" stop-color="#24172A"/>
<stop offset="1" stop-color="#1E0B21"/>
</linearGradient>
<linearGradient id="paint10_linear_27_4443" x1="116.951" y1="88.3502" x2="118.317" y2="72.0046" gradientUnits="userSpaceOnUse">
<stop offset="0.00959658" stop-color="#24172A"/>
<stop offset="1" stop-color="#1E0B21"/>
</linearGradient>
<linearGradient id="paint11_linear_27_4443" x1="59.0724" y1="166.12" x2="71.3264" y2="19.4603" gradientUnits="userSpaceOnUse">
<stop stop-color="#FF3800"/>
<stop offset="0.6328" stop-color="#FF1400"/>
<stop offset="1" stop-color="#FF0400"/>
</linearGradient>
<linearGradient id="paint12_linear_27_4443" x1="134.005" y1="121.129" x2="143.306" y2="9.81096" gradientUnits="userSpaceOnUse">
<stop stop-color="#FF3800"/>
<stop offset="0.6328" stop-color="#FF1400"/>
<stop offset="1" stop-color="#FF0400"/>
</linearGradient>
<linearGradient id="paint13_linear_27_4443" x1="48.3844" y1="161.365" x2="56.7597" y2="61.1275" gradientUnits="userSpaceOnUse">
<stop stop-color="#FF3800"/>
<stop offset="0.6328" stop-color="#FF1400"/>
<stop offset="1" stop-color="#FF0400"/>
</linearGradient>
<linearGradient id="paint14_linear_27_4443" x1="136.029" y1="99.7689" x2="143.476" y2="10.6463" gradientUnits="userSpaceOnUse">
<stop stop-color="#FF3800"/>
<stop offset="0.6328" stop-color="#FF1400"/>
<stop offset="1" stop-color="#FF0400"/>
</linearGradient>
<linearGradient id="paint15_linear_27_4443" x1="88.3122" y1="99.6661" x2="94.7858" y2="22.1879" gradientUnits="userSpaceOnUse">
<stop stop-color="#FF3800"/>
<stop offset="0.6328" stop-color="#FF1400"/>
<stop offset="1" stop-color="#FF0400"/>
</linearGradient>
<linearGradient id="paint16_linear_27_4443" x1="87.8408" y1="114.737" x2="91.864" y2="66.5853" gradientUnits="userSpaceOnUse">
<stop stop-color="#FF3800"/>
<stop offset="0.6328" stop-color="#FF1400"/>
<stop offset="1" stop-color="#FF0400"/>
</linearGradient>
<linearGradient id="paint17_linear_27_4443" x1="20.4931" y1="133.215" x2="89.2399" y2="133.215" gradientUnits="userSpaceOnUse">
<stop stop-color="#FF3800"/>
<stop offset="0.6328" stop-color="#FF1400"/>
<stop offset="1" stop-color="#FF0400"/>
</linearGradient>
<linearGradient id="paint18_linear_27_4443" x1="137.59" y1="180.913" x2="138.128" y2="174.469" gradientUnits="userSpaceOnUse">
<stop stop-color="#5F4A63"/>
<stop offset="0.9904" stop-color="#594B60"/>
</linearGradient>
<linearGradient id="paint19_linear_27_4443" x1="58.5179" y1="125.335" x2="58.5179" y2="0.00300309" gradientUnits="userSpaceOnUse">
<stop stop-color="#42478B"/>
<stop offset="0.4441" stop-color="#252217"/>
<stop offset="0.9904"/>
</linearGradient>
<linearGradient id="paint20_linear_27_4443" x1="180.989" y1="125.335" x2="180.989" y2="21.2652" gradientUnits="userSpaceOnUse">
<stop stop-color="#42478B"/>
<stop offset="0.4441" stop-color="#252217"/>
<stop offset="0.9904"/>
</linearGradient>
</defs>
</svg>
