<svg width="161" height="182" viewBox="0 0 161 182" fill="none" xmlns="http://www.w3.org/2000/svg">
<path fill-rule="evenodd" clip-rule="evenodd" d="M29.38 171.658C31.54 159.368 26.75 157.688 18.55 149.538C1.01999 132.118 5.52 112.258 0 90.2882C0.63 90.9982 0.08 88.7382 0.5 89.5482C6.58 74.7882 12.1 60.9882 22.63 48.1682C33.32 35.1582 46.73 23.3282 60.31 13.4182C63.17 11.3282 70.69 4.50822 74.89 3.56822C82.87 1.77822 95.38 11.0682 101.15 16.5582C104.58 19.8282 107.47 24.1282 109.89 28.2082C118.89 43.3282 108.6 61.5782 104.23 77.0082C102.45 83.2782 93.92 106.348 99.52 112.698C101.07 114.448 106.32 114.488 108.57 114.998C106.18 122.458 109.03 128.208 110.57 134.938C113.19 146.368 114.45 155.568 124.72 163.328C132.27 169.028 146.11 172.918 154.24 177.788C137.4 175.838 116.53 182.428 99.55 181.298C89.12 180.598 79.39 180.148 70.11 177.698C61.26 175.358 17.42 184.688 14.27 180.568C10.01 174.958 32.95 162.748 29.38 171.658Z" fill="url(#paint0_linear_27_4653)"/>
<path fill-rule="evenodd" clip-rule="evenodd" d="M132.689 175.768C132.379 172.008 131.449 166.238 133.369 162.748C135.909 158.148 141.829 157.968 146.429 157.238C148.569 156.898 150.509 155.858 152.109 156.898C152.539 157.178 153.819 160.808 153.929 161.018C155.449 164.158 156.989 167.248 158.329 170.478C159.789 174.008 161.659 176.008 158.519 177.878C157.229 178.648 154.319 178.128 152.799 178.198C148.029 178.398 143.279 178.758 138.499 178.808C133.669 178.858 128.749 179.228 123.949 179.128L132.689 175.768Z" fill="url(#paint1_linear_27_4653)"/>
<path fill-rule="evenodd" clip-rule="evenodd" d="M0.509766 89.5481C0.549766 92.9281 57.9598 95.7281 70.4098 92.4781C82.8698 89.2281 105.4 36.1781 106.77 30.7781C108.14 25.3781 85.5898 2.03809 76.8198 2.03809C68.0598 2.03809 2.97977 48.7881 0.509766 89.5481Z" fill="url(#paint2_linear_27_4653)"/>
<path fill-rule="evenodd" clip-rule="evenodd" d="M72.0997 92.4781C72.0997 92.4781 62.6697 152.288 59.6397 156.448C56.6097 160.608 28.2997 159.558 27.4997 158.548C26.7097 157.528 -3.08034 140.368 0.499657 89.5581C0.509657 89.5481 43.7397 95.4581 72.0997 92.4781Z" fill="#28152B"/>
<path fill-rule="evenodd" clip-rule="evenodd" d="M99.5201 112.698C97.2101 113.098 76.8301 151.738 76.8301 151.738C76.8301 151.738 97.2401 122.578 108.57 114.998C108.57 114.988 104.05 111.918 99.5201 112.698Z" fill="#331F36"/>
<path fill-rule="evenodd" clip-rule="evenodd" d="M13.8691 178.128C13.8691 178.128 25.6291 180.848 36.1591 178.128C46.6891 175.408 47.3591 173.078 47.3591 173.078C47.3591 173.078 38.4891 167.928 29.0391 168.728C19.5791 169.528 14.8891 172.768 13.8691 178.128Z" fill="#331F36"/>
<path fill-rule="evenodd" clip-rule="evenodd" d="M49.5391 175.758C49.5391 175.758 55.2591 170.668 58.7991 170.608C62.3291 170.538 63.6791 173.188 63.6791 173.188C63.6791 173.188 54.9791 176.058 49.5391 175.758Z" fill="#331F36"/>
<path fill-rule="evenodd" clip-rule="evenodd" d="M132.45 173.188C132.6 174.788 147.13 175.208 149.59 170.598C152.05 165.988 152.18 157.838 149.59 156.438C147 155.048 128.49 156.448 132.45 173.188Z" fill="#331F36"/>
<path fill-rule="evenodd" clip-rule="evenodd" d="M68.8398 169.298C68.8398 169.298 80.2898 149.788 89.9398 141.578C99.5898 133.378 104.75 132.928 104.75 132.928C104.75 132.928 106.32 138.258 104.75 141.878C103.18 145.498 78.0398 170.678 74.6798 170.548C71.3098 170.408 68.8398 169.298 68.8398 169.298Z" fill="#331F36"/>
<path fill-rule="evenodd" clip-rule="evenodd" d="M63.4297 8.7181C63.4297 8.7181 80.0397 8.3681 84.8197 10.0781C89.5897 11.7781 108.18 26.0281 108.18 26.0281C108.18 26.0281 94.3797 8.05809 91.3097 5.7481C88.2297 3.4381 81.9597 0.198094 78.5397 0.0280936C75.1097 -0.151906 63.4297 8.7181 63.4297 8.7181Z" fill="url(#paint3_linear_27_4653)"/>
<path fill-rule="evenodd" clip-rule="evenodd" d="M56.6094 92.4785C56.6094 92.4785 77.9794 82.6585 79.4094 84.5985C80.8494 86.5385 69.9594 105.618 69.9594 105.618L56.6094 92.4785Z" fill="#3A2B40"/>
<path fill-rule="evenodd" clip-rule="evenodd" d="M11.7192 60.6084C9.69919 66.8984 34.1792 69.3384 48.0792 58.1484C63.3392 45.8584 73.6692 17.3984 70.5192 14.8784C70.5192 14.8784 64.6792 38.1684 51.8892 51.4184C39.0992 64.6584 17.7792 68.6784 11.7192 60.6084Z" fill="url(#paint4_linear_27_4653)"/>
<path fill-rule="evenodd" clip-rule="evenodd" d="M4.45922 73.2881C4.75922 77.7881 20.9192 83.5081 42.8092 75.0881C64.6892 66.6681 76.8292 38.8081 76.8292 38.8081C76.8292 38.8081 62.6992 72.4481 39.9692 81.7081C17.2492 90.9681 7.28922 83.6181 5.60922 81.7081C3.92922 79.7981 3.44922 75.9281 3.44922 75.9281L4.45922 73.2881Z" fill="url(#paint5_linear_27_4653)"/>
<path fill-rule="evenodd" clip-rule="evenodd" d="M11.6005 59.6781C11.1505 60.4981 25.0105 69.3281 44.9305 57.2281C64.8505 45.1281 69.6105 17.0182 68.0705 14.1582C66.5305 11.2982 56.6005 11.3781 45.1605 18.4181C27.6605 29.1981 17.3205 49.3481 11.6005 59.6781Z" fill="#4B3850"/>
<path fill-rule="evenodd" clip-rule="evenodd" d="M132.251 167.278C132.251 167.278 124.421 178.048 121.761 179.148C119.101 180.248 101.391 179.148 101.391 179.148C101.391 179.148 112.331 168.908 118.051 166.518C123.771 164.138 132.251 167.278 132.251 167.278Z" fill="#2B182E"/>
<path fill-rule="evenodd" clip-rule="evenodd" d="M75.8292 71.7984C75.9292 70.9184 76.1792 69.4884 75.6892 68.6784C75.1092 67.7184 73.7392 66.7084 72.9292 65.9084C71.2792 64.2584 70.2092 62.3484 68.5492 64.8284C67.4192 66.5284 67.7692 68.9384 68.5192 70.7184C69.4092 72.8484 70.8592 73.7884 73.1392 73.8884C74.2492 73.9384 75.3192 73.6384 75.8292 71.7984Z" fill="url(#paint6_linear_27_4653)"/>
<path fill-rule="evenodd" clip-rule="evenodd" d="M68.4195 65.1484C67.6795 66.7484 67.9795 68.7484 68.9295 70.2184C69.8095 71.5784 71.3895 72.1584 72.8295 72.7184C73.8595 73.1184 74.5495 72.8285 75.5595 72.5685C75.1995 73.9785 74.0795 73.9684 72.7495 73.9084C71.1595 73.8284 69.8995 73.0684 68.9595 71.7484C67.7895 70.1084 67.1795 66.7484 68.4195 65.1484Z" fill="#4F3A52"/>
<path opacity="0.5" fill-rule="evenodd" clip-rule="evenodd" d="M68.6789 70.0982C68.4689 68.5782 67.3189 64.8882 69.9289 65.7182C72.1289 66.4182 73.4789 68.1282 74.4089 70.1282C74.9089 71.2182 75.6689 72.7482 74.2089 73.3282C72.0189 74.1882 68.9789 71.2882 68.6789 70.0982Z" fill="#9ECAB7"/>
<path fill-rule="evenodd" clip-rule="evenodd" d="M0.509766 89.5483C0.509766 89.5483 45.2798 92.1283 51.7898 91.9283C58.2998 91.7283 75.2298 82.0483 77.6498 81.0383C80.0698 80.0283 85.5398 74.0283 86.6598 72.5683C87.7798 71.1083 93.1998 55.7883 93.9798 53.3183C94.7598 50.8483 91.1298 49.8383 95.4098 46.1383C99.6998 42.4383 106.77 30.7783 106.77 30.7783L104.51 37.9783C104.51 37.9783 99.9798 44.9683 96.7398 46.7083C93.4998 48.4483 94.7098 51.4283 95.4098 53.5583C96.1098 55.6883 87.6198 74.9283 79.4098 84.6183C79.4098 84.6183 70.0598 87.0383 63.7898 89.5583C57.5198 92.0783 57.2798 93.9283 57.2798 93.9283C57.2798 93.9283 17.0098 93.5583 0.509766 89.5483Z" fill="#534057"/>
<path fill-rule="evenodd" clip-rule="evenodd" d="M96.1797 55.528C96.1797 55.528 93.5297 51.068 94.3097 48.748C95.0897 46.428 102.38 41.958 102.38 41.958C102.38 41.958 101.59 53.218 96.1797 55.528Z" fill="url(#paint7_linear_27_4653)"/>
<path fill-rule="evenodd" clip-rule="evenodd" d="M94.2202 50.3581C94.2202 50.3581 95.3802 52.8881 97.1002 53.1181C98.8102 53.3481 100.77 49.5781 100.77 49.5781C100.77 49.5781 99.4002 54.4081 95.7002 56.5281C95.6902 56.5381 93.6902 52.7481 94.2202 50.3581Z" fill="#4F3A52"/>
<path opacity="0.5" fill-rule="evenodd" clip-rule="evenodd" d="M13.8704 56.5381C12.1004 60.8981 41.9504 61.8081 53.1604 47.2381C64.3704 32.6781 59.8604 12.3481 56.9204 13.2481C53.9804 14.1581 27.2204 23.5281 13.8704 56.5381Z" fill="#8B91BD"/>
<path opacity="0.5" fill-rule="evenodd" clip-rule="evenodd" d="M65.9606 6.15808C65.2706 6.63808 77.0806 8.19807 83.4206 9.67807C89.7606 11.1581 97.3506 13.8781 97.3506 13.8781C97.3506 13.8781 92.4706 4.85808 84.5406 2.62808C76.6106 0.398084 73.5406 0.938084 65.9606 6.15808Z" fill="#7C95A5"/>
<path opacity="0.5" fill-rule="evenodd" clip-rule="evenodd" d="M3.45045 92.478C0.310447 93.118 10.9505 125.198 29.1805 125.418C47.4104 125.648 56.1104 101.348 53.1704 98.488C50.2304 95.628 3.45045 92.478 3.45045 92.478Z" fill="#8B91BD"/>
<path opacity="0.5" fill-rule="evenodd" clip-rule="evenodd" d="M41.3502 91.6482C30.5202 90.2382 57.6602 68.1882 68.0802 60.4382C78.5002 52.6982 87.1502 63.5482 87.1502 63.5482C87.1502 63.5482 73.3702 92.1882 41.3502 91.6482Z" fill="#8B91BD"/>
<path opacity="0.5" fill-rule="evenodd" clip-rule="evenodd" d="M12.8392 70.0983C11.7092 73.3283 19.3792 80.0283 36.1492 76.3983C60.3492 71.1583 66.1992 48.8283 66.3692 45.7983C66.5392 42.7683 55.2392 60.6083 38.8392 64.3183C22.4392 68.0183 13.2792 68.8583 12.8392 70.0983Z" fill="#8B91BD"/>
<path fill-rule="evenodd" clip-rule="evenodd" d="M75.0508 170.368C75.0508 170.368 82.8608 166.618 87.7908 162.138C92.7208 157.658 100.191 147.538 100.191 147.538C100.191 147.538 85.9008 161.188 83.2008 163.718C80.5108 166.238 75.0508 170.368 75.0508 170.368Z" fill="#473048"/>
<path fill-rule="evenodd" clip-rule="evenodd" d="M17.0391 178.698C17.0391 178.698 31.2291 178.268 41.6791 176.498C41.6891 176.498 31.1691 181.728 17.0391 178.698Z" fill="#473048"/>
<path fill-rule="evenodd" clip-rule="evenodd" d="M135.051 174.128C135.051 174.128 144.641 172.848 147.921 170.598C151.201 168.348 151.231 159.448 151.231 159.448C151.231 159.448 151.961 167.508 150.021 170.538C148.101 173.568 140.361 175.028 135.051 174.128Z" fill="#473048"/>
<path fill-rule="evenodd" clip-rule="evenodd" d="M104.051 179.148C104.051 179.148 116.951 179.158 120.661 177.578C124.361 175.998 128.391 172.298 128.391 172.298C128.391 172.298 124.931 177.978 121.751 179.138C118.581 180.318 104.051 179.148 104.051 179.148Z" fill="#473048"/>
<path fill-rule="evenodd" clip-rule="evenodd" d="M105.451 141.078C105.451 141.078 109.461 158.818 109.801 163.078C110.141 167.338 104.051 173.668 104.051 173.668C104.051 173.668 107.671 170.058 109.811 168.888C111.961 167.728 115.251 166.158 115.771 164.028C116.281 161.898 117.191 155.398 117.191 155.398C117.191 155.398 113.721 148.828 111.931 143.268C110.131 137.708 107.781 129.528 107.781 129.528L104.751 132.918C104.751 132.928 106.601 137.818 105.451 141.078Z" fill="#857299"/>
<path fill-rule="evenodd" clip-rule="evenodd" d="M88.8203 135.738C88.8203 135.738 100.07 132.688 103.63 128.658C107.2 124.638 107.52 115.728 107.52 115.728C107.52 115.728 94.0903 128.928 88.8203 135.738Z" fill="#857299"/>
<path fill-rule="evenodd" clip-rule="evenodd" d="M68.3398 117.338C68.3398 117.338 79.1599 103.788 83.3699 102.018C87.5798 100.248 88.5298 87.7981 91.2098 82.8281C93.8898 77.8581 94.8998 59.3481 94.8998 59.3481C94.8998 59.3481 84.2098 79.7181 82.8598 82.2381C81.5098 84.7581 78.3498 90.7982 77.1098 93.5082C75.8698 96.2182 70.6698 106.868 70.6698 106.868L68.3398 117.338Z" fill="#857299"/>
<path fill-rule="evenodd" clip-rule="evenodd" d="M33.3998 141.418C33.4498 143.298 32.6198 145.898 33.7298 147.588C34.1998 148.308 35.1998 148.638 35.8398 149.178C36.7598 149.948 37.3598 150.898 37.9998 151.888C38.8998 153.288 38.9198 153.558 39.9398 152.008C41.2198 150.058 42.5798 147.718 44.5598 146.368C44.2298 144.608 43.4798 142.928 42.8498 141.268C42.2298 139.648 41.6998 137.178 40.4198 135.938C38.0198 133.628 34.7798 138.758 33.3998 141.418Z" fill="url(#paint8_linear_27_4653)"/>
<path fill-rule="evenodd" clip-rule="evenodd" d="M41.5906 137.548C40.5506 134.908 38.6806 136.868 37.1106 137.898C35.3106 139.078 34.5106 140.728 34.0706 142.798C33.9206 143.508 33.5906 145.038 33.8506 145.728C34.1106 146.438 35.0606 146.918 35.5906 147.408C36.0906 147.868 36.3006 148.368 36.6106 148.948C37.3206 150.298 37.9406 152.398 39.3006 153.238C39.6506 152.908 40.0006 152.398 40.2806 151.988C41.1006 150.818 41.9306 149.688 42.8306 148.578C43.3806 147.898 44.3306 147.408 44.6306 146.568C45.0406 145.448 44.1906 144.108 43.8106 143.098C43.0806 141.138 42.4206 139.168 41.5906 137.548Z" fill="#29182D"/>
<path fill-rule="evenodd" clip-rule="evenodd" d="M36.1602 149.458C36.1602 149.458 38.7902 152.808 39.2102 152.828C39.6302 152.848 41.1102 149.788 42.5302 148.418C43.9502 147.048 44.4102 146.038 44.4002 145.258C44.3902 144.478 43.5702 142.458 43.5702 142.458C43.5702 142.458 44.7402 144.548 44.7202 146.108C44.7002 147.668 42.8002 148.478 41.5802 150.158C40.3602 151.838 39.9702 153.058 39.1302 153.328C38.3102 153.598 36.1602 149.458 36.1602 149.458Z" fill="#3E2B42"/>
<path fill-rule="evenodd" clip-rule="evenodd" d="M102.51 156.899C102.35 158.829 102.66 168.479 105.89 166.999C107.71 166.159 106.58 159.969 106.3 158.789C105.95 157.289 105.13 155.229 102.51 156.899Z" fill="#A68CD0"/>
<path fill-rule="evenodd" clip-rule="evenodd" d="M99.4808 164.758C99.2408 163.898 98.6508 162.848 99.3508 162.068C100.501 163.098 100.941 165.428 100.151 166.778L99.4808 164.758Z" fill="#A68CD0"/>
<path fill-rule="evenodd" clip-rule="evenodd" d="M120.24 170.138C119.26 170.818 117.73 171.948 118.44 173.408C119.88 173.748 120.92 171.418 121.02 170.248L120.24 170.138Z" fill="#A68CD0"/>
<path fill-rule="evenodd" clip-rule="evenodd" d="M123.94 171.378C123.88 171.388 120.98 172.498 122.27 172.998C122.95 173.268 123.49 171.808 123.6 171.378H123.94Z" fill="#A68CD0"/>
<path fill-rule="evenodd" clip-rule="evenodd" d="M47.4102 137.708C47.8102 139.738 48.0002 141.748 48.6502 143.728C49.0202 144.868 49.4602 146.768 50.6502 145.658C51.7802 144.598 51.0402 140.728 50.7702 139.498C50.5202 138.418 50.1802 136.838 47.4102 137.708Z" fill="#A68CD0"/>
<path fill-rule="evenodd" clip-rule="evenodd" d="M52.5694 146.018C52.4294 145.348 52.1194 141.838 53.6794 142.098C54.8994 142.298 54.2894 144.328 53.5794 144.788L52.5694 146.018Z" fill="#A68CD0"/>
<path fill-rule="evenodd" clip-rule="evenodd" d="M59.1899 106.178C57.5699 107.938 56.9199 110.998 56.9399 113.298C56.9699 116.208 58.8399 118.948 61.7899 116.788C65.8299 113.838 64.5499 106.518 59.1899 106.178Z" fill="#A68CD0"/>
<path fill-rule="evenodd" clip-rule="evenodd" d="M62.8902 120.428C62.7302 119.428 63.4802 116.278 65.1402 117.818C66.3702 118.968 64.7102 120.668 63.4602 120.648L62.8902 120.428Z" fill="#A68CD0"/>
<path fill-rule="evenodd" clip-rule="evenodd" d="M98.5807 60.1682C96.8507 62.5882 96.1307 65.3882 96.3207 68.3982C96.5207 71.7182 98.7007 73.5182 101.401 70.9282C104.341 68.1082 106.191 60.4182 101.391 58.3682L98.5807 60.1682Z" fill="#A68CD0"/>
<path fill-rule="evenodd" clip-rule="evenodd" d="M80.6204 37.9482C78.5704 39.7182 77.6304 42.7382 77.3904 45.4082C77.0904 48.8682 79.5104 50.6182 82.4804 48.3582C86.6804 45.1582 89.7304 34.9782 81.6304 35.4882L80.6204 37.9482Z" fill="#A68CD0"/>
<path fill-rule="evenodd" clip-rule="evenodd" d="M88.1395 43.6686C88.1295 43.0186 88.1695 40.7386 89.3695 41.1486C90.7995 41.6286 88.9895 43.7986 88.0195 43.7786L88.1395 43.6686Z" fill="#A68CD0"/>
<path fill-rule="evenodd" clip-rule="evenodd" d="M54.7006 20.1084C53.0306 22.6784 51.9006 26.0984 51.6806 29.1484C51.4506 32.2884 53.3906 33.8884 55.9006 31.4484C57.9606 29.4484 59.1506 25.8384 58.6406 23.0284C58.3706 21.5484 57.4906 20.5884 54.7006 20.1084Z" fill="#A68CD0"/>
<path fill-rule="evenodd" clip-rule="evenodd" d="M56.6107 34.2482C52.0207 34.0982 43.8607 45.2982 49.8507 45.9782C53.2507 46.3682 57.1207 42.6082 58.6107 39.8882C59.5007 38.2782 60.9507 34.3282 58.6207 33.1182L56.6107 34.2482Z" fill="#A68CD0"/>
<path fill-rule="evenodd" clip-rule="evenodd" d="M14.53 71.2785C14.39 73.0685 15.98 77.9185 18.53 75.6585C20.02 74.3285 18.18 70.7285 16.78 69.9385L14.53 71.2785Z" fill="#A68CD0"/>
<path fill-rule="evenodd" clip-rule="evenodd" d="M111.49 54.8882C109.36 60.0182 108.81 66.0182 105.76 70.7282C104.72 72.3382 103.41 73.5182 102.31 75.0682C100.78 77.2182 101.17 77.2282 99.0602 78.7682C95.3802 81.4582 90.5901 87.9082 91.7802 92.9282C92.1201 94.3582 93.5002 95.1182 93.9602 96.4782C95.4702 100.958 94.5402 108.628 93.7602 113.118C92.7002 119.298 89.3602 125.148 84.8902 129.458C83.5502 130.748 83.3102 130.718 81.7102 131.688C79.9402 132.748 77.3302 135.618 75.1502 135.688C69.2202 135.868 66.8002 124.788 60.3802 124.648C59.5202 127.478 56.5102 128.008 53.8402 127.978C48.2402 127.908 44.3402 125.938 38.8702 127.938C28.9302 131.578 19.6102 133.178 11.8502 125.208C9.85015 123.158 2.73016 106.848 1.41016 107.088C6.15016 113.028 6.41016 119.218 9.57016 125.958C10.3302 127.578 10.9702 129.798 12.1702 131.258C15.5302 135.328 22.5102 131.808 27.6202 132.408C31.4702 132.868 32.4702 134.118 35.8402 132.268C42.7002 128.488 46.6502 128.238 54.2802 129.658C56.9702 130.158 60.0302 129.708 62.6902 131.048C66.7202 133.078 69.6502 137.608 71.6802 141.428C75.1102 147.918 71.9102 151.368 69.7202 158.308C68.4202 162.438 67.1702 165.888 68.4702 169.268C71.6802 163.528 74.9402 158.438 78.8702 153.208C78.1802 152.388 77.8502 151.458 77.4902 150.518C79.4102 142.628 83.0802 136.238 87.5902 129.788C91.5802 124.078 94.1802 117.938 99.3702 113.148C94.1002 110.058 96.2002 106.648 96.3402 100.988C96.4202 97.8782 95.8902 96.3982 94.8302 93.6182C92.4802 87.4882 96.0702 77.4782 103.4 79.7682C106.46 70.7182 108.96 65.2482 111.49 54.8882Z" fill="url(#paint9_linear_27_4653)"/>
<path fill-rule="evenodd" clip-rule="evenodd" d="M74.4507 139.058C69.3507 134.208 71.7907 129.078 74.6607 123.578C77.1307 118.838 80.0907 106.628 87.3607 107.778C89.7807 108.158 91.6407 110.878 92.5507 112.878C94.1707 116.438 93.1507 118.818 91.4307 122.278C92.6907 120.318 95.8907 116.218 95.6807 113.788C95.6007 112.838 94.9207 109.688 94.4107 108.498C95.1407 107.928 94.7507 104.828 95.3207 104.268C94.3507 104.658 93.3107 104.988 92.2307 105.058C89.3307 105.228 89.3707 106.168 86.8907 105.308C83.0407 103.958 80.1807 108.108 77.8107 111.398C73.8007 116.968 73.4207 128.478 65.4707 127.658C67.9707 132.238 71.9807 136.758 74.4507 139.058Z" fill="url(#paint10_linear_27_4653)"/>
<path fill-rule="evenodd" clip-rule="evenodd" d="M76.3607 148.818C77.2607 149.218 78.1807 149.538 79.1307 149.768C80.7607 147.768 83.8807 146.608 85.7807 144.548C87.0307 143.188 88.1807 141.748 89.4807 140.418C92.7307 137.068 95.6807 134.108 100.181 132.318C103.911 130.838 106.971 126.698 107.791 122.628C107.771 125.048 108.271 127.258 108.421 129.488C105.991 129.408 104.681 132.038 102.901 133.158C100.031 134.968 96.4807 134.638 93.6807 136.938C86.7007 142.688 80.8507 151.008 75.3107 158.148C74.0807 155.118 76.0007 150.768 76.3607 148.818Z" fill="url(#paint11_linear_27_4653)"/>
<path fill-rule="evenodd" clip-rule="evenodd" d="M70.7495 177.098C75.6095 177.908 80.4995 177.198 85.3895 177.758C88.3595 178.098 91.5094 179.298 94.4995 179.118C100.819 178.748 105.679 170.778 111.239 168.088C115.029 166.258 115.799 165.368 116.419 161.058C116.679 159.248 116.749 157.078 117.199 155.408C118.599 157.668 120.289 159.468 122.129 161.328C120.219 162.458 119.389 164.088 117.959 165.488C115.169 168.198 110.929 169.398 107.899 172.028C105.999 173.678 104.049 175.898 102.069 177.218C100.489 178.278 98.9795 178.398 99.2295 180.888C93.5395 181.388 88.3995 180.408 82.6195 180.258C77.9395 180.128 74.0895 178.488 69.6395 177.558C65.3895 176.668 58.8495 178.198 54.6895 178.058C58.8795 176.538 67.3895 175.878 70.7495 177.098Z" fill="url(#paint12_linear_27_4653)"/>
<path fill-rule="evenodd" clip-rule="evenodd" d="M73.111 146.298C71.771 150.628 70.801 155.118 67.681 158.618C65.071 161.538 62.591 162.248 58.961 162.968C57.291 163.298 55.971 164.078 54.401 164.698C50.501 166.228 46.091 166.688 41.951 166.188C40.151 165.968 38.281 165.578 36.561 164.998C35.711 164.708 34.471 163.858 33.531 163.848C32.151 163.838 30.541 165.268 29.251 165.878C25.811 167.508 19.771 170.038 17.041 172.648C23.551 169.748 29.871 168.208 36.831 169.268C40.231 169.788 45.711 170.898 46.541 173.888C48.301 174.048 45.181 177.368 46.891 177.788C49.141 175.558 59.251 166.628 63.681 171.858C65.301 173.778 57.171 177.228 55.421 177.988C57.631 178.008 66.651 176.318 68.721 176.448C70.261 176.548 71.921 177.398 73.541 177.428C75.471 177.468 79.931 177.698 81.851 177.558C81.151 175.458 73.701 173.248 71.941 172.448C67.871 170.588 67.341 168.308 69.871 164.648C71.211 162.708 71.051 161.928 71.731 159.718C73.331 154.498 75.181 150.388 73.111 146.298Z" fill="url(#paint13_linear_27_4653)"/>
<path fill-rule="evenodd" clip-rule="evenodd" d="M32.0293 166.778C35.6993 167.948 39.8093 167.928 43.5793 168.828C45.2093 169.218 45.8193 169.658 46.7193 170.928C47.3093 171.758 47.8393 173.168 48.8493 173.548C51.3593 174.488 55.0193 171.648 57.0193 170.618C58.8893 169.658 61.2793 168.378 63.4293 168.238C64.3093 168.178 64.9093 168.628 65.6793 168.678C66.7193 168.758 67.0493 167.988 67.7393 166.898C68.5993 165.528 69.1893 163.988 70.1893 162.718C71.2193 161.398 72.3493 160.238 73.2493 158.798C74.9493 156.078 75.7493 152.448 76.5693 149.498C75.2993 154.158 71.8093 158.368 69.0693 162.258C68.2193 163.468 66.4393 166.838 64.7793 167.088C63.8393 167.228 62.7893 166.598 61.7793 166.658C59.5393 166.778 57.6993 168.048 55.6193 168.738C54.3693 169.158 52.7593 169.088 54.0893 167.498C54.9893 166.428 56.8493 166.438 58.0793 165.998C60.4893 165.128 63.5093 163.848 65.2193 161.858C62.2593 163.838 58.4393 163.628 55.4093 165.298C54.0193 166.058 52.7293 167.258 51.6393 168.368C50.6693 169.358 50.3893 169.368 49.0393 168.848C46.7293 167.968 44.3693 167.698 42.0293 166.858C38.5493 165.608 34.5393 165.068 32.0293 166.778Z" fill="#FF6F00"/>
<path fill-rule="evenodd" clip-rule="evenodd" d="M72.7695 151.848C74.8095 148.998 75.5195 144.618 72.6595 142.138C70.0995 139.918 69.4895 136.218 68.5195 133.108C70.7395 134.628 72.5195 136.818 75.3795 137.148C79.0795 137.578 82.2095 133.868 84.6495 131.648C83.7895 133.268 82.5895 134.778 81.7395 136.458C80.5895 138.758 80.2395 141.408 79.0295 143.638C78.2695 143.258 77.1295 142.548 76.2495 143.148C75.2895 143.808 75.6395 145.558 75.5495 146.588C75.0895 151.918 70.8295 156.088 68.2695 160.548C69.1395 159.538 69.6595 158.068 70.2595 156.888C71.1795 155.088 72.3195 153.328 72.7695 151.848Z" fill="#FF6F00"/>
<path fill-rule="evenodd" clip-rule="evenodd" d="M76.58 154.658C76.54 153.548 77.13 150.358 78.7 150.408C78.24 151.878 77.26 153.378 76.58 154.658Z" fill="#FF6F00"/>
<path fill-rule="evenodd" clip-rule="evenodd" d="M64.3497 170.368C65.3897 171.678 66.2797 172.868 65.1597 174.468C64.4897 175.428 63.2397 175.918 62.4297 176.658C63.1997 177.368 65.0897 177.118 66.1197 177.248C68.1997 177.498 70.2197 177.788 72.3197 177.928C74.4897 178.078 76.6997 178.068 78.8397 178.488C79.6597 178.648 80.4697 178.968 81.2897 179.008C80.5497 177.748 78.3197 177.328 77.1397 176.468C76.2297 175.808 75.3797 174.708 74.2797 174.408C72.7797 173.998 71.1797 174.618 69.5997 174.068C67.9597 173.478 65.5097 172.258 64.3497 170.368Z" fill="#FF6F00"/>
<path fill-rule="evenodd" clip-rule="evenodd" d="M83.9902 178.788C86.4802 178.928 89.1602 179.378 91.5902 179.908C89.4002 180.558 86.6202 179.978 83.9902 178.788Z" fill="#FF6F00"/>
<path fill-rule="evenodd" clip-rule="evenodd" d="M88.8203 106.628C90.9603 107.548 93.1003 109.578 93.9803 111.738C94.6203 113.308 94.3403 114.958 94.4503 116.588C95.4103 114.928 96.8603 114.758 96.2803 112.808C95.7503 111.018 95.2003 109.568 95.0703 107.658C95.0303 107.058 95.1203 106.168 94.8503 105.668C93.3803 106.408 91.0903 107.258 88.8203 106.628Z" fill="#FF6F00"/>
<path fill-rule="evenodd" clip-rule="evenodd" d="M54.4805 129.178C57.4005 129.268 59.2805 126.478 62.1105 127.558C65.4805 128.848 67.7805 129.158 71.0805 127.278C70.0305 129.068 69.5605 130.308 69.5005 132.418C68.0205 132.368 66.2705 131.208 64.8605 130.748C62.4705 129.958 60.0805 129.628 57.6205 129.178H54.4805Z" fill="#FF6F00"/>
<path fill-rule="evenodd" clip-rule="evenodd" d="M95.2099 100.678C95.3799 97.5181 94.3599 94.6981 92.8999 91.9781C91.8899 90.0781 92.2599 88.2081 93.1899 86.3481C93.2299 88.1881 93.4699 90.0481 93.7899 91.8581C94.1199 93.7181 94.5799 95.5481 94.9899 97.3981C95.2299 98.4481 95.6699 99.8281 95.2099 100.678Z" fill="#FF6F00"/>
<path fill-rule="evenodd" clip-rule="evenodd" d="M98.8008 79.808C99.7808 79.128 99.9208 79.078 100.911 78.768C101.351 78.628 101.741 78.678 102.101 78.358C102.841 77.698 103.331 75.5681 103.751 74.6981C104.021 74.1381 104.341 73.588 104.511 72.998C102.821 74.768 101.541 77.258 98.8008 79.808Z" fill="#FF6F00"/>
<path fill-rule="evenodd" clip-rule="evenodd" d="M8.4707 121.888C10.0907 124.768 11.2907 129.228 14.2607 130.978C17.1007 132.648 20.0907 131.868 23.1407 131.338C26.4707 130.768 29.3507 132.278 32.5907 131.998C35.4607 131.738 37.8107 129.788 40.5207 129.068C38.3007 128.918 36.0607 129.978 33.9007 130.388C31.6907 130.808 29.5307 131.018 27.2807 131.198C24.6607 131.418 21.7607 131.278 19.1707 130.778C14.2807 129.838 9.6607 124.448 8.4707 121.888Z" fill="#FF6F00"/>
<path fill-rule="evenodd" clip-rule="evenodd" d="M43.1406 167.508C44.9306 168.868 46.7406 170.218 48.5806 171.508C49.1206 171.888 49.6306 172.308 50.3006 172.308C51.7506 172.318 53.7306 170.758 55.0306 170.198C57.7406 169.038 60.3506 168.008 63.3006 167.688C64.8806 167.518 65.7706 167.518 66.8906 166.318C68.8706 164.208 70.4706 161.778 72.1606 159.438C72.8706 158.448 72.6006 157.808 72.7606 156.548C73.0506 154.208 73.8006 151.938 74.1206 149.598C73.2606 151.248 72.7306 153.058 71.8506 154.708C70.8606 156.578 69.7806 158.488 68.7406 160.328C70.2306 161.348 67.4806 164.998 66.4506 165.528C65.3306 166.108 64.1606 165.968 64.2206 164.468C64.2706 163.348 65.1706 162.748 65.4706 161.788C64.0106 162.688 62.3806 163.798 60.5806 164.288C58.3106 164.908 56.0606 165.088 54.4106 166.868C53.2506 168.118 51.9806 169.958 50.0706 169.758C48.0706 169.558 46.1506 168.498 43.1406 167.508Z" fill="#FFC700"/>
<path fill-rule="evenodd" clip-rule="evenodd" d="M71.1699 135.858C71.3999 136.938 71.9799 137.788 72.4799 138.768C73.0399 139.868 73.5199 141.268 74.3999 142.178C75.3599 143.178 76.0299 141.968 77.1899 141.708C78.6899 141.358 78.6299 141.308 79.3999 139.718C80.3099 137.858 81.8199 135.978 82.4399 134.048C80.6199 135.098 79.5999 137.048 77.3799 137.568C75.1399 138.078 72.2599 136.688 71.1699 135.858Z" fill="#FFC700"/>
<path fill-rule="evenodd" clip-rule="evenodd" d="M73.7805 174.908C71.7705 175.068 69.8005 175.488 67.8105 175.768C68.3605 176.278 69.5805 176.398 70.3205 176.548C71.7605 176.838 73.1705 177.058 74.6305 177.198C76.7305 177.408 78.8806 177.508 80.9206 178.068C79.2106 176.158 75.9505 175.508 73.7805 174.908Z" fill="#FFC700"/>
<path fill-rule="evenodd" clip-rule="evenodd" d="M66.7905 132.418C67.8505 133.938 70.5405 135.468 71.7805 136.788C70.2405 135.808 69.6705 131.458 70.1705 129.598C70.2505 129.308 70.3505 129.068 70.4905 128.848C71.2805 127.568 72.2905 126.458 73.0105 125.098C73.8105 123.588 75.2505 121.558 75.0105 119.728C73.8605 122.318 72.7805 125.448 70.3805 127.088C69.4005 127.758 68.4805 128.218 67.2905 128.378C65.2905 128.638 64.0405 127.368 62.3205 126.658C60.6805 125.988 58.4605 127.058 57.3405 128.288C56.9505 128.718 56.7905 129.078 56.2705 129.208C55.7205 129.348 54.6505 129.128 54.2305 129.128C55.7505 129.128 57.2905 129.098 58.8005 129.148C59.7105 129.168 66.3405 131.768 66.7905 132.418Z" fill="#FFC700"/>
<path fill-rule="evenodd" clip-rule="evenodd" d="M93.5207 110.438C94.0307 112.458 95.0607 114.098 94.2807 116.118C93.4807 118.178 92.0507 119.938 91.2207 121.958C92.3307 121.098 92.6307 119.128 93.6207 118.018C94.4207 117.118 95.2407 116.158 96.0907 115.278C97.2907 114.018 96.5807 113.538 96.2007 111.868C95.8807 110.458 96.2907 108.218 94.9207 107.488C93.9807 106.988 92.1807 106.478 91.3107 107.288C91.8607 107.838 92.5507 109.388 93.5207 110.438Z" fill="#FFC700"/>
<path fill-rule="evenodd" clip-rule="evenodd" d="M106.211 173.058C107.711 171.238 109.371 169.378 111.661 168.578C112.561 168.268 113.441 167.788 114.271 167.268C115.721 166.358 115.851 165.388 116.531 163.948C117.111 162.708 118.071 161.818 119.061 160.938C119.011 161.428 118.761 161.938 118.621 162.418C118.351 163.328 118.171 164.208 117.771 165.078C117.331 166.028 116.181 166.388 115.331 166.948C112.341 168.918 108.831 170.048 106.211 173.058Z" fill="#FFC700"/>
<path fill-rule="evenodd" clip-rule="evenodd" d="M2.91016 108.248C4.92016 112.228 7.70016 116.118 10.5002 119.608C13.0702 122.818 16.3502 126.038 20.4102 127.258C33.3802 131.148 40.7602 125.808 42.7202 126.178C45.7402 126.758 57.1802 122.588 60.3702 123.288C61.2802 123.488 64.7402 123.678 65.7102 124.098C72.4302 126.958 75.1102 114.108 76.8402 110.638C77.8402 108.638 78.9702 106.808 80.7702 105.468C83.9302 103.108 89.6402 104.598 91.3602 100.668C93.3402 96.1581 89.2602 92.6881 90.0902 88.2581C90.8702 84.0481 95.8102 79.9681 98.8302 77.2681C101.37 74.9981 103.98 72.8181 105.9 70.0981C104.73 71.6581 104.09 73.5881 103.05 75.2381C101.62 77.5181 99.8102 79.2981 97.8502 81.1081C94.5602 84.1581 92.8202 87.0581 92.9702 91.6281C93.1102 95.8081 95.2002 99.9181 94.8302 104.038C94.6902 105.558 94.5702 106.258 93.1602 106.568C92.2002 106.778 90.9202 106.328 89.9002 106.388C88.5302 106.478 87.2702 106.878 85.9702 107.338C80.8302 109.168 77.3502 112.938 75.0402 117.898C73.5502 121.098 71.8402 129.158 67.6802 129.788C65.8202 130.068 63.5202 129.088 61.6402 128.918C58.7302 128.658 55.8202 128.488 52.9102 128.268C46.7502 127.808 40.9002 128.778 34.8602 129.948C30.4702 130.798 26.2202 132.098 21.7102 132.138C18.5602 132.168 17.1602 131.198 15.0002 128.948C12.6102 126.448 9.87016 123.928 8.55016 120.698C6.94016 116.778 5.16016 113.078 2.91016 108.248Z" fill="url(#paint14_linear_27_4653)"/>
<path fill-rule="evenodd" clip-rule="evenodd" d="M72.3603 135.358C72.1203 133.038 72.0603 133.768 72.9303 131.518C73.6503 129.638 73.9503 127.498 74.9003 125.738C76.7503 122.298 77.6604 118.998 79.9204 115.738C81.9704 112.788 86.3503 107.518 90.1003 111.118C92.5103 113.428 91.6303 117.768 91.7703 120.648C93.7803 117.498 94.9404 111.578 92.3404 108.448C88.5204 103.838 83.4203 106.368 80.5703 109.928C77.3503 113.948 75.7203 120.128 73.0503 124.528C71.8003 126.578 70.9003 128.608 70.6903 131.018C70.4603 134.028 71.8003 133.808 72.3603 135.358Z" fill="url(#paint15_linear_27_4653)"/>
<path fill-rule="evenodd" clip-rule="evenodd" d="M32.1992 163.968C38.4392 165.918 44.8592 166.498 51.1892 164.438C54.1792 163.468 57.2692 161.868 60.1292 160.568C65.2092 158.248 70.6092 154.518 71.7192 148.678C72.1192 146.568 72.3092 144.358 71.8892 142.228C71.5592 140.538 70.6192 138.948 70.3992 137.248C75.4292 141.108 74.4892 148.218 72.6192 153.518C70.4592 159.648 66.6392 163.268 60.6392 165.618C57.8392 166.718 54.2692 167.868 51.2692 168.308C49.1392 168.628 46.9892 168.118 44.9192 167.668C41.3992 166.898 37.6692 166.628 32.1992 163.968Z" fill="url(#paint16_linear_27_4653)"/>
<path fill-rule="evenodd" clip-rule="evenodd" d="M72.601 174.238C69.031 169.508 72.701 164.688 75.721 160.648C79.071 156.168 82.301 151.598 85.501 146.978C88.351 142.878 91.901 139.368 96.111 136.748C98.561 135.228 102.851 134.458 104.041 131.508C101.481 132.648 98.901 134.228 96.341 135.478C91.941 137.618 88.171 142.398 84.631 145.718C79.221 150.808 74.761 156.598 69.421 161.778C67.461 163.678 63.431 166.968 65.231 170.028C66.761 172.608 70.601 172.688 72.601 174.238Z" fill="url(#paint17_linear_27_4653)"/>
<path fill-rule="evenodd" clip-rule="evenodd" d="M61.3198 176.258C66.7198 171.268 57.6798 170.838 54.3498 173.038C52.1898 174.468 49.5198 177.348 46.8698 177.578C46.5898 173.018 43.3698 170.768 38.9498 169.678C32.1098 167.988 26.0098 170.518 19.5898 172.198C20.5498 170.348 22.8598 169.598 24.7798 169.188C28.5298 168.388 32.3598 167.698 36.1398 167.078C41.6598 166.168 49.8198 163.878 54.9298 167.168C57.1198 168.578 59.0698 167.788 61.2798 168.718C64.1698 169.928 65.0198 174.938 61.3198 176.258Z" fill="url(#paint18_linear_27_4653)"/>
<path fill-rule="evenodd" clip-rule="evenodd" d="M63.68 168.178C62.09 167.218 61.28 166.168 62.46 164.558C63.43 163.238 65.46 160.358 67.37 160.558C68.95 160.718 69.71 161.738 69.15 163.048C68.65 164.228 68.18 165.628 67.39 166.658C66.73 167.528 64.37 168.688 63.68 168.178Z" fill="#22111A"/>
<path fill-rule="evenodd" clip-rule="evenodd" d="M66.4601 169.858C65.4501 171.158 65.4901 173.268 66.5201 174.598C67.1201 175.378 68.5001 176.258 69.4001 175.448C70.4201 174.518 70.0901 172.298 69.5001 171.288C68.8401 170.168 67.7801 169.738 66.4601 169.858Z" fill="#22111A"/>
<path fill-rule="evenodd" clip-rule="evenodd" d="M65.4199 7.70822C65.4199 7.70822 81.0199 8.99823 84.6499 9.10823C88.2899 9.21823 91.7799 6.89823 91.7799 6.89823C91.7799 6.89823 83.0699 0.598232 79.0899 0.0282323C75.1099 -0.541768 65.4199 7.70822 65.4199 7.70822Z" fill="#695D64"/>
<path opacity="0.7" fill-rule="evenodd" clip-rule="evenodd" d="M72.2906 164.278C79.6006 148.808 81.1506 126.288 95.6106 115.858C97.3006 114.638 99.1606 113.108 101.041 112.208C102.411 111.548 104.131 111.488 105.551 110.798C110.831 108.248 106.181 102.248 105.531 97.9182C103.781 86.1782 109.281 80.2382 119.451 76.7182C124.561 74.9482 125.291 71.5182 126.141 66.3282C127.541 57.8582 127.711 48.7082 126.781 40.1782C126.171 34.6082 124.991 28.8882 123.391 23.6382C125.201 32.1182 127.861 41.1982 123.961 49.6782C120.981 56.1482 117.941 53.7082 113.111 55.9482C108.371 58.1382 107.951 63.9782 104.291 67.0182C100.391 70.2582 96.0206 71.7082 92.5106 76.2182C88.8106 80.9682 85.8306 87.4282 87.9506 93.4682C89.1106 96.7782 93.9406 99.3582 94.6706 102.288C95.4806 105.508 92.3606 108.668 91.2706 111.928C90.0006 115.738 89.2506 118.928 86.6906 122.138C84.4606 124.928 82.3706 127.238 80.5906 130.398C76.2106 138.198 73.3706 147.058 72.2406 155.918C71.9106 158.548 71.8706 162.818 72.2906 164.278Z" fill="url(#paint19_linear_27_4653)"/>
<defs>
<linearGradient id="paint0_linear_27_4653" x1="68.1645" y1="189.736" x2="97.6301" y2="6.49205" gradientUnits="userSpaceOnUse">
<stop stop-color="#1E0B21"/>
<stop offset="0.9904" stop-color="#24172A"/>
</linearGradient>
<linearGradient id="paint1_linear_27_4653" x1="141.812" y1="180.624" x2="143.879" y2="155.879" gradientUnits="userSpaceOnUse">
<stop stop-color="#1E0B21"/>
<stop offset="0.9904" stop-color="#24172A"/>
</linearGradient>
<linearGradient id="paint2_linear_27_4653" x1="50.699" y1="95.443" x2="58.632" y2="0.498288" gradientUnits="userSpaceOnUse">
<stop stop-color="#432F47"/>
<stop offset="0.9904" stop-color="#4F4055"/>
</linearGradient>
<linearGradient id="paint3_linear_27_4653" x1="85.2449" y1="24.1043" x2="87.1969" y2="0.741994" gradientUnits="userSpaceOnUse">
<stop stop-color="#5F4A63"/>
<stop offset="0.9904" stop-color="#594B60"/>
</linearGradient>
<linearGradient id="paint4_linear_27_4653" x1="38.9999" y1="67.3258" x2="43.5703" y2="12.6256" gradientUnits="userSpaceOnUse">
<stop stop-color="#301D33"/>
<stop offset="0.9904" stop-color="#423449"/>
</linearGradient>
<linearGradient id="paint5_linear_27_4653" x1="37.5857" y1="87.8857" x2="41.9296" y2="35.897" gradientUnits="userSpaceOnUse">
<stop stop-color="#301D33"/>
<stop offset="0.9904" stop-color="#423449"/>
</linearGradient>
<linearGradient id="paint6_linear_27_4653" x1="71.4851" y1="73.7578" x2="72.3156" y2="63.8187" gradientUnits="userSpaceOnUse">
<stop offset="0.00959658" stop-color="#24172A"/>
<stop offset="1" stop-color="#1E0B21"/>
</linearGradient>
<linearGradient id="paint7_linear_27_4653" x1="97.4525" y1="55.6334" x2="98.6211" y2="41.6473" gradientUnits="userSpaceOnUse">
<stop offset="0.00959658" stop-color="#24172A"/>
<stop offset="1" stop-color="#1E0B21"/>
</linearGradient>
<linearGradient id="paint8_linear_27_4653" x1="42.2839" y1="151.347" x2="34.8358" y2="137.338" gradientUnits="userSpaceOnUse">
<stop offset="0.00959658" stop-color="#24172A"/>
<stop offset="1" stop-color="#1E0B21"/>
</linearGradient>
<linearGradient id="paint9_linear_27_4653" x1="49.2005" y1="167.646" x2="58.988" y2="50.506" gradientUnits="userSpaceOnUse">
<stop stop-color="#FF3800"/>
<stop offset="0.6328" stop-color="#FF1400"/>
<stop offset="1" stop-color="#FF0400"/>
</linearGradient>
<linearGradient id="paint10_linear_27_4653" x1="79.0367" y1="139.44" x2="82.068" y2="103.161" gradientUnits="userSpaceOnUse">
<stop stop-color="#FF3800"/>
<stop offset="0.6328" stop-color="#FF1400"/>
<stop offset="1" stop-color="#FF0400"/>
</linearGradient>
<linearGradient id="paint11_linear_27_4653" x1="90.2467" y1="159.394" x2="93.4189" y2="121.429" gradientUnits="userSpaceOnUse">
<stop stop-color="#FF3800"/>
<stop offset="0.6328" stop-color="#FF1400"/>
<stop offset="1" stop-color="#FF0400"/>
</linearGradient>
<linearGradient id="paint12_linear_27_4653" x1="87.4783" y1="180.79" x2="89.7903" y2="153.118" gradientUnits="userSpaceOnUse">
<stop stop-color="#FF3800"/>
<stop offset="0.6328" stop-color="#FF1400"/>
<stop offset="1" stop-color="#FF0400"/>
</linearGradient>
<linearGradient id="paint13_linear_27_4653" x1="49.2112" y1="177.967" x2="52.0048" y2="144.532" gradientUnits="userSpaceOnUse">
<stop stop-color="#FF3800"/>
<stop offset="0.6328" stop-color="#FF1400"/>
<stop offset="1" stop-color="#FF0400"/>
</linearGradient>
<linearGradient id="paint14_linear_27_4653" x1="50.6111" y1="134.626" x2="56.3483" y2="65.961" gradientUnits="userSpaceOnUse">
<stop stop-color="#FF3800"/>
<stop offset="0.6328" stop-color="#FF1400"/>
<stop offset="1" stop-color="#FF0400"/>
</linearGradient>
<linearGradient id="paint15_linear_27_4653" x1="81.1376" y1="136.093" x2="83.6842" y2="105.614" gradientUnits="userSpaceOnUse">
<stop stop-color="#FF3800"/>
<stop offset="0.6328" stop-color="#FF1400"/>
<stop offset="1" stop-color="#FF0400"/>
</linearGradient>
<linearGradient id="paint16_linear_27_4653" x1="52.0348" y1="168.637" x2="54.766" y2="135.948" gradientUnits="userSpaceOnUse">
<stop stop-color="#FF3800"/>
<stop offset="0.6328" stop-color="#FF1400"/>
<stop offset="1" stop-color="#FF0400"/>
</linearGradient>
<linearGradient id="paint17_linear_27_4653" x1="82.3212" y1="175.05" x2="86.0847" y2="130.008" gradientUnits="userSpaceOnUse">
<stop stop-color="#FF3800"/>
<stop offset="0.6328" stop-color="#FF1400"/>
<stop offset="1" stop-color="#FF0400"/>
</linearGradient>
<linearGradient id="paint18_linear_27_4653" x1="41.3069" y1="177.118" x2="42.3262" y2="164.919" gradientUnits="userSpaceOnUse">
<stop stop-color="#FF3800"/>
<stop offset="0.6328" stop-color="#FF1400"/>
<stop offset="1" stop-color="#FF0400"/>
</linearGradient>
<linearGradient id="paint19_linear_27_4653" x1="99.6761" y1="164.283" x2="99.6761" y2="23.6429" gradientUnits="userSpaceOnUse">
<stop stop-color="#42478B"/>
<stop offset="0.4441" stop-color="#252217"/>
<stop offset="0.9904"/>
</linearGradient>
</defs>
</svg>
