<svg width="80" height="70" viewBox="0 0 80 70" fill="none" xmlns="http://www.w3.org/2000/svg">
<path fill-rule="evenodd" clip-rule="evenodd" d="M79.3889 40.4121C72.1943 56.0121 8.58492 76.6361 2.56666 63.1801C2.56666 63.1801 -2.20699 34.9721 1.27098 24.7481C4.74896 14.5241 19.4621 -0.931937 24.0483 0.0440629C27.2705 0.732063 51.7868 9.40407 69.2278 23.4041C76.9169 29.5641 81.5712 35.6601 79.3889 40.4121Z" fill="url(#paint0_linear_599_1004)"/>
<path fill-rule="evenodd" clip-rule="evenodd" d="M79.387 40.4128C72.1924 56.0128 8.58297 76.6368 2.56471 63.1808C2.56471 63.1808 -2.20894 34.9728 1.26903 24.7488C1.26903 24.7488 6.48598 40.5248 12.9305 43.2608C19.3579 45.9968 69.4816 30.1568 69.2259 23.4368V23.4048C76.9149 29.5648 81.5692 35.6608 79.387 40.4128Z" fill="#D07CAF"/>
<g opacity="0.5">
<path fill-rule="evenodd" clip-rule="evenodd" d="M10.3594 67.2924C10.3594 67.2924 11.1436 51.5964 13.8374 48.7164C16.5311 45.8204 67.1663 29.0044 67.1663 29.0044C67.1663 29.0044 79.8336 35.5644 79.3903 40.4124C78.947 45.2604 51.8734 65.9644 10.3594 67.2924Z" fill="#FFA8CE"/>
</g>
<g opacity="0.5">
<path fill-rule="evenodd" clip-rule="evenodd" d="M3.60548 22.1562C1.7642 26.1562 13.5109 38.2202 20.2111 39.9642C26.9113 41.7082 61.4012 28.4922 61.8445 23.4202C62.2707 18.3322 28.7696 3.70819 21.6432 4.81219C14.5167 5.90019 3.60548 22.1562 3.60548 22.1562Z" fill="#A17DBD"/>
</g>
<path fill-rule="evenodd" clip-rule="evenodd" d="M2.56445 63.1808C2.56445 63.1808 31.6839 68.9088 51.3584 58.8928C71.0328 48.8768 76.9488 43.8848 76.9488 43.8848C76.9488 43.8848 75.0393 51.6928 46.8404 63.1328C18.6416 74.5888 4.49098 67.5328 2.56445 63.1808Z" fill="#CA154E"/>
<defs>
<linearGradient id="paint0_linear_599_1004" x1="36.9456" y1="69.4265" x2="42.2747" y2="1.46499" gradientUnits="userSpaceOnUse">
<stop stop-color="#50193D"/>
<stop offset="0.9904" stop-color="#571A3E"/>
</linearGradient>
</defs>
</svg>
