<svg width="733" height="588" viewBox="0 0 733 588" fill="none" xmlns="http://www.w3.org/2000/svg">
<path opacity="0.5" d="M331.771 587.764C515.004 587.764 663.543 568.652 663.543 545.076C663.543 521.5 515.004 502.388 331.771 502.388C148.539 502.388 0 521.5 0 545.076C0 568.652 148.539 587.764 331.771 587.764Z" fill="url(#paint0_radial_600_782)"/>
<path fill-rule="evenodd" clip-rule="evenodd" d="M558.62 213.46L531.836 170.756C531.836 170.756 535.007 164.788 540.071 154.74C550.811 133.46 570.094 93.9403 585.506 54.7403C586.29 52.7243 590.484 58.3722 594.593 69.0922L594.661 69.1883C605.743 98.1323 616.296 163.604 558.62 213.46Z" fill="url(#paint1_linear_600_782)"/>
<path fill-rule="evenodd" clip-rule="evenodd" d="M581.14 267.108L564.586 225.204C564.586 225.204 571.303 217.332 579.879 204.788C589.631 190.516 601.855 170.228 609.459 148.676C610.686 145.172 613.226 149.204 615.119 157.86L615.153 157.892C620.285 180.9 621.001 236.228 581.14 267.108Z" fill="url(#paint2_linear_600_782)"/>
<g opacity="0.7">
<path fill-rule="evenodd" clip-rule="evenodd" d="M558.62 213.461L531.836 170.757C531.836 170.757 535.007 164.789 540.071 154.741C540.071 154.741 571.543 185.381 591.115 152.901C610.278 121.045 595.173 71.0288 594.593 69.0928L594.661 69.1888C605.743 98.1328 616.296 163.605 558.62 213.461Z" fill="url(#paint3_linear_600_782)"/>
</g>
<g opacity="0.7">
<path fill-rule="evenodd" clip-rule="evenodd" d="M581.14 267.109L564.586 225.205C564.586 225.205 571.303 217.333 579.879 204.789L573.383 218.341C573.383 218.341 582.351 255.749 601.377 230.949C620.404 206.165 615.119 157.877 615.119 157.877L615.153 157.909C620.285 180.901 621.001 236.229 581.14 267.109Z" fill="url(#paint4_linear_600_782)"/>
</g>
<path fill-rule="evenodd" clip-rule="evenodd" d="M202.348 461.621C202.348 461.621 180.662 471.077 160.322 476.869C150.877 479.605 141.739 481.509 135.175 481.301C135.175 481.301 84.3868 449.525 94.0023 408.309C94.2581 407.237 97.395 410.149 102.97 415.061V415.093C114.461 425.317 136.318 444.245 164.278 454.533C175.99 458.821 188.794 461.621 202.348 461.621Z" fill="url(#paint5_linear_600_782)"/>
<path fill-rule="evenodd" clip-rule="evenodd" d="M557.138 469.908C533.832 488.868 524.012 472.676 520.466 463.044C519.255 459.684 518.795 457.124 518.795 457.124C518.795 457.124 521.386 454.66 525.546 450.436C530.201 445.716 536.781 438.788 543.72 430.756H543.754C552.876 420.26 562.628 407.844 569.566 395.924C570.777 393.844 571.902 391.796 572.925 389.78C574.528 386.612 588.559 444.324 557.138 469.908Z" fill="url(#paint6_linear_600_782)"/>
<path fill-rule="evenodd" clip-rule="evenodd" d="M110.164 235.156L106.908 243.156L100.139 259.684C100.139 259.684 88.6823 261.284 70.0478 233.38C48.8049 201.556 54.0048 175.924 56.8179 175.604C57.5851 175.524 60.1765 178.356 64.0807 183.028V183.06C74.0884 195.076 91.9556 218.212 110.164 235.156Z" fill="url(#paint7_linear_600_782)"/>
<path fill-rule="evenodd" clip-rule="evenodd" d="M156.181 197.653L115.366 226.693C115.366 226.693 86.2637 198.277 79.5635 141.893C74.0056 95.0126 86.9286 64.7886 97.5841 50.0206C102.801 42.7086 107.268 39.5726 108.461 39.7646C111.701 40.3246 116.986 130.181 144.298 180.085C147.827 186.501 151.748 192.437 156.181 197.653Z" fill="url(#paint8_linear_600_782)"/>
<g opacity="0.7">
<path fill-rule="evenodd" clip-rule="evenodd" d="M557.137 469.907C533.831 488.867 524.011 472.676 520.465 463.044L525.528 450.436C530.183 445.716 536.764 438.787 543.702 430.755H543.737C532.911 442.755 559.132 449.827 568.935 434.179C576.794 421.635 571.85 402.948 569.532 395.94C570.742 393.86 571.867 391.812 572.89 389.796C574.527 386.612 588.558 444.323 557.137 469.907Z" fill="url(#paint9_linear_600_782)"/>
</g>
<g opacity="0.7">
<path fill-rule="evenodd" clip-rule="evenodd" d="M156.179 197.653L115.364 226.693C115.364 226.693 86.2618 198.277 79.5615 141.893C74.0036 95.013 86.9266 64.789 97.5822 50.021C94.1042 64.341 77.277 138.837 100.532 175.829C120.138 206.965 139.591 185.941 144.296 180.069C147.825 186.501 151.747 192.437 156.179 197.653Z" fill="url(#paint10_linear_600_782)"/>
</g>
<g opacity="0.7">
<path fill-rule="evenodd" clip-rule="evenodd" d="M106.909 243.156L100.141 259.684C100.141 259.684 88.6842 261.284 70.0498 233.38C48.8069 201.556 54.0068 175.924 56.8198 175.604C57.587 175.524 60.1785 178.356 64.0827 183.028V183.06C64.0827 183.06 59.6841 223.956 77.5683 237.652C88.1046 245.7 99.5614 244.948 106.909 243.156Z" fill="url(#paint11_linear_600_782)"/>
</g>
<g opacity="0.7">
<path fill-rule="evenodd" clip-rule="evenodd" d="M164.276 454.517L160.321 476.869C150.875 479.605 141.737 481.509 135.173 481.301C135.173 481.301 84.3848 449.525 94.0004 408.309C94.2561 407.237 97.3931 410.149 102.968 415.061V415.093C89.9598 415.685 103.48 455.365 121.517 460.677C139.538 465.989 164.276 454.517 164.276 454.517Z" fill="url(#paint12_linear_600_782)"/>
</g>
<g opacity="0.5">
<path fill-rule="evenodd" clip-rule="evenodd" d="M64.4034 517.893C18.4567 524.277 179.313 558.469 352.376 558.469C536.095 558.469 628.193 533.381 637.604 521.669C647.032 509.909 307.248 484.165 64.4034 517.893Z" fill="#8D55AC"/>
</g>
<path fill-rule="evenodd" clip-rule="evenodd" d="M468.737 435.349C461.201 444.341 454.689 450.581 450.87 454.005C448.551 456.069 447.204 457.125 447.204 457.125C446.676 457.013 446.13 456.869 445.585 456.757C367.808 439.477 227.12 457.109 211.06 459.221C210.037 459.365 209.509 459.445 209.509 459.445C167.534 444.869 148.593 394.709 147.331 337.621C145.882 272.021 167.79 196.149 206.116 154.005C215.271 143.909 225.381 135.749 236.361 130.133C360.425 66.5487 511.649 157.941 519.679 276.661C524.879 353.989 491.889 407.765 468.737 435.349Z" fill="url(#paint13_linear_600_782)"/>
<path opacity="0.6" fill-rule="evenodd" clip-rule="evenodd" d="M226.131 253.124C179.247 273.028 161.635 330.468 193.517 368.948C212.236 391.556 244.51 392.004 269.81 376.596C276.834 372.324 279.204 368.788 286.024 368.884C291.786 368.964 292.315 369.588 293.406 373.14C294.412 376.388 291.531 382.676 292.349 386.676C294.651 398.052 304.863 406.82 314.53 412.308C362.539 439.508 430.973 404.932 431.826 348.132C437.674 348.148 442.499 349.764 448.466 347.652C462.463 342.676 468.873 329.284 473.016 316.644C489.639 265.828 473.527 214.436 426.796 189.044C384.242 165.924 324.486 163.124 278.931 185.732C258.814 195.716 235.355 215.876 230.956 238.788L226.131 253.124Z" fill="url(#paint14_linear_600_782)"/>
<path opacity="0.6" fill-rule="evenodd" clip-rule="evenodd" d="M281.812 262.837C259.358 277.877 243.588 311.333 261.558 333.861C271.77 346.661 284.795 346.501 299.151 350.421C297.446 361.349 296.798 371.029 301.213 381.557C313.608 411.141 348.729 405.701 371.864 387.797C384.702 377.861 395.272 364.533 405.45 352.005C407.275 349.749 413.293 338.949 416.447 338.213C419.789 337.429 424.784 341.493 428.995 341.381C448.976 340.885 459.291 318.869 457.433 303.109C453.716 271.701 427.819 244.245 402.842 227.285C364.039 200.901 290.046 193.301 281.812 262.837Z" fill="url(#paint15_linear_600_782)"/>
<path fill-rule="evenodd" clip-rule="evenodd" d="M282.461 235.285C286.774 234.293 295.401 233.637 299.578 235.717C303.295 237.557 305.903 238.709 304.966 244.421C327.146 236.645 346.07 237.269 366.341 247.525C365.83 237.861 378.668 219.173 389.767 225.205C390.926 225.829 390.909 230.549 391.915 231.989C394.813 236.165 399.041 236.997 398.888 243.013C407.122 244.821 413.84 247.653 421.051 250.373C434.23 255.365 446.949 256.549 453.512 270.469C458.252 280.549 455.251 290.725 455.592 301.237C475.045 300.757 465.293 327.893 465.464 337.893C465.566 344.965 466.777 346.853 469.999 353.125C474.466 361.781 476.597 369.125 476.545 379.141C476.477 388.181 472.011 395.365 471.158 403.701C469.982 415.125 474.943 422.981 468.873 435.109C468.839 435.205 468.788 435.285 468.737 435.365C491.872 407.781 524.879 353.989 519.662 276.661C511.632 157.941 360.408 66.5487 236.344 130.133C225.364 135.749 215.254 143.909 206.099 154.005C207.702 154.901 209.679 155.845 211.862 156.933C233.07 167.525 247.085 199.205 233.991 223.221C231.877 227.093 228.569 227.461 228.586 232.437C228.586 236.421 234.468 242.725 236.258 246.213C213.583 255.061 192.852 249.717 174.712 270.885C161.431 286.341 143.819 315.525 149.855 336.085C148.951 336.549 148.099 337.077 147.314 337.637C148.576 394.741 167.517 444.885 209.492 459.461C209.492 459.461 210.02 459.381 211.043 459.237C187.823 447.221 169.819 415.189 166.563 393.685C165.54 386.853 164.602 372.805 171.473 367.685C173.996 365.797 176.502 367.253 178.736 365.973C183.049 363.477 188.147 359.061 192.613 355.813C176.98 345.989 184.771 319.397 191.556 305.317C197.234 293.557 203.405 284.437 215.186 278.821C222.278 275.445 227.137 274.805 234.161 274.869C240.725 274.917 246.027 273.013 251.449 277.557C253.631 279.381 255.711 281.589 257.706 283.525C258.132 283.301 259.223 282.437 259.701 281.973C255.865 273.765 250.085 268.981 252.438 258.325C255.677 243.637 268.941 238.389 282.461 235.285Z" fill="#FFAB00"/>
<path fill-rule="evenodd" clip-rule="evenodd" d="M183.322 430.132C188.659 437.636 193.091 443.588 202.195 446.676C206.185 448.036 210.464 450.116 213.703 447.812C216.09 446.132 218.699 443.412 221.665 441.892C228.894 438.164 238.851 437.108 246.898 437.396C246.369 446.196 258.048 442.804 263.299 443.636C266.35 444.116 268.822 446.1 272.42 444.788C275.216 443.78 275.625 441.188 277.79 440.34C281.575 438.852 290.935 441.956 294.805 443.156C296.305 443.62 297.754 444.356 299.357 444.644C306.535 445.94 314.445 443.22 321.503 445.556C313.576 445.604 306.108 446.708 298.334 447.588C295.368 447.924 292.844 447.156 289.69 446.788C287.457 446.532 275.216 445.14 275.284 449.06C275.301 450.628 278.949 451.556 279.427 451.652C270.954 450.644 262.548 449.076 253.956 450.02C247.903 450.692 242.55 449.14 236.378 449.46C230.582 449.764 224.581 450.196 219.347 452.756C218.631 453.108 218.119 454.036 217.369 454.404C214.795 455.684 207.259 456.692 211.913 460.804C207.702 459.572 203.9 460.9 201.087 457.716C198.854 455.188 197.422 451.62 195.512 448.836C192.034 443.828 186.885 440.132 183.322 430.132Z" fill="#FFC400"/>
<path fill-rule="evenodd" clip-rule="evenodd" d="M446.129 457.077C454.892 442.949 423.624 446.405 417.606 445.013C405.689 442.277 392.493 442.613 380.337 442.821C374.54 442.917 368.761 443.701 363.015 443.813C361.975 443.829 360.935 443.781 360.049 443.429C365.095 444.053 370.04 442.885 374.916 441.861C381.548 440.469 389.032 443.781 395.153 439.797C398.989 437.317 401.546 435.029 406.371 433.925C408.451 433.445 410.701 433.013 412.815 433.141C407.939 443.221 428.279 439.557 432.916 438.853C435.235 438.501 444.287 439.701 442.412 435.957C443.418 436.021 444.475 436.325 445.464 436.597C445.549 438.501 454.432 442.197 457.824 440.197C460.313 438.725 463.195 438.469 465.223 436.069C462.479 442.101 459.222 448.805 454.108 453.365C451.84 455.381 447.97 456.485 446.129 457.077Z" fill="#FFC400"/>
<path fill-rule="evenodd" clip-rule="evenodd" d="M182.059 358.965C185.895 365.173 186.355 367.589 193.618 368.885C200.676 370.149 207.751 368.805 214.537 366.181C237.416 357.349 252.743 334.261 275.759 324.101C292.075 316.901 313.778 314.997 326.974 327.781C334.22 334.805 338.874 345.765 342.318 355.125C352.616 383.173 306.567 397.141 289.16 379.317C282.442 372.437 275.589 348.757 291.427 345.733C294.326 345.173 297.377 346.469 299.628 347.893C296.849 340.037 284.437 342.629 279.732 347.605C268.582 359.397 277.174 390.437 286.517 400.053C296.167 409.973 304.862 400.693 316.557 398.885C328.048 397.109 339.352 400.677 350.86 399.829C353.434 392.853 351.746 384.085 352.445 376.741C353.911 361.541 357.798 346.613 356.128 331.349C351.883 292.629 316.898 294.133 285.937 303.141C271.207 307.429 258.08 310.021 243.23 307.669C231.057 305.733 220.657 304.597 210.326 313.525C204.154 318.853 199.534 326.517 195.698 333.509C193.481 337.557 191.453 345.989 187.77 348.853C185.298 350.805 182.621 351.429 182.059 358.965Z" fill="#FFD900"/>
<path fill-rule="evenodd" clip-rule="evenodd" d="M242.906 267.028C247.203 274.356 252.726 286.068 259.614 291.06C267.883 297.06 279.885 292.42 289.177 290.02C307.453 285.316 334.101 279.588 349.496 293.06C355.906 298.66 359.214 306.708 363.936 313.54C368.898 320.708 377.575 326.148 377.763 335.828C378.019 348.5 368.386 363.316 365.948 376.004C364.073 385.748 361.839 395.7 360.646 405.428C350.246 408.516 339.13 409.748 328.56 411.892C314.154 414.82 297.241 422.804 282.681 419.588C269.946 416.772 260.637 405.012 259.836 392.452C259.307 384.004 263.007 377.604 266.007 370.02C257.466 379.092 253.374 391.252 255.267 403.78C258.847 427.524 279.988 427.028 300.463 425.908C310.249 425.38 319.848 424.18 329.651 425.188C334.749 425.716 341.926 428.676 347.058 426.852C352.496 424.932 351.968 422.02 355.054 416.228C359.742 407.476 364.414 397.684 371.046 389.988C375.922 384.324 384.037 380.564 386.424 373.364C389.953 362.692 385.964 346.356 385.605 335.54C384.855 312.932 381.377 288.276 356.997 280.308C338.516 274.26 319.03 278.964 300.003 277.828C285.904 276.98 273.253 273.316 262.018 265.556C255.386 260.964 248.942 255.316 242.906 267.028Z" fill="#FFD900"/>
<path fill-rule="evenodd" clip-rule="evenodd" d="M309.021 233.156C311.016 263.988 343 262.452 367.073 271.876C376.859 275.7 387.855 280.26 392.254 290.196C395.203 296.868 394.709 304.996 395.664 312.164C398.153 330.932 406.115 348.164 408.655 366.804C410.939 383.524 396.226 394.516 384.974 405.62C378.956 411.572 373.278 421.428 366.783 425.716C362.282 428.692 353.553 430.324 348.336 431.412C340.374 433.06 332.89 431.572 324.962 431.348C308.186 430.852 290.353 434.02 274.975 426.516C254.465 416.516 249.623 393.732 260.278 374.068C270.099 355.924 287.983 348.948 307.725 347.604C304.793 332.996 271.94 351.476 266.996 356.004C251.379 370.276 244.576 394.644 253.953 413.172C263.586 432.228 288.358 436.98 308.459 437.108C325.866 437.22 345.216 436.02 362.81 433.94C375.768 432.404 381.121 419.508 388.657 409.764C399.414 395.86 414.827 388.244 417.248 369.892C418.987 356.644 415.594 343.188 411.332 330.98C406.132 316.068 404.7 301.396 401.341 286.02C393.822 251.636 359.588 236.58 326.462 231.508L309.021 233.156Z" fill="#FFD900"/>
<path fill-rule="evenodd" clip-rule="evenodd" d="M463.52 284.148C461.508 303.38 457.467 321.3 451.637 340.036C448.125 351.332 448.619 368.836 438.322 376.708C429.746 383.252 422.296 386.26 415.919 395.236C412.595 399.924 408.656 405.092 405.98 410.004C393.534 410.708 384.873 423.028 374.132 427.86C343.7 441.54 296.1 446.356 268.634 428.052C246.692 413.428 232.098 383.764 252.557 360.244C265.753 345.076 291.582 336.452 308.835 347.7C303.55 335.428 274.533 342.564 265.855 345.524C246.198 352.244 225.483 369.748 230.342 391.764C233.479 406.004 242.157 417.94 254.125 425.892C258.336 428.692 260.655 430.548 263.639 434.404C268.821 441.124 271.481 442.34 281.506 441.764C306.772 440.292 330.828 434.884 356.828 435.828C364.193 436.084 375.053 438.82 382.333 435.908C388.863 433.3 393.5 425.284 398.205 420.452C405.826 412.644 413.652 404.516 423.336 398.868C432.695 393.396 441.288 392.836 451.347 390.468C468.225 386.5 470.663 359.588 471.243 345.972C471.993 328.836 475.556 296.788 463.52 284.148Z" fill="#FFD900"/>
<path fill-rule="evenodd" clip-rule="evenodd" d="M249.317 146.036C236.667 145.028 237.69 162.308 241.253 169.908C241.833 171.124 243.487 173.012 243.435 174.436C243.384 175.636 241.645 178.068 241.321 179.524C239.02 189.86 244.373 199.268 241.731 209.38C240.367 214.612 239.327 219.94 240.128 225.22C240.827 229.956 242.907 237.06 248.26 238.292C253.375 239.46 259.7 235.492 264.235 233.284C271.31 229.828 278.88 225.476 286.671 224.1C294.463 222.724 294.429 227.908 298.947 232.084C301.64 234.564 305.34 236.804 309.295 236.548C315.177 236.18 320.565 231.588 326.429 230.532C330.317 229.828 333.624 231.076 337.392 231.012C341.927 230.932 343.819 224.836 346.07 221.508C349.889 215.844 354.355 210.964 359.743 206.628C363.92 203.268 368.745 200.5 371.814 196.004C381.003 182.548 370.671 168.1 360.97 159.924C346.666 147.86 327.93 141.524 309.005 139.348C301.282 138.468 293.457 138.052 285.648 138.18C282.75 138.228 279.784 138.34 276.885 138.58C269.776 139.156 265.088 142.724 258.899 146.724L249.317 146.036Z" fill="#FFFF00"/>
<path fill-rule="evenodd" clip-rule="evenodd" d="M238.681 230.965C236.703 231.269 236.038 230.997 235.101 232.485C234.078 234.133 234.862 236.453 235.493 237.909C236.772 240.885 238.817 243.525 239.857 246.613C238.511 247.397 236.55 247.525 234.964 247.989C231.128 249.141 227.207 250.629 223.61 252.437C219.365 254.565 207.891 261.845 210.823 267.957C213.057 272.613 224.479 270.181 228.571 269.973C232.97 269.749 237.232 269.925 241.579 270.469C243.25 270.677 245.023 271.285 246.728 271.125C246.217 267.461 245.535 263.989 245.552 260.213C245.569 257.365 245.825 254.549 246.677 251.749C247.137 250.213 248.246 248.853 248.706 247.429C249.217 245.861 249.456 246.213 248.552 244.469C246.353 240.229 241.46 238.341 238.681 230.965Z" fill="#FFFF00"/>
<path fill-rule="evenodd" clip-rule="evenodd" d="M180.082 318.773C178.036 329.077 177.235 338.837 182.247 348.181C183.85 351.173 188.266 355.029 186.169 358.501C181.975 365.429 171.66 365.909 167.279 373.109C165.147 376.613 164.073 380.773 163.749 384.773C163.579 386.885 164.107 389.253 163.477 391.317C160.084 386.533 158.72 378.885 157.254 373.237C154.134 361.365 152.463 348.837 154.066 336.405C156.828 314.917 170.552 286.693 195.529 286.021C195.75 289.365 191.676 293.941 190.039 296.597C184.6 305.397 180.679 315.237 179.861 325.381L180.082 318.773Z" fill="#FFFF00"/>
<path fill-rule="evenodd" clip-rule="evenodd" d="M446.368 249.268C439.89 254.116 449.966 263.909 452.625 267.845C456.529 273.637 459.564 278.9 458.32 286.212C457.893 288.708 455.012 294.66 456.206 296.708C456.598 297.396 458.678 297.893 459.325 298.277C460.809 299.125 462.275 300.228 463.519 301.348C466.776 304.308 468.907 308.261 469.691 312.581C470.544 317.333 469.521 321.092 468.753 325.716C466.98 336.548 468.617 347.893 473.271 357.493C474.874 360.805 476.187 364.597 478.352 367.445C482.137 372.453 483.739 376.853 485.41 382.789C482.938 370.677 486.28 356.085 489.996 344.181C492.332 336.741 495.469 329.22 499.919 322.548C501.027 320.884 502.766 319.172 503.175 317.316C496.492 317.972 491.412 323.172 484.285 321.012C471.72 317.22 471.328 300.581 476.425 290.533C478.744 285.957 481.063 283.397 486.246 281.973C488.615 281.317 492.076 281.844 493.474 279.892C494.395 278.596 493.168 274.756 492.98 273.54C492.486 270.484 492.042 267.429 491.701 264.357C491.19 259.653 491.787 253.749 489.366 249.573C484.387 240.981 469.981 237.845 460.57 236.101C457.91 235.605 449.284 233.7 446.59 236.068C443.862 238.452 446.249 249.252 446.368 249.268Z" fill="#FFFF00"/>
<path fill-rule="evenodd" clip-rule="evenodd" d="M445.568 456.757C447.393 455.893 449.149 454.997 450.853 454.005C448.535 456.069 447.188 457.125 447.188 457.125C446.677 457.013 446.131 456.885 445.568 456.757Z" fill="#FFF957"/>
<path fill-rule="evenodd" clip-rule="evenodd" d="M617.642 522.18C617.642 522.18 411.402 572.788 90.7461 522.1C90.7461 522.1 91.3257 513.573 92.9113 504.693C94.4627 495.941 96.986 486.868 100.873 485.38C108.716 482.356 582.197 478.372 593.859 479.076C601.565 479.556 609.407 498.005 613.891 510.597C616.21 517.189 617.642 522.18 617.642 522.18Z" fill="url(#paint16_linear_600_782)"/>
<path fill-rule="evenodd" clip-rule="evenodd" d="M100.855 485.381C95.8259 485.701 161.805 511.573 336.829 511.333C522.764 511.077 595.137 485.429 593.858 479.077C592.562 472.725 276.05 474.485 100.855 485.381Z" fill="url(#paint17_linear_600_782)"/>
<path fill-rule="evenodd" clip-rule="evenodd" d="M121.52 485.988C121.52 485.988 130.538 455.764 136.608 453.172C142.694 450.58 535.296 443.684 544.11 444.26C552.959 444.82 563.495 478.372 563.495 478.372C563.495 478.372 416.005 520.596 121.52 485.988Z" fill="url(#paint18_linear_600_782)"/>
<path fill-rule="evenodd" clip-rule="evenodd" d="M136.608 453.188C132.704 453.476 195.717 474.82 330.556 473.876C471.789 472.884 545.082 449.604 544.111 444.26C543.139 438.932 271.652 443.38 136.608 453.188Z" fill="#BE3646"/>
<path fill-rule="evenodd" clip-rule="evenodd" d="M164.604 329.045C150.368 417.237 209.511 459.445 209.511 459.445L199.435 462.181C199.418 462.165 199.384 462.149 199.366 462.149C196.553 460.885 104.609 419.301 111.002 345.605C117.054 275.925 164.979 203.669 252.065 179.077C260.231 195.861 266.062 211.861 266.693 219.973C225.4 229.397 182.931 252.069 167.86 313.221C166.496 318.645 165.439 323.925 164.604 329.045Z" fill="url(#paint19_linear_600_782)"/>
<path fill-rule="evenodd" clip-rule="evenodd" d="M518.896 316.724C515.179 434.308 453.599 460.66 453.599 460.66L447.222 457.14C521.862 380.884 465.038 280.5 465.038 280.5C465.038 280.5 485.872 264.932 479.973 258.148C474.057 251.364 456.088 255.988 456.088 255.988L450.513 256.1C450.513 256.1 417.864 203.444 337.496 211.508C326.516 212.612 312.246 213.236 296.612 215.012C290.407 215.7 283.979 216.596 277.449 217.78C272.573 204.18 269.812 189.508 268.396 175.124C270.459 174.692 272.539 174.292 274.636 173.924C291.805 170.932 309.962 169.556 328.323 169.86C422.501 171.476 521.999 217.732 518.896 316.724Z" fill="url(#paint20_linear_600_782)"/>
<path fill-rule="evenodd" clip-rule="evenodd" d="M265.583 225.077C209.356 247.829 177.56 287.925 164.603 329.029C147.588 383.013 162.795 439.781 199.348 462.133C199.365 462.133 199.399 462.149 199.416 462.165L158.738 456.565C158.738 456.565 65.7532 391.349 100.652 259.685C101.948 254.853 103.38 249.941 105.017 244.917C105.596 243.173 106.176 241.429 106.79 239.733C114.308 218.437 124.64 199.925 136.796 183.813C137.921 182.325 139.08 180.821 140.24 179.381C141.74 180.229 143.701 180.693 146.258 180.533C152.038 180.149 156.129 168.949 156.726 160.949C172.564 145.045 190.193 132.101 207.992 121.573C208.759 121.829 209.561 122.117 210.345 122.373C212.698 123.413 215.221 125.173 217.812 127.509C229.201 137.733 242.277 158.965 252.046 179.077C260.213 195.861 266.061 211.861 266.674 219.957C266.862 222.533 266.521 224.309 265.583 225.077Z" fill="url(#paint21_linear_600_782)"/>
<path fill-rule="evenodd" clip-rule="evenodd" d="M333.367 77.3486L328.338 169.845L326.19 209.189C315.79 210.677 305.936 212.629 296.61 215.013C290.302 216.597 284.232 218.389 278.402 220.357V220.341C278.078 219.477 277.754 218.645 277.447 217.781C272.571 204.181 269.809 189.509 268.394 175.125C264.558 136.453 270.508 99.7646 271.787 92.5486C307.027 80.5166 333.367 77.3486 333.367 77.3486Z" fill="url(#paint22_linear_600_782)"/>
<path fill-rule="evenodd" clip-rule="evenodd" d="M502.015 450.517L453.596 460.661C503.481 430.325 519.763 345.301 477.857 281.765C483.227 277.765 490.729 270.261 487.37 261.045C482.341 247.221 456.068 255.973 456.068 255.973C427.494 229.221 384.855 210.709 326.173 209.189L326.02 77.9406C326.02 77.9406 518.075 70.1486 568.898 219.525C619.959 369.653 502.015 450.517 502.015 450.517Z" fill="url(#paint23_linear_600_782)"/>
<path fill-rule="evenodd" clip-rule="evenodd" d="M380.066 208.196C380.066 208.196 380.066 208.212 380.049 208.228C379.776 208.868 379.521 209.476 379.299 210.052L379.026 210.628C376.111 217.38 373.86 221.924 372.684 223.284C366.103 230.852 287.832 224.964 286.178 222.036C285.701 221.172 285.172 219.428 284.644 216.948C281.302 201.108 277.79 155.108 279.785 113.62C280.637 95.6045 285.462 76.1805 292.588 58.7725C304.54 29.5405 323.089 5.84449 340.513 3.84449C366.222 0.884489 410.447 42.1965 418.46 70.4845C419.21 73.1085 419.62 75.5885 419.705 77.9405C420.404 100.036 393.927 175.46 380.066 208.196Z" fill="url(#paint24_linear_600_782)"/>
<path fill-rule="evenodd" clip-rule="evenodd" d="M497.176 192.98C494.431 198.292 491.294 203.156 487.901 207.604C487.901 207.604 487.884 207.62 487.867 207.62C464.442 238.42 428.776 248.82 419.757 246.388C409.493 243.604 391.78 226.74 391.78 226.74C391.115 226.308 390.893 224.756 391.047 222.276C392.376 201.54 421.223 115.78 437.743 96.02C456.361 73.748 502.342 57.3 521.044 58.964C539.849 60.66 519.288 150.388 497.176 192.98Z" fill="url(#paint25_linear_600_782)"/>
<path fill-rule="evenodd" clip-rule="evenodd" d="M261.202 226.789C260.963 247.557 247.273 261.237 238.646 263.349C233.412 264.645 181.549 254.293 168.575 234.693C155.635 215.157 162.369 166.293 179.674 158.501C197.115 150.661 253.274 186.885 259.769 214.437C260.792 218.789 261.236 222.917 261.202 226.789Z" fill="url(#paint26_linear_600_782)"/>
<path fill-rule="evenodd" clip-rule="evenodd" d="M622.383 304.452C619.297 325.636 603.765 350.34 593.553 356.212C580.374 363.78 522.425 366.804 492.504 362.34H492.453C492.402 362.324 492.334 362.324 492.283 362.308C492.266 362.308 492.266 362.308 492.266 362.308C482.616 360.836 475.882 358.58 474.484 355.428C468.858 342.548 474.688 312.452 474.688 312.452C474.535 310.196 476.137 307.668 479.121 304.98C497.227 288.772 566.872 267.124 602.606 272.852C620.269 275.668 624.616 289.092 622.383 304.452Z" fill="url(#paint27_linear_600_782)"/>
<path fill-rule="evenodd" clip-rule="evenodd" d="M179.996 299.012C179.996 299.012 178.394 343.076 177.149 345.796C176.723 346.676 168.335 349.7 156.162 352.596L156.145 352.612H156.111C144.484 355.38 129.43 358.052 114.546 358.676C97.3776 359.396 80.431 357.412 69.1106 349.748C37.9793 328.692 52.198 257.876 61.0464 252.148C69.9289 246.372 182.741 289.188 179.996 299.012Z" fill="url(#paint28_linear_600_782)"/>
<path fill-rule="evenodd" clip-rule="evenodd" d="M292.59 58.7566L305.274 72.2926C305.274 72.2926 315.827 43.8926 348.459 38.5646C381.449 33.1726 407.568 79.0126 409.443 80.2446C411.318 81.4766 418.462 70.4686 418.462 70.4686C418.462 70.4686 407.278 34.5006 375.652 12.8366C344.299 -8.65142 322.92 5.65258 317.822 10.1966C312.725 14.7406 293.664 56.0526 292.59 58.7566Z" fill="#672850"/>
<path fill-rule="evenodd" clip-rule="evenodd" d="M168.575 234.708C168.575 234.708 176.247 190.356 184.107 182.42C192 174.452 198.581 172.628 198.581 172.628C198.581 172.628 189.511 158.612 179.674 158.532C169.888 158.42 151.373 203.428 168.575 234.708Z" fill="#672850"/>
<path fill-rule="evenodd" clip-rule="evenodd" d="M61.0469 252.132C61.0469 252.132 62.8882 275.684 64.5589 278.58C66.2297 281.476 144.416 282.74 173.74 306.516L179.417 296.148C179.417 296.148 122.286 257.22 61.0469 252.132Z" fill="#672850"/>
<path fill-rule="evenodd" clip-rule="evenodd" d="M431.844 104.853L455.542 105.605C455.542 105.605 474.091 86.213 493.066 77.781C512.161 69.301 527.659 68.181 527.659 68.181C527.659 68.181 530.659 61.637 521.044 58.981C511.445 56.309 452.967 71.269 431.844 104.853Z" fill="#672850"/>
<path fill-rule="evenodd" clip-rule="evenodd" d="M479.137 304.964C479.137 304.964 505.699 311.316 509.092 311.172C512.467 311.028 550.367 296.164 581.652 290.66C613.26 285.108 619.978 284.02 619.978 284.02C619.978 284.02 619.057 272.26 585.692 271.94C552.669 271.636 492.503 292.42 479.137 304.964Z" fill="#672850"/>
<g opacity="0.5">
<path fill-rule="evenodd" clip-rule="evenodd" d="M203.05 451.733C200.39 452.069 218.565 468.933 314.754 470.949C414.132 473.029 451.503 452.181 450.975 447.189C450.446 442.181 255.049 445.205 203.05 451.733Z" fill="#FF7121"/>
</g>
<g opacity="0.5">
<path fill-rule="evenodd" clip-rule="evenodd" d="M219.071 450.148C204.461 453.012 301.69 470.372 362.725 465.444C425.039 460.42 442.992 443.284 442.992 443.284C442.992 443.284 253.749 443.348 219.071 450.148Z" fill="#FF7121"/>
</g>
<g opacity="0.5">
<path fill-rule="evenodd" clip-rule="evenodd" d="M487.867 207.621C464.442 238.421 428.776 248.821 419.757 246.389C409.493 243.605 391.78 226.741 391.78 226.741C391.115 226.309 390.893 224.757 391.047 222.277L396.366 210.085C396.366 210.085 408.743 228.917 432.424 232.117C455.764 235.253 486.52 208.789 487.867 207.621Z" fill="#FF7CB0"/>
</g>
<g opacity="0.5">
<path fill-rule="evenodd" clip-rule="evenodd" d="M379.012 210.629C376.096 217.381 373.846 221.925 372.669 223.285C366.088 230.853 287.817 224.965 286.163 222.037C285.686 221.173 285.157 219.429 284.629 216.949L291.073 211.141C291.073 211.141 328.359 223.205 352.927 221.813C370.606 220.821 376.898 214.293 379.012 210.629Z" fill="#FF7CB0"/>
</g>
<g opacity="0.5">
<path fill-rule="evenodd" clip-rule="evenodd" d="M261.185 226.901C261.185 226.869 261.202 226.821 261.202 226.789C260.963 247.557 247.273 261.237 238.646 263.349L235.543 259.349C235.543 259.349 258.303 245.413 261.185 226.901Z" fill="#FF7CB0"/>
</g>
<path fill-rule="evenodd" clip-rule="evenodd" d="M262.703 204.788L262.516 203.764C262.567 203.94 262.635 204.26 262.703 204.788Z" fill="#FF7CB0"/>
<g opacity="0.5">
<path fill-rule="evenodd" clip-rule="evenodd" d="M179.998 299.012C179.998 299.012 178.396 343.076 177.151 345.796C176.725 346.676 168.337 349.7 156.164 352.596C156.624 352.468 160.46 351.252 163.683 346.036C167.109 340.468 173.741 306.5 173.741 306.5L179.998 299.012Z" fill="#FF7CB0"/>
</g>
<g opacity="0.5">
<path fill-rule="evenodd" clip-rule="evenodd" d="M492.266 362.309C482.616 360.837 475.882 358.581 474.484 355.429C468.858 342.549 474.688 312.453 474.688 312.453C474.535 310.197 476.137 307.669 479.121 304.981L507.473 311.253C507.473 311.253 490.868 331.877 489.521 345.637C488.276 358.757 491.942 362.021 492.266 362.309Z" fill="#FF7CB0"/>
</g>
<g opacity="0.5">
<path fill-rule="evenodd" clip-rule="evenodd" d="M396.345 210.085C396.345 210.085 420.196 128.805 455.539 105.605L431.841 104.853C431.841 104.853 395.595 176.181 391.043 222.277L396.345 210.085Z" fill="#C15D99"/>
</g>
<g opacity="0.5">
<path fill-rule="evenodd" clip-rule="evenodd" d="M117.001 358.036L114.546 358.676C97.3776 359.396 80.431 357.412 69.1106 349.748C37.9793 328.692 52.198 257.876 61.0464 252.148C61.0464 252.148 63.6378 275.444 64.5585 278.58C64.5585 278.58 56.5967 308.868 61.0123 330.324C65.428 351.796 117.001 358.036 117.001 358.036Z" fill="#C15D99"/>
</g>
<g opacity="0.5">
<path fill-rule="evenodd" clip-rule="evenodd" d="M238.645 263.364C233.411 264.66 181.548 254.308 168.574 234.708C168.574 234.708 206.951 260.5 235.542 259.364L238.645 263.364Z" fill="#C15D99"/>
</g>
<g opacity="0.5">
<path fill-rule="evenodd" clip-rule="evenodd" d="M291.09 211.14L284.645 216.948C281.304 201.108 277.792 155.108 279.787 113.62C280.639 95.604 285.464 76.18 292.59 58.772L305.275 72.308C305.275 72.292 279.684 122.708 291.09 211.14Z" fill="#C15D99"/>
</g>
<g opacity="0.5">
<path fill-rule="evenodd" clip-rule="evenodd" d="M380.067 208.196C380.067 208.196 380.067 208.212 380.05 208.228C379.778 208.868 379.522 209.476 379.3 210.052L379.027 210.628C399.503 158.068 409.443 80.2283 409.443 80.2283L418.461 70.4683C419.212 73.0923 419.621 75.5723 419.706 77.9243C420.405 100.036 393.928 175.46 380.067 208.196Z" fill="#C15D99"/>
</g>
<g opacity="0.5">
<path fill-rule="evenodd" clip-rule="evenodd" d="M622.382 304.452C619.297 325.636 603.765 350.34 593.553 356.212C580.374 363.78 522.425 366.804 492.504 362.34C496.596 362.82 550.317 368.66 582.761 352.756C612 338.42 620.541 311.828 622.382 304.452Z" fill="#C15D99"/>
</g>
<path fill-rule="evenodd" clip-rule="evenodd" d="M102.8 377.989C102.8 377.989 138.159 388.469 157.936 364.565L159.317 351.813C159.317 351.813 121.554 360.245 97.3613 359.269C97.3613 359.269 99.9527 377.301 102.8 377.989Z" fill="#D07CAF"/>
<path fill-rule="evenodd" clip-rule="evenodd" d="M170.328 237.029C170.328 237.029 172.715 254.277 174.641 263.957C176.568 273.637 195.595 271.717 195.595 271.717L209.404 257.781C209.404 257.765 187.684 254.981 170.328 237.029Z" fill="#D07CAF"/>
<path fill-rule="evenodd" clip-rule="evenodd" d="M445.927 247.301C445.927 247.301 485.771 248.725 506.962 225.829C528.342 202.741 522.17 145.909 522.17 145.909L516.936 141.077C516.936 141.077 508.684 180.005 490.374 204.165C472.2 228.149 440.062 242.949 440.062 242.949L445.927 247.301Z" fill="#D07CAF"/>
<path fill-rule="evenodd" clip-rule="evenodd" d="M376.895 215.412L391.761 219.46C391.761 219.46 420.506 110.02 437.725 96.0202L418.494 90.0522C418.511 90.0522 392.392 197.684 376.895 215.412Z" fill="#D07CAF"/>
<path fill-rule="evenodd" clip-rule="evenodd" d="M501.471 370.388C501.471 370.388 512.825 379.7 531.647 381.46C550.589 383.236 563.938 373.044 563.938 373.044L568.575 362.084C568.575 362.084 530.692 366.9 502.306 363.172L501.471 370.388Z" fill="#D07CAF"/>
<path fill-rule="evenodd" clip-rule="evenodd" d="M317.805 10.1968C316.271 12.0528 336.61 41.6368 339.116 40.8688C341.622 40.1008 360.172 36.3888 375.499 44.8048C390.894 53.2528 390.894 53.2528 390.894 53.2528C390.894 53.2528 402.402 44.6928 400.765 37.4128C399.145 30.1328 353.557 -19.3552 317.805 10.1968Z" fill="#72315A"/>
<g opacity="0.5">
<path fill-rule="evenodd" clip-rule="evenodd" d="M312.299 77.909C294.517 110.469 273.223 167.589 308.719 191.557C326.364 203.461 365.15 198.261 364.809 169.893C395.173 160.149 395.685 114.389 387.536 92.421C376.999 64.069 340.515 56.597 312.299 77.909Z" fill="#A17DBD"/>
</g>
<g opacity="0.5">
<path fill-rule="evenodd" clip-rule="evenodd" d="M477.5 92.8364C449.369 115.668 425.859 146.196 418.681 180.18C410.821 217.348 441.271 214.58 469.453 197.956C492.213 184.532 507.676 149.988 510.95 126.18C513.268 109.428 506.994 84.5484 477.5 92.8364Z" fill="#A17DBD"/>
</g>
<g opacity="0.5">
<path fill-rule="evenodd" clip-rule="evenodd" d="M549.719 304.9C531.153 308.004 509.245 314.532 506.33 335.54C502.221 365.124 548.798 357.236 567.245 352.1C584.311 347.348 612.442 334.996 596.791 316.788C585.505 303.668 571.149 302.004 549.719 304.9Z" fill="#A17DBD"/>
</g>
<g opacity="0.5">
<path fill-rule="evenodd" clip-rule="evenodd" d="M202.876 178.453C185.401 183.957 171.949 205.381 177.712 223.845C182.946 240.629 208.468 247.573 224.631 245.365C246.283 242.405 254.244 229.013 246.948 209.349C241.765 195.429 227.768 174.069 202.876 178.453Z" fill="#A17DBD"/>
</g>
<g opacity="0.5">
<path fill-rule="evenodd" clip-rule="evenodd" d="M83.5709 287.572C79.5303 287.14 75.6773 287.716 71.9947 289.332C69.9659 308.244 70.0852 326.388 85.2417 339.524C102.154 354.18 139.031 357.204 157.751 341.3C192.581 311.732 110.73 258.98 83.5709 287.572Z" fill="#A17DBD"/>
</g>
<path fill-rule="evenodd" clip-rule="evenodd" d="M198.581 172.613C198.581 172.613 250.802 186.549 260.537 218.341C260.537 218.341 265.532 203.205 229.866 177.541C194.54 152.133 179.674 158.517 179.674 158.517C179.674 158.517 193.415 163.957 198.581 172.613Z" fill="#72315A"/>
<path fill-rule="evenodd" clip-rule="evenodd" d="M217.795 127.493C190.04 125.893 164.535 159.557 164.535 159.557C164.535 159.557 164.262 167.621 158.942 175.749C153.623 183.877 145.065 185.973 145.065 185.973C128.868 196.517 105.068 261.061 105.068 261.061L100.652 259.733V259.685C101.948 254.853 103.38 249.941 105.017 244.917C105.597 243.173 106.176 241.429 106.79 239.733C114.309 218.437 124.64 199.925 136.796 183.813C137.921 182.325 139.081 180.821 140.24 179.381C141.74 180.229 143.701 180.693 146.258 180.533C152.038 180.149 156.129 168.949 156.726 160.949C172.565 145.045 190.193 132.101 207.992 121.573C208.759 121.829 209.561 122.117 210.345 122.373C212.698 123.397 215.221 125.157 217.795 127.493Z" fill="#672850"/>
<path fill-rule="evenodd" clip-rule="evenodd" d="M156.724 160.933L164.55 159.541C164.55 159.541 163.442 174.997 155.207 180.165L151.184 177.333C151.201 177.333 156.469 169.237 156.724 160.933Z" fill="#3A0B2F"/>
<path fill-rule="evenodd" clip-rule="evenodd" d="M271.788 92.533C271.788 92.533 268.293 117.205 267.799 127.301C267.799 127.301 278.847 97.957 279.58 96.533C280.313 95.109 279.648 89.957 279.648 89.957L271.788 92.533Z" fill="#672850"/>
<path fill-rule="evenodd" clip-rule="evenodd" d="M283.175 88.853L281.027 89.509C281.027 89.509 271.974 121.653 271.139 155.685C270.303 189.605 284.641 216.949 284.641 216.949C284.641 216.949 272.639 153.301 283.175 88.853Z" fill="#D07CAF"/>
<path fill-rule="evenodd" clip-rule="evenodd" d="M487.15 306.837L506.569 312.405C506.569 312.405 559.813 292.965 600.952 287.285C600.952 287.285 572.292 290.565 537.087 300.629C502.324 310.581 487.15 306.837 487.15 306.837Z" fill="#864870"/>
<path fill-rule="evenodd" clip-rule="evenodd" d="M457.434 103.7C457.434 103.7 484.916 84.3242 497.157 78.0842C509.467 71.8122 518.673 69.5562 518.673 69.5562C518.673 69.5562 489.844 72.6442 457.434 103.7Z" fill="#864870"/>
<path fill-rule="evenodd" clip-rule="evenodd" d="M312.654 59.8287C312.654 59.8287 323.071 46.9327 345.303 43.2367C367.688 39.5087 381.208 48.6447 381.208 48.6447C381.208 48.6447 366.341 34.5807 344.86 36.9807C323.514 39.3647 312.654 59.8287 312.654 59.8287Z" fill="#864870"/>
<path fill-rule="evenodd" clip-rule="evenodd" d="M183.203 183.509C183.203 183.509 192.239 174.421 199.86 174.501C207.498 174.581 216.653 179.157 216.653 179.157C216.653 179.157 202.468 172.309 201.139 171.813C199.809 171.317 192.12 164.325 188.915 163.381C188.915 163.381 195.632 167.893 195.188 171.445C194.745 175.013 188.42 175.845 183.203 183.509Z" fill="#864870"/>
<path fill-rule="evenodd" clip-rule="evenodd" d="M140.238 179.38C140.238 179.38 144.074 185.476 146.001 185.7C147.927 185.924 153.758 181.428 153.758 181.428C153.758 181.428 145.489 182.132 140.238 179.38Z" fill="#864870"/>
<path fill-rule="evenodd" clip-rule="evenodd" d="M64.5586 278.564C64.5586 278.564 88.3588 279.604 109.943 281.828C131.697 284.068 145.711 292.484 145.711 292.484C145.711 292.484 91.1378 279.3 64.5586 278.564Z" fill="#864870"/>
<path fill-rule="evenodd" clip-rule="evenodd" d="M345.542 56.7246C343.855 55.3646 371.712 28.7886 374.628 27.2046C377.56 25.6206 368.286 39.1246 365.132 43.7486C361.995 48.3566 345.542 56.7246 345.542 56.7246Z" fill="url(#paint29_linear_600_782)"/>
<path fill-rule="evenodd" clip-rule="evenodd" d="M348.1 55.3811C348.1 55.3811 361.585 50.2771 364.108 48.0851C366.649 45.8771 374.014 30.0371 374.014 30.0371C374.014 30.0371 364.671 43.8291 361.739 46.9811C358.806 50.1491 348.1 55.3811 348.1 55.3811Z" fill="#864870"/>
<path fill-rule="evenodd" clip-rule="evenodd" d="M356.437 43.9566C355.09 45.3326 360.989 45.3486 364.177 42.4686C367.382 39.5886 368.968 33.4766 368.968 33.4766C368.968 33.4766 359.727 40.6126 356.437 43.9566Z" fill="#9E5D98"/>
<path fill-rule="evenodd" clip-rule="evenodd" d="M490.818 145.845C492.591 144.805 496.461 142.613 496.819 139.973C497.109 137.925 494.126 137.221 492.983 136.597C488.994 134.373 485.345 131.317 480.435 131.029C475.116 130.725 467.666 132.373 462.346 136.165C459.414 138.261 460.437 139.637 462.312 141.333C465.995 144.677 470.632 146.437 475.849 146.613C479.788 146.741 483.828 146.565 487.783 146.565C488.858 146.565 490.102 146.917 490.818 145.845Z" fill="url(#paint30_linear_600_782)"/>
<path fill-rule="evenodd" clip-rule="evenodd" d="M461.66 140.132C461.95 137.524 462.819 137.396 464.951 136.388C467.389 135.252 469.588 134.66 472.026 134.26C475.436 133.716 479.459 132.644 482.681 133.076C486.04 133.524 488.819 135.524 491.632 137.06C492.74 137.668 494.462 138.516 495.144 139.7C496.44 141.956 492.74 145.124 490.643 146.148C488.308 147.284 485.75 146.724 483.551 146.66C480.482 146.58 477.311 146.66 474.327 146.276C469.895 145.716 462.155 144.66 461.66 140.132Z" fill="#5D1E43"/>
<path fill-rule="evenodd" clip-rule="evenodd" d="M460.811 139.092C461.868 142.388 466.641 143.732 469.437 144.564C473.836 145.876 478.593 146.02 483.315 146.452C487.373 146.82 491.396 146.9 495.164 142.788C493.766 144.26 491.499 145.86 489.828 146.884C487.492 148.324 485.276 147.828 483.076 147.7C479.633 147.508 476.291 147.108 472.915 146.74C469.881 146.404 466.096 146.164 463.794 144.228C462.072 142.772 461.424 141.076 460.811 139.092Z" fill="#6A2B4F"/>
<path fill-rule="evenodd" clip-rule="evenodd" d="M127.813 465.908C127.813 465.908 177.186 502.804 342.884 498.212C518.368 493.332 559.712 467.78 559.712 467.78L563.514 478.404C563.514 478.404 540.43 503.604 342.85 501.572C157.495 499.668 121.521 486.02 121.521 486.02L127.813 465.908Z" fill="#D07CAF"/>
<path fill-rule="evenodd" clip-rule="evenodd" d="M617.642 522.18C617.642 522.18 411.402 572.788 90.7461 522.1C90.7461 522.1 91.3257 513.572 92.9113 504.692C98.2817 508.372 147.86 538.628 339.489 542.148C558.141 546.164 613.891 510.596 613.891 510.596C616.21 517.188 617.642 522.18 617.642 522.18Z" fill="#D07CAF"/>
<path fill-rule="evenodd" clip-rule="evenodd" d="M177.031 502.484C177.031 502.484 227.718 511.844 336.66 514.1C449.694 516.436 525.391 499.124 525.391 499.124C525.391 499.124 351.305 523.428 177.031 502.484Z" fill="#8B4E74"/>
<path fill-rule="evenodd" clip-rule="evenodd" d="M192.424 465.684C192.424 465.684 242.258 475.732 332.992 475.524C426.573 475.3 484.369 461.796 484.369 461.796C484.369 461.796 334.543 486.9 192.424 465.684Z" fill="#94587E"/>
<g opacity="0.5">
<path fill-rule="evenodd" clip-rule="evenodd" d="M248.48 537.941C234.722 535.285 219.804 512.917 223.811 511.941C227.817 510.965 364.157 517.669 446.265 514.277C530.674 510.805 511.732 535.173 511.732 535.173C511.732 535.173 317.989 551.381 248.48 537.941Z" fill="#B488BE"/>
</g>
<path fill-rule="evenodd" clip-rule="evenodd" d="M202.281 534.597C202.281 534.597 203.526 505.637 205.538 503.637C207.549 501.637 228.826 495.141 228.826 495.141C228.826 495.141 210.09 508.725 208.726 513.717C207.362 518.725 206.731 536.725 206.731 536.725L202.281 534.597Z" fill="#230415"/>
<path fill-rule="evenodd" clip-rule="evenodd" d="M208.727 513.716C208.727 513.716 361.621 519.764 424.02 512.1C424.02 512.1 276.871 514.276 214.66 506.564L209.374 512.372L208.727 513.716Z" fill="#8B4E74"/>
<path fill-rule="evenodd" clip-rule="evenodd" d="M458.967 493.957C458.967 493.957 473.475 506.629 475.283 509.621C477.09 512.613 474.737 540.997 474.737 540.997C474.737 540.997 475.607 514.485 471.344 509.653C467.082 504.805 458.967 493.957 458.967 493.957Z" fill="#230415"/>
<path fill-rule="evenodd" clip-rule="evenodd" d="M339.488 542.148C339.488 542.148 339.778 517.204 339.795 515.924C339.812 514.628 342.881 498.196 342.881 498.196C342.881 498.196 342.046 509.508 341.756 519.636C341.466 529.748 345.097 543.7 345.097 543.7L339.488 542.148Z" fill="#230415"/>
<path fill-rule="evenodd" clip-rule="evenodd" d="M124.18 527.076C124.18 527.076 124.453 493.204 125.919 493.54C127.368 493.876 144.928 488.612 144.928 488.612C144.928 488.612 130.454 493.476 127.726 496.324C124.998 499.188 124.18 527.076 124.18 527.076Z" fill="#230415"/>
<path fill-rule="evenodd" clip-rule="evenodd" d="M532.467 484.868C532.467 484.868 561.382 488.82 563.223 491.7C565.064 494.58 568.951 531.044 568.951 531.044C568.951 531.044 563.104 496.34 558.177 492.916C553.249 489.476 532.467 484.868 532.467 484.868Z" fill="#230415"/>
<path fill-rule="evenodd" clip-rule="evenodd" d="M194.012 504.501C197.814 503.765 214.215 499.925 214.215 499.925C214.215 499.925 206.338 503.221 205.81 503.637C205.281 504.053 204.36 506.229 204.36 506.229L194.012 504.501Z" fill="#8B4E74"/>
<path fill-rule="evenodd" clip-rule="evenodd" d="M465.092 499.413C465.092 499.413 474.469 504.581 476.208 504.421C477.947 504.261 487.443 505.637 487.443 505.637L473.497 507.461L465.092 499.413Z" fill="#8B4E74"/>
<g opacity="0.5">
<path fill-rule="evenodd" clip-rule="evenodd" d="M237.996 493.765C235.421 493.381 226.283 479.333 227.852 477.045C229.437 474.757 315.517 478.565 365.453 476.373C416.259 474.133 480.158 468.933 480.158 468.933C480.158 468.933 486.432 482.469 482.852 487.253C479.272 492.021 320.564 506.213 237.996 493.765Z" fill="#B488BE"/>
</g>
<g opacity="0.5">
<path fill-rule="evenodd" clip-rule="evenodd" d="M276.663 495.877C271.958 495.205 333.385 473.045 379.417 476.453C426.165 479.893 424.323 493.029 424.323 493.029C424.323 493.029 333.947 504.085 276.663 495.877Z" fill="#B488BE"/>
</g>
<g opacity="0.5">
<path fill-rule="evenodd" clip-rule="evenodd" d="M476.681 308.485C478.676 305.077 491.65 314.021 493.304 319.301C494.957 324.581 487.132 345.493 486.348 352.005C485.563 358.501 472.453 351.317 472.453 351.317C472.453 351.317 470.646 318.805 476.681 308.485Z" fill="#FF7CB0"/>
</g>
<g opacity="0.5">
<path fill-rule="evenodd" clip-rule="evenodd" d="M391.248 225.925C391.248 225.925 393.635 216.597 395.613 216.309C397.573 216.021 423.573 231.877 427.017 234.645C430.46 237.413 420.572 246.549 420.572 246.549C420.572 246.549 399.551 236.213 391.248 225.925Z" fill="#FF7CB0"/>
</g>
<g opacity="0.5">
<path fill-rule="evenodd" clip-rule="evenodd" d="M286.178 222.036C286.178 222.036 297.191 212.98 298.998 213.492C300.806 213.988 329.124 220.532 344.042 222.148C359.028 223.78 372.752 219.332 372.752 219.332L371.524 223.348C371.507 223.348 342.183 231.236 286.178 222.036Z" fill="#FF7CB0"/>
</g>
<path fill-rule="evenodd" clip-rule="evenodd" d="M473.512 507.46L476.103 510.26L517.685 500.692C517.685 500.692 476.529 507.764 473.512 507.46Z" fill="#73355D"/>
<g opacity="0.5">
<path fill-rule="evenodd" clip-rule="evenodd" d="M538.16 233.3C527.265 238.244 515.127 248.884 520.429 261.636C524.333 271.06 536.097 270.82 544.86 266.628C563.102 257.892 565.284 227.044 538.16 233.3Z" fill="#D07CAF"/>
<path fill-rule="evenodd" clip-rule="evenodd" d="M542.389 171.444C531.409 188.74 523.073 218.564 549.567 224.596C555.5 225.94 562.234 226.292 564.706 220.548C567.877 213.188 561.092 201.028 558.466 194.612C555.193 186.548 550.129 178.532 542.389 171.444Z" fill="#D07CAF"/>
<path fill-rule="evenodd" clip-rule="evenodd" d="M580.953 307.636C577.85 311.204 570.4 317.604 574.645 322.82C577.134 325.876 579.998 325.492 583.34 323.844C590.858 320.116 591.097 308.676 584.022 305.396L580.953 307.636Z" fill="#D07CAF"/>
<path fill-rule="evenodd" clip-rule="evenodd" d="M564.5 337.173C567.347 335.573 570.314 334.197 573.365 333.013C578.497 337.877 569.291 340.917 565.983 337.813L564.5 337.173Z" fill="#D07CAF"/>
<path fill-rule="evenodd" clip-rule="evenodd" d="M129.977 315.588C127.846 321.892 127.488 329.22 133.336 333.732C138.297 337.556 144.418 335.06 146.668 329.204C149.703 321.236 141.622 306.98 129.977 315.588Z" fill="#D07CAF"/>
<path fill-rule="evenodd" clip-rule="evenodd" d="M155.174 330.34C152.344 328.052 150.502 326.852 152.514 323.62C153.349 322.292 155.157 320.42 156.896 321.092C159.913 322.26 156.026 328.164 154.73 329.476L155.174 330.34Z" fill="#D07CAF"/>
<path fill-rule="evenodd" clip-rule="evenodd" d="M123.225 400.789C124.844 408.309 128.101 416.565 135.295 420.405C140.103 422.965 145.218 423.029 147.008 417.141C150.298 406.293 138.841 387.397 123.225 400.789Z" fill="#D07CAF"/>
<path fill-rule="evenodd" clip-rule="evenodd" d="M159.472 445.124C155.226 443.428 152.754 443.3 153.692 438.34C154.408 434.532 159.045 429.076 163.325 431.284C169.667 434.548 163.649 442.228 159.898 444.692L159.472 445.124Z" fill="#D07CAF"/>
</g>
<path fill-rule="evenodd" clip-rule="evenodd" d="M223.762 101.684C224.904 105.508 225.791 112.964 229.524 115.124C234.826 109.62 228.859 105.252 224.648 103.412L223.762 101.684Z" fill="#FFFF00"/>
<path fill-rule="evenodd" clip-rule="evenodd" d="M246.915 112.884C242.584 110.148 238.629 105.956 240.692 99.7799C242.26 95.1079 243.948 95.4279 247.631 97.7959C252.66 101.028 258.269 109.06 249.642 112.676L246.915 112.884Z" fill="#FFFF00"/>
<path fill-rule="evenodd" clip-rule="evenodd" d="M561.603 180.869C557.255 183.701 547.913 190.133 547.827 195.973C547.759 200.101 550.76 201.477 555.005 200.661C566.206 198.517 570.485 185.013 561.603 180.869Z" fill="#FFFF00"/>
<path fill-rule="evenodd" clip-rule="evenodd" d="M613.977 241.636C609.135 244.9 605.078 252.82 614.335 249.188C617.813 247.828 621.445 243.396 616.518 241.972L613.977 241.636Z" fill="#FFFF00"/>
<g opacity="0.5">
<path fill-rule="evenodd" clip-rule="evenodd" d="M577.544 213.461C573.145 229.605 608.914 229.109 612.17 206.581C615.427 184.069 611.182 173.061 608.761 173.685C606.357 174.309 582.454 195.477 577.544 213.461Z" fill="#DE7DC0"/>
</g>
<g opacity="0.5">
<path fill-rule="evenodd" clip-rule="evenodd" d="M551.542 145.237C550.554 171.301 593.091 165.749 595.273 121.557C597.455 77.3646 581.719 91.1886 581.719 91.1886C581.719 91.1886 552.855 110.405 551.542 145.237Z" fill="#DE7DC0"/>
</g>
<g opacity="0.5">
<path fill-rule="evenodd" clip-rule="evenodd" d="M93.4401 79.6199C81.9492 82.4679 81.5059 168.324 110.557 179.572C138.671 190.468 114.308 74.4519 93.4401 79.6199Z" fill="#DE7DC0"/>
</g>
<g opacity="0.5">
<path fill-rule="evenodd" clip-rule="evenodd" d="M63.6063 193.893C61.765 197.365 62.788 236.053 87.4918 241.061C111.94 246.021 100.534 228.053 100.534 228.053C100.534 228.053 64.9532 191.333 63.6063 193.893Z" fill="#DE7DC0"/>
</g>
<g opacity="0.5">
<path fill-rule="evenodd" clip-rule="evenodd" d="M543.738 430.772C541.283 438.836 558.315 444.804 565.543 427.428C572.755 410.052 566.754 408.084 566.754 408.084C566.754 408.084 545.954 423.46 543.738 430.772Z" fill="#DE7DC0"/>
</g>
<g opacity="0.5">
<path fill-rule="evenodd" clip-rule="evenodd" d="M102.987 423.364C91.5981 422.788 108.425 455.092 124.178 452.468C139.949 449.844 121.212 424.308 102.987 423.364Z" fill="#DE7DC0"/>
</g>
<path fill-rule="evenodd" clip-rule="evenodd" d="M456.974 164.869C456.138 165.813 455.183 166.837 454.246 167.925C452.78 169.573 451.33 171.349 450.154 173.077C450.154 173.093 450.154 173.093 450.137 173.109C449.677 173.813 449.268 174.517 448.944 175.189C447.784 177.589 447.921 181.077 447.307 182.485C443.71 190.869 436.958 197.029 435.441 206.581C435.407 205.109 435.424 203.637 435.492 202.133C435.748 197.317 436.583 192.437 438.152 187.797C440.453 180.949 449.268 172.117 448.569 164.821C448.193 160.949 443.488 159.685 442.823 156.597C442.107 153.285 444.085 149.029 446.284 145.237C447.529 143.141 448.824 141.173 449.796 139.621C445.414 147.333 449.302 158.693 456.974 164.869Z" fill="url(#paint31_linear_600_782)"/>
<path fill-rule="evenodd" clip-rule="evenodd" d="M454.517 168.148C453.205 169.588 451.619 171.3 450.17 173.076C450.17 173.092 450.17 173.092 450.153 173.108C448.687 174.884 447.34 176.74 446.521 178.468C445.345 180.868 445.481 184.356 444.885 185.764C442.344 191.652 438.236 196.452 435.508 202.132C435.764 197.316 436.599 192.436 438.167 187.796C440.469 180.948 449.283 172.116 448.584 164.82C448.209 160.948 443.504 159.684 442.839 156.596C442.123 153.284 444.1 149.028 446.3 145.236C443.777 152.676 447.51 162.324 454.262 167.924C454.347 168.02 454.415 168.084 454.517 168.148Z" fill="url(#paint32_linear_600_782)"/>
<path fill-rule="evenodd" clip-rule="evenodd" d="M538.86 329.253C530.591 341.861 518.725 347.797 504.012 347.461C504.557 346.661 505.205 345.829 505.921 345.013C508.393 342.117 511.616 339.157 514.088 336.693C521.657 332.693 530.079 329.029 537.257 329.173C537.803 329.157 538.331 329.205 538.86 329.253Z" fill="url(#paint33_linear_600_782)"/>
<path fill-rule="evenodd" clip-rule="evenodd" d="M537.258 329.173C529.466 339.669 518.845 344.853 505.922 345.013C508.394 342.117 511.616 339.157 514.088 336.693C521.658 332.693 530.08 329.029 537.258 329.173Z" fill="url(#paint34_linear_600_782)"/>
<path fill-rule="evenodd" clip-rule="evenodd" d="M74.1094 330.277C81.5597 341.013 91.9425 345.205 104.729 343.253C104.218 342.565 103.638 341.861 102.99 341.173C100.757 338.741 97.8585 336.357 95.6421 334.341C88.976 331.493 81.6279 329.045 75.4903 330.005C75.013 330.069 74.5526 330.181 74.1094 330.277Z" fill="url(#paint35_linear_600_782)"/>
<path fill-rule="evenodd" clip-rule="evenodd" d="M75.4902 330.021C82.4632 338.853 91.7719 342.485 102.99 341.189C100.757 338.757 97.8584 336.373 95.642 334.357C88.9759 331.493 81.6108 329.061 75.4902 330.021Z" fill="url(#paint36_linear_600_782)"/>
<path fill-rule="evenodd" clip-rule="evenodd" d="M234.813 235.86C229.34 238.132 224.822 241.396 221.532 246.084C214.303 243.14 208.285 236.18 202.795 230.948C204.636 231.476 206.392 231.924 208.063 232.308C216.536 234.26 223.151 234.676 228.897 235.188C230.96 235.38 232.92 235.572 234.813 235.86Z" fill="url(#paint37_linear_600_782)"/>
<path fill-rule="evenodd" clip-rule="evenodd" d="M228.898 235.188C226.033 237.06 223.561 239.412 221.55 242.26C216.537 240.228 212.139 236.292 208.047 232.308C216.52 234.26 223.152 234.676 228.898 235.188Z" fill="url(#paint38_linear_600_782)"/>
<path fill-rule="evenodd" clip-rule="evenodd" d="M371.833 130.309C371.594 131.269 371.134 132.213 370.486 133.109C366.803 138.325 357.409 142.805 353.829 146.949C349.413 152.053 346.361 157.877 344.128 164.021C344.111 164.053 344.094 164.101 344.077 164.133C339.968 175.525 338.655 188.021 336.61 199.237C336.405 198.709 336.234 198.133 336.098 197.573C333.745 188.549 337.343 175.029 339.116 166.021C339.593 163.653 340.207 161.317 340.991 159.045C341.008 159.013 341.008 158.965 341.025 158.949C342.781 153.877 345.407 149.093 349.328 144.789C353.437 140.245 358.142 135.237 360.802 129.813C363.564 124.229 364.126 118.181 359.66 111.797C354.391 104.261 344.537 109.253 336.371 107.141C335.893 102.853 336.882 98.037 338.621 93.189C342.167 83.221 348.885 72.997 352.516 66.645C351.254 68.965 349.481 72.245 347.794 75.877C346.737 78.133 345.714 80.533 344.861 82.901C344.844 82.965 344.81 83.029 344.776 83.109C342.832 88.597 341.792 93.973 343.446 97.301C345.969 102.405 349.771 100.613 354.715 101.205C363.155 102.229 361.842 104.197 365.132 112.533C366.803 116.773 372.992 125.445 371.833 130.309Z" fill="url(#paint39_linear_600_782)"/>
<path fill-rule="evenodd" clip-rule="evenodd" d="M370.485 133.109C366.803 138.325 357.409 142.805 353.828 146.949C349.413 152.053 346.361 157.877 344.128 164.021C344.111 164.053 344.093 164.101 344.076 164.133C339.558 174.741 337.905 186.565 336.08 197.573C333.728 188.549 337.325 175.029 339.098 166.021C339.575 163.653 340.189 161.317 340.974 159.045C340.991 159.013 340.991 158.965 341.008 158.949C342.678 155.237 344.895 151.733 347.861 148.469C352.925 142.917 358.807 136.661 360.784 129.813C363.546 124.229 364.109 118.181 359.642 111.797C354.374 104.261 344.52 109.253 336.353 107.141C335.876 102.853 336.865 98.037 338.604 93.189C341.246 86.981 344.792 80.8851 347.776 75.8771C348.987 73.8451 350.112 71.973 351.032 70.373C349.396 73.381 346.907 78.0051 344.844 82.901C344.827 82.965 344.792 83.029 344.758 83.109C341.945 89.797 339.968 96.933 341.979 100.997C344.503 106.101 348.322 104.309 353.232 104.901C361.671 105.925 360.341 107.893 363.649 116.229C365.234 120.229 370.792 128.149 370.485 133.109Z" fill="url(#paint40_linear_600_782)"/>
<path fill-rule="evenodd" clip-rule="evenodd" d="M339.73 116.085C335.57 118.229 331.581 116.885 328.699 114.101C328.546 113.941 328.41 113.813 328.273 113.653C328.239 113.637 328.239 113.637 328.239 113.621C327.932 113.301 327.659 112.949 327.387 112.613C327.148 112.341 326.926 112.053 326.756 111.749C325.767 110.261 325.034 108.581 324.642 106.933C324.505 106.373 324.369 105.797 324.267 105.189C323.585 101.573 323.295 97.1568 323.977 92.9808C324.557 89.4608 325.818 86.1008 328.086 83.5728C331.001 80.3088 335.536 80.0688 339.44 79.4448C338.912 80.5648 338.417 81.7808 337.923 82.9808C336.866 85.6048 335.911 88.2768 335.042 90.3408C329.415 86.1008 325.955 92.6608 325.17 98.1968C324.983 99.6368 324.949 100.997 325.119 102.101C326.261 109.557 332.621 114.693 339.73 116.085Z" fill="url(#paint41_linear_600_782)"/>
<path fill-rule="evenodd" clip-rule="evenodd" d="M337.939 82.998C336.882 85.622 335.927 88.294 335.058 90.358C329.432 86.118 325.971 92.678 325.186 98.214C324.385 100.598 324.061 103.27 324.3 105.19C323.618 101.574 323.328 97.1581 324.01 92.9821C324.692 90.7421 325.783 88.678 327.301 86.982C330.045 83.958 334.222 83.574 337.939 82.998Z" fill="url(#paint42_linear_600_782)"/>
<path fill-rule="evenodd" clip-rule="evenodd" d="M479.138 266.292L492.027 267.108C492.027 267.108 500.143 252.612 511.395 245.876C522.664 239.14 532.263 247.188 533.763 249.076C535.263 250.964 556.37 236.948 560.768 232.468C565.167 227.972 567.622 212.484 567.622 212.484C567.622 212.484 563.974 226.484 558.586 232.468C553.199 238.452 531.086 239.284 528.427 238.516C525.767 237.748 511.378 239.252 506.775 241.508C502.171 243.764 493.374 254.084 490.374 255.956C487.373 257.828 477.178 256.052 477.178 256.052L479.138 266.292Z" fill="url(#paint43_linear_600_782)"/>
<path fill-rule="evenodd" clip-rule="evenodd" d="M539.97 238.308C547.914 238.196 553.046 236.052 555.45 234.74C551.051 237.508 539.015 244.644 534.139 243.572C528.155 242.26 517.039 239.06 509.537 243.572C505.616 245.956 501.78 249.988 498.49 253.764C495.489 257.204 492.847 260.452 490.954 261.972C486.965 265.156 479.139 266.308 479.139 266.308L477.145 256.052C477.145 256.052 487.476 256.708 490.357 255.956C490.357 255.956 490.426 255.924 490.511 255.892C493.494 254.756 500.263 243.108 507.543 239.78C514.959 236.404 528.41 238.516 539.97 238.308Z" fill="#FFFF00"/>
<path fill-rule="evenodd" clip-rule="evenodd" d="M539.971 238.308C547.915 238.196 553.047 236.052 555.451 234.74C551.052 237.508 539.016 244.644 534.14 243.572C528.156 242.26 517.04 239.06 509.538 243.572C505.617 245.956 501.781 249.988 498.491 253.764C494.211 254.74 491.211 255.7 490.512 255.908C493.495 254.772 500.264 243.124 507.544 239.796C514.96 236.404 528.411 238.516 539.971 238.308Z" fill="url(#paint44_linear_600_782)"/>
<path fill-rule="evenodd" clip-rule="evenodd" d="M465.039 280.485L477.877 281.765C477.877 281.765 487.765 274.789 488.123 267.109L479.156 266.309C479.139 266.309 473.887 279.029 465.039 280.485Z" fill="#BB1710"/>
<path opacity="0.5" fill-rule="evenodd" clip-rule="evenodd" d="M421.16 452.357C456.843 434.229 494.982 419.701 514.759 383.925C523.556 368.021 524.783 351.861 529.369 335.445C546.589 333.237 556.886 346.085 571.446 352.229C614.171 370.293 669.392 336.181 661.822 290.629C660.441 282.309 657.679 275.253 650.502 269.877C644.688 265.541 637.067 266.677 631.748 263.365C623.19 258.021 623.837 260.885 623.871 247.237C623.94 220.165 626.497 182.453 648.268 161.973C649.513 162.565 651.627 164.197 652.599 165.397C647.126 181.845 637.135 196.901 646.41 214.517C663.118 246.245 701.444 235.877 729.472 230.581C725.398 249.573 721.868 268.165 722.278 288.229C722.653 306.485 724.613 325.029 727.443 343.093C728.739 351.317 734.519 365.077 732.149 373.413C727.87 388.421 686.816 391.589 673.416 397.621C654.474 406.149 640.085 419.957 633.368 438.789C628.048 438.629 623.411 435.765 618.518 433.733C604.538 427.957 590.967 424.101 575.504 423.125C549.248 421.445 519.549 424.677 506.473 448.805C503.54 454.197 503.574 460.501 498.477 463.525C494.232 466.053 478.666 464.613 473.585 464.805C454.593 465.509 435.157 465.013 421.16 452.357Z" fill="url(#paint45_linear_600_782)"/>
<path opacity="0.5" fill-rule="evenodd" clip-rule="evenodd" d="M268.759 469.253C257.029 462.949 244.771 451.077 231.251 448.741C215.873 446.085 207.86 456.821 194.357 458.133C151.803 462.261 125.94 387.781 175.586 375.653C185.748 373.173 201.211 375.957 207.638 384.501C209.701 387.253 208.576 391.461 210.076 394.917C223.426 425.701 249.545 434.309 282.977 435.653C280.846 471.109 336.136 454.805 355.674 450.069C383.805 443.253 413.248 438.117 440.952 448.469C455.938 454.069 449.494 453.797 460.201 446.229C479.023 432.933 492.645 425.621 517.144 426.693C537.21 427.557 530.902 426.645 540.978 409.877C554.566 387.253 571.564 389.285 596.251 387.573C606.378 386.869 627.212 387.509 629.752 374.997C624.467 390.341 629.223 407.781 633.162 422.965C604.417 419.205 573.712 412.485 545.036 423.189C527.356 429.781 519.821 444.629 513.24 460.053C482.808 463.285 451.847 465.589 421.278 467.317C373.592 470.005 320.741 476.581 268.759 469.253Z" fill="url(#paint46_linear_600_782)"/>
<defs>
<radialGradient id="paint0_radial_600_782" cx="0" cy="0" r="1" gradientUnits="userSpaceOnUse" gradientTransform="translate(331.777 545.082) scale(331.809 42.6852)">
<stop stop-color="#B00027"/>
<stop offset="0.9904"/>
</radialGradient>
<linearGradient id="paint1_linear_600_782" x1="567.605" y1="213.464" x2="567.605" y2="54.3318" gradientUnits="userSpaceOnUse">
<stop stop-color="#3E032C"/>
<stop offset="0.9904" stop-color="#951C15"/>
</linearGradient>
<linearGradient id="paint2_linear_600_782" x1="591.105" y1="267.106" x2="591.105" y2="147.416" gradientUnits="userSpaceOnUse">
<stop stop-color="#3E032C"/>
<stop offset="0.9904" stop-color="#951C15"/>
</linearGradient>
<linearGradient id="paint3_linear_600_782" x1="567.605" y1="213.464" x2="567.605" y2="69.0921" gradientUnits="userSpaceOnUse">
<stop offset="0.00959658" stop-color="#E6BDD1"/>
<stop offset="1" stop-color="#AB30BB"/>
</linearGradient>
<linearGradient id="paint4_linear_600_782" x1="591.105" y1="267.107" x2="591.105" y2="157.861" gradientUnits="userSpaceOnUse">
<stop offset="0.00959658" stop-color="#E6BDD1"/>
<stop offset="1" stop-color="#AB30BB"/>
</linearGradient>
<linearGradient id="paint5_linear_600_782" x1="147.57" y1="481.304" x2="147.57" y2="408.079" gradientUnits="userSpaceOnUse">
<stop stop-color="#3E032C"/>
<stop offset="0.9904" stop-color="#951C15"/>
</linearGradient>
<linearGradient id="paint6_linear_600_782" x1="548.105" y1="478.692" x2="548.105" y2="389.657" gradientUnits="userSpaceOnUse">
<stop stop-color="#3E032C"/>
<stop offset="0.9904" stop-color="#951C15"/>
</linearGradient>
<linearGradient id="paint7_linear_600_782" x1="82.1524" y1="259.705" x2="82.1524" y2="175.604" gradientUnits="userSpaceOnUse">
<stop stop-color="#3E032C"/>
<stop offset="0.9904" stop-color="#951C15"/>
</linearGradient>
<linearGradient id="paint8_linear_600_782" x1="117.199" y1="226.691" x2="117.199" y2="39.7458" gradientUnits="userSpaceOnUse">
<stop stop-color="#3E032C"/>
<stop offset="0.9904" stop-color="#951C15"/>
</linearGradient>
<linearGradient id="paint9_linear_600_782" x1="548.943" y1="478.692" x2="548.943" y2="389.657" gradientUnits="userSpaceOnUse">
<stop offset="0.00959658" stop-color="#E6BDD1"/>
<stop offset="1" stop-color="#AB30BB"/>
</linearGradient>
<linearGradient id="paint10_linear_600_782" x1="117.197" y1="226.691" x2="117.197" y2="50.0084" gradientUnits="userSpaceOnUse">
<stop offset="0.00959658" stop-color="#E6BDD1"/>
<stop offset="1" stop-color="#AB30BB"/>
</linearGradient>
<linearGradient id="paint11_linear_600_782" x1="80.5249" y1="259.704" x2="80.5249" y2="175.603" gradientUnits="userSpaceOnUse">
<stop offset="0.00959658" stop-color="#E6BDD1"/>
<stop offset="1" stop-color="#AB30BB"/>
</linearGradient>
<linearGradient id="paint12_linear_600_782" x1="128.536" y1="481.304" x2="128.536" y2="408.079" gradientUnits="userSpaceOnUse">
<stop offset="0.00959658" stop-color="#E6BDD1"/>
<stop offset="1" stop-color="#AB30BB"/>
</linearGradient>
<linearGradient id="paint13_linear_600_782" x1="333.739" y1="459.433" x2="333.739" y2="109.283" gradientUnits="userSpaceOnUse">
<stop stop-color="#FFDE00"/>
<stop offset="0.1373" stop-color="#FFA702"/>
<stop offset="0.3659" stop-color="#FF4F04"/>
<stop offset="0.4966" stop-color="#FF3D03"/>
<stop offset="0.8288" stop-color="#FF1401"/>
<stop offset="1" stop-color="#FF0400"/>
</linearGradient>
<linearGradient id="paint14_linear_600_782" x1="328.359" y1="421.767" x2="328.359" y2="170.168" gradientUnits="userSpaceOnUse">
<stop offset="0.00959658" stop-color="#FFF4CE"/>
<stop offset="1" stop-color="#D345FF"/>
</linearGradient>
<linearGradient id="paint15_linear_600_782" x1="355.718" y1="402.498" x2="355.718" y2="208.303" gradientUnits="userSpaceOnUse">
<stop offset="0.00959658" stop-color="#FFF4CE"/>
<stop offset="1" stop-color="#D345FF"/>
</linearGradient>
<linearGradient id="paint16_linear_600_782" x1="351.844" y1="548.396" x2="358.724" y2="460.649" gradientUnits="userSpaceOnUse">
<stop stop-color="#370929"/>
<stop offset="0.9904" stop-color="#4C1235"/>
</linearGradient>
<linearGradient id="paint17_linear_600_782" x1="344.173" y1="516.734" x2="348.705" y2="458.935" gradientUnits="userSpaceOnUse">
<stop stop-color="#76355C"/>
<stop offset="0.9904" stop-color="#6F3659"/>
</linearGradient>
<linearGradient id="paint18_linear_600_782" x1="340.502" y1="504.781" x2="346.462" y2="428.768" gradientUnits="userSpaceOnUse">
<stop stop-color="#370929"/>
<stop offset="0.9904" stop-color="#4C1235"/>
</linearGradient>
<linearGradient id="paint19_linear_600_782" x1="188.668" y1="462.167" x2="188.668" y2="179.065" gradientUnits="userSpaceOnUse">
<stop stop-color="#BA1F00"/>
<stop offset="0.6386" stop-color="#A50A25"/>
<stop offset="1" stop-color="#9C0135"/>
</linearGradient>
<linearGradient id="paint20_linear_600_782" x1="393.677" y1="460.655" x2="393.677" y2="169.798" gradientUnits="userSpaceOnUse">
<stop stop-color="#BA1F00"/>
<stop offset="0.6386" stop-color="#A50A25"/>
<stop offset="1" stop-color="#9C0135"/>
</linearGradient>
<linearGradient id="paint21_linear_600_782" x1="162.472" y1="459.27" x2="189.069" y2="120.074" gradientUnits="userSpaceOnUse">
<stop stop-color="#370929"/>
<stop offset="0.9904" stop-color="#4C1235"/>
</linearGradient>
<linearGradient id="paint22_linear_600_782" x1="292.199" y1="221.431" x2="303.68" y2="75.0154" gradientUnits="userSpaceOnUse">
<stop stop-color="#370929"/>
<stop offset="0.9904" stop-color="#4C1235"/>
</linearGradient>
<linearGradient id="paint23_linear_600_782" x1="429.932" y1="458.801" x2="459.081" y2="87.0618" gradientUnits="userSpaceOnUse">
<stop stop-color="#370929"/>
<stop offset="0.9904" stop-color="#4C1235"/>
</linearGradient>
<linearGradient id="paint24_linear_600_782" x1="338.06" y1="227.723" x2="355.559" y2="4.56414" gradientUnits="userSpaceOnUse">
<stop stop-color="#50193D"/>
<stop offset="0.9904" stop-color="#571A3E"/>
</linearGradient>
<linearGradient id="paint25_linear_600_782" x1="451.1" y1="248.994" x2="466.337" y2="54.671" gradientUnits="userSpaceOnUse">
<stop stop-color="#50193D"/>
<stop offset="0.9904" stop-color="#571A3E"/>
</linearGradient>
<linearGradient id="paint26_linear_600_782" x1="207.392" y1="261.176" x2="215.35" y2="159.689" gradientUnits="userSpaceOnUse">
<stop stop-color="#50193D"/>
<stop offset="0.9904" stop-color="#571A3E"/>
</linearGradient>
<linearGradient id="paint27_linear_600_782" x1="543.036" y1="366.658" x2="550.728" y2="268.556" gradientUnits="userSpaceOnUse">
<stop stop-color="#50193D"/>
<stop offset="0.9904" stop-color="#571A3E"/>
</linearGradient>
<linearGradient id="paint28_linear_600_782" x1="110.188" y1="359.366" x2="118.307" y2="255.819" gradientUnits="userSpaceOnUse">
<stop stop-color="#50193D"/>
<stop offset="0.9904" stop-color="#571A3E"/>
</linearGradient>
<linearGradient id="paint29_linear_600_782" x1="352.969" y1="59.4836" x2="366.212" y2="23.8011" gradientUnits="userSpaceOnUse">
<stop offset="0.00959658" stop-color="#300B20"/>
<stop offset="1" stop-color="#280418"/>
</linearGradient>
<linearGradient id="paint30_linear_600_782" x1="473.611" y1="147.931" x2="482.539" y2="130.733" gradientUnits="userSpaceOnUse">
<stop offset="0.00959658" stop-color="#300B20"/>
<stop offset="1" stop-color="#280418"/>
</linearGradient>
<linearGradient id="paint31_linear_600_782" x1="446.208" y1="206.593" x2="446.208" y2="139.611" gradientUnits="userSpaceOnUse">
<stop stop-color="#A13800"/>
<stop offset="0.0283" stop-color="#A03602"/>
<stop offset="0.6697" stop-color="#8B122B"/>
<stop offset="1" stop-color="#83043B"/>
</linearGradient>
<linearGradient id="paint32_linear_600_782" x1="445.01" y1="202.143" x2="445.01" y2="145.235" gradientUnits="userSpaceOnUse">
<stop stop-color="#FF4F04"/>
<stop offset="0.2061" stop-color="#FF3D03"/>
<stop offset="0.73" stop-color="#FF1401"/>
<stop offset="1" stop-color="#FF0400"/>
</linearGradient>
<linearGradient id="paint33_linear_600_782" x1="521.44" y1="347.472" x2="521.44" y2="329.165" gradientUnits="userSpaceOnUse">
<stop stop-color="#A13800"/>
<stop offset="0.0283" stop-color="#A03602"/>
<stop offset="0.6697" stop-color="#8B122B"/>
<stop offset="1" stop-color="#83043B"/>
</linearGradient>
<linearGradient id="paint34_linear_600_782" x1="521.586" y1="345.007" x2="521.586" y2="329.165" gradientUnits="userSpaceOnUse">
<stop stop-color="#FF4F04"/>
<stop offset="0.2061" stop-color="#FF3D03"/>
<stop offset="0.73" stop-color="#FF1401"/>
<stop offset="1" stop-color="#FF0400"/>
</linearGradient>
<linearGradient id="paint35_linear_600_782" x1="89.8351" y1="344.211" x2="89.0926" y2="329.248" gradientUnits="userSpaceOnUse">
<stop stop-color="#A13800"/>
<stop offset="0.0283" stop-color="#A03602"/>
<stop offset="0.6697" stop-color="#8B122B"/>
<stop offset="1" stop-color="#83043B"/>
</linearGradient>
<linearGradient id="paint36_linear_600_782" x1="89.5923" y1="341.93" x2="88.9633" y2="329.254" gradientUnits="userSpaceOnUse">
<stop stop-color="#FF4F04"/>
<stop offset="0.2061" stop-color="#FF3D03"/>
<stop offset="0.73" stop-color="#FF1401"/>
<stop offset="1" stop-color="#FF0400"/>
</linearGradient>
<linearGradient id="paint37_linear_600_782" x1="218.791" y1="246.09" x2="218.791" y2="230.952" gradientUnits="userSpaceOnUse">
<stop stop-color="#A13800"/>
<stop offset="0.0283" stop-color="#A03602"/>
<stop offset="0.6697" stop-color="#8B122B"/>
<stop offset="1" stop-color="#83043B"/>
</linearGradient>
<linearGradient id="paint38_linear_600_782" x1="218.473" y1="242.268" x2="218.473" y2="232.316" gradientUnits="userSpaceOnUse">
<stop stop-color="#FF4F04"/>
<stop offset="0.2061" stop-color="#FF3D03"/>
<stop offset="0.73" stop-color="#FF1401"/>
<stop offset="1" stop-color="#FF0400"/>
</linearGradient>
<linearGradient id="paint39_linear_600_782" x1="353.643" y1="199.264" x2="353.643" y2="66.6583" gradientUnits="userSpaceOnUse">
<stop stop-color="#A13800"/>
<stop offset="0.0283" stop-color="#A03602"/>
<stop offset="0.6697" stop-color="#8B122B"/>
<stop offset="1" stop-color="#83043B"/>
</linearGradient>
<linearGradient id="paint40_linear_600_782" x1="352.903" y1="197.594" x2="352.903" y2="70.3875" gradientUnits="userSpaceOnUse">
<stop stop-color="#FF4F04"/>
<stop offset="0.2061" stop-color="#FF3D03"/>
<stop offset="0.73" stop-color="#FF1401"/>
<stop offset="1" stop-color="#FF0400"/>
</linearGradient>
<linearGradient id="paint41_linear_600_782" x1="331.674" y1="117.148" x2="331.674" y2="79.4616" gradientUnits="userSpaceOnUse">
<stop stop-color="#A13800"/>
<stop offset="0.0283" stop-color="#A03602"/>
<stop offset="0.6697" stop-color="#8B122B"/>
<stop offset="1" stop-color="#83043B"/>
</linearGradient>
<linearGradient id="paint42_linear_600_782" x1="330.771" y1="105.202" x2="330.771" y2="82.9992" gradientUnits="userSpaceOnUse">
<stop stop-color="#FF4F04"/>
<stop offset="0.2061" stop-color="#FF3D03"/>
<stop offset="0.73" stop-color="#FF1401"/>
<stop offset="1" stop-color="#FF0400"/>
</linearGradient>
<linearGradient id="paint43_linear_600_782" x1="522.38" y1="267.106" x2="522.38" y2="212.483" gradientUnits="userSpaceOnUse">
<stop stop-color="#A13800"/>
<stop offset="0.0283" stop-color="#A03602"/>
<stop offset="0.6697" stop-color="#8B122B"/>
<stop offset="1" stop-color="#83043B"/>
</linearGradient>
<linearGradient id="paint44_linear_600_782" x1="522.987" y1="255.902" x2="522.987" y2="234.743" gradientUnits="userSpaceOnUse">
<stop stop-color="#FF4F04"/>
<stop offset="0.2061" stop-color="#FF3D03"/>
<stop offset="0.73" stop-color="#FF1401"/>
<stop offset="1" stop-color="#FF0400"/>
</linearGradient>
<linearGradient id="paint45_linear_600_782" x1="576.923" y1="465.038" x2="576.923" y2="161.985" gradientUnits="userSpaceOnUse">
<stop stop-color="#632300"/>
<stop offset="0.9904"/>
</linearGradient>
<linearGradient id="paint46_linear_600_782" x1="390.804" y1="472.606" x2="390.804" y2="374.779" gradientUnits="userSpaceOnUse">
<stop stop-color="#632300"/>
<stop offset="0.9904"/>
</linearGradient>
</defs>
</svg>
