<svg width="64" height="75" viewBox="0 0 64 75" fill="none" xmlns="http://www.w3.org/2000/svg">
<path fill-rule="evenodd" clip-rule="evenodd" d="M62.7993 17.7244C60.6853 41.3564 45.8015 72.0764 38.4364 72.7004C29.6392 73.4524 4.38978 76.4764 0.604924 67.0364C0.144604 65.8844 -0.042875 64.5084 0.0253205 63.0204C1.01416 40.6044 58.2131 -16.8996 62.3901 4.81236C63.1232 8.63636 63.1915 13.0364 62.7993 17.7244Z" fill="url(#paint0_linear_599_1015)"/>
<path fill-rule="evenodd" clip-rule="evenodd" d="M62.7822 17.7241C61.9639 26.8281 59.2701 37.0041 55.8092 46.0921C50.3194 60.5721 42.9543 72.3161 38.4193 72.7001C29.6221 73.4521 4.38971 76.4601 0.587805 67.0521C0.144534 65.8841 -0.0429457 64.5241 0.008201 63.0361C0.008201 63.0361 0.0423113 63.0361 0.127556 63.0521C2.13932 63.0041 29.7244 62.5721 41.7609 58.1081C41.795 58.0921 41.8462 58.0761 41.8632 58.0601C41.8632 58.0601 41.8803 58.0601 41.8973 58.0601C43.2953 57.5481 44.4546 56.9721 45.3582 56.3161C53.5587 50.4601 61.5547 22.2841 62.7822 17.7241Z" fill="#D07CAF"/>
<path fill-rule="evenodd" clip-rule="evenodd" d="M0.793085 58.5881C-0.536729 62.9561 36.1185 59.1641 45.9557 52.6041C55.844 46.0121 63.2944 5.3561 57.3614 3.4041C51.4113 1.4521 11.9772 21.7881 0.793085 58.5881Z" fill="#A17DBD"/>
<path fill-rule="evenodd" clip-rule="evenodd" d="M55.8092 46.0923C50.3194 60.5723 42.9543 72.3163 38.4193 72.7003C29.6221 73.4523 4.38971 76.4603 0.587805 67.0523C0.144534 65.8843 -0.0429457 64.5243 0.008201 63.0363C0.008201 63.0363 0.0423113 63.0363 0.127556 63.0523C2.24162 63.1163 30.645 63.9003 41.7609 58.1083C41.778 58.0923 41.8291 58.0763 41.8461 58.0603C41.8461 58.0603 41.8461 58.0603 41.8632 58.0603C41.8632 58.0603 41.8803 58.0603 41.8973 58.0603C42.5281 57.9803 48.1543 57.1483 53.6099 49.0843C54.3942 47.9163 55.1102 46.9403 55.8092 46.0923Z" fill="#D07CAF"/>
<g opacity="0.5">
<path fill-rule="evenodd" clip-rule="evenodd" d="M41.761 58.0928C41.761 58.0928 35.4359 70.9408 31.3953 73.3088C27.3376 75.6608 4.57736 75.0688 2.59969 71.0528C0.604966 67.0368 0.0253906 63.0208 0.0253906 63.0208C0.0253906 63.0208 33.3218 62.9568 41.761 58.0928Z" fill="#FFA8CE"/>
</g>
<defs>
<linearGradient id="paint0_linear_599_1015" x1="28.3508" y1="74.5679" x2="34.3398" y2="-1.80887" gradientUnits="userSpaceOnUse">
<stop stop-color="#50193D"/>
<stop offset="0.9904" stop-color="#571A3E"/>
</linearGradient>
</defs>
</svg>
