<svg width="21" height="24" viewBox="0 0 21 24" fill="none" xmlns="http://www.w3.org/2000/svg">
<path d="M20.9654 17.1771C20.406 18.3952 20.1384 18.9399 19.4199 20.0163C18.416 21.5197 16.9987 23.3956 15.2464 23.4085C13.6877 23.4214 13.2854 22.4084 11.1701 22.425C9.05483 22.4351 8.61418 23.4269 7.05367 23.4112C5.30136 23.3956 3.95977 21.7055 2.95498 20.2049C0.145494 15.9958 -0.151078 11.0625 1.58532 8.43765C2.81371 6.57642 4.7578 5.48342 6.58308 5.48342C8.44204 5.48342 9.61055 6.4881 11.1477 6.4881C12.639 6.4881 13.5474 5.48066 15.6973 5.48066C17.3233 5.48066 19.0429 6.35193 20.2713 7.85527C16.2521 10.021 16.9051 15.6664 20.9654 17.1771ZM14.0657 3.80067C14.8478 2.81347 15.441 1.42054 15.2258 0C13.9497 0.0855634 12.4575 0.886915 11.5855 1.92472C10.7959 2.86959 10.141 4.27357 10.3964 5.63154C11.7885 5.6757 13.2293 4.85963 14.0657 3.80067Z" fill="#E6E6E6"/>
</svg>
