<svg width="368" height="62" viewBox="0 0 368 62" fill="none" xmlns="http://www.w3.org/2000/svg">
<g clip-path="url(#clip0_51_9457)">
<path d="M335.074 47.6917C335.619 46.8121 336.101 45.8485 336.519 44.8012C336.938 43.7123 337.274 42.6023 337.525 41.471C337.776 40.2984 337.965 39.1254 338.09 37.9524C338.258 36.7795 338.362 35.6485 338.405 34.5595C337.232 33.3447 336.059 32.13 334.886 30.9152C333.755 29.6585 332.582 28.6742 331.367 27.962C331.367 25.9933 330.99 23.8151 330.236 21.4274C329.482 18.9978 328.456 16.6311 327.157 14.3272C325.901 11.9815 324.456 9.82419 322.822 7.85541C321.188 5.84475 319.492 4.27394 317.732 3.14293C319.743 3.14293 321.356 3.22671 322.57 3.39426C323.785 3.51994 324.77 3.72936 325.524 4.0226C326.278 4.27394 326.864 4.58808 327.283 4.96508C327.702 5.30021 328.121 5.6772 328.54 6.09608C329.126 5.04887 330.11 4.27394 331.493 3.77127C332.875 3.2686 334.383 2.97538 336.017 2.8916C335.514 3.60369 335.074 4.3996 334.697 5.27927C334.362 6.11702 334.195 6.97574 334.195 7.85541C334.195 8.06486 334.195 8.25338 334.195 8.42092C334.236 8.58847 334.278 8.77698 334.32 8.9864L340.98 24.569L343.368 27.0195L345.693 24.6319L352.102 8.9864C352.144 8.77698 352.165 8.58847 352.165 8.42092C352.165 8.25338 352.165 8.06486 352.165 7.85541C352.165 6.93387 351.892 6.0542 351.35 5.21642C350.845 4.37866 350.32 3.60369 349.777 2.8916C350.446 3.22671 351.161 3.49898 351.913 3.70842C352.666 3.91788 353.422 4.08542 354.175 4.21109C354.928 4.29488 355.642 4.35769 356.311 4.3996C356.983 4.44148 357.568 4.46242 358.072 4.46242C358.951 4.46242 359.725 4.37866 360.397 4.21109C361.108 4.04354 361.819 3.876 362.533 3.70842C363.286 3.49898 364.081 3.31048 364.921 3.14293C365.758 2.97538 366.784 2.8916 367.999 2.8916C366.868 3.60369 365.716 4.58808 364.543 5.84475C363.37 7.10141 362.239 8.50471 361.15 10.0546C360.061 11.6045 359.014 13.2381 358.009 14.9556C357.046 16.6311 356.185 18.2648 355.432 19.8565C354.721 21.4483 354.154 22.9354 353.734 24.3177C353.317 25.6582 353.107 26.7682 353.107 27.6479C351.85 28.4438 350.782 29.5119 349.903 30.8524C349.023 32.1509 348.123 33.3657 347.201 34.4967C347.243 35.7532 347.348 37.0519 347.515 38.3922C347.725 39.6909 347.976 40.9476 348.269 42.1622C348.605 43.3772 348.961 44.4872 349.337 45.4924C349.756 46.456 350.198 47.1889 350.656 47.6917C348.772 48.9063 347.264 50.1003 346.133 51.2733C345.002 52.4459 344.101 53.9123 343.431 55.6714C343.012 53.954 341.986 52.4253 340.352 51.0846C338.761 49.7862 337.001 48.6553 335.074 47.6917Z" fill="white"/>
<path d="M319.989 3.5815C318.983 4.46117 317.873 5.29892 316.659 6.09483C315.486 6.8907 314.25 7.58189 312.951 8.1683C311.653 8.75476 310.312 9.23648 308.93 9.61348C307.548 9.94861 306.166 10.1161 304.783 10.1161C304.322 10.1161 303.883 10.1161 303.464 10.1161C303.045 10.1161 302.626 10.0952 302.207 10.0533C302.081 11.31 302.019 12.5876 302.019 13.8861C302.019 17.4467 302.04 21.0282 302.081 24.6306C302.123 28.2331 302.144 32.0659 302.144 36.1291C302.144 38.3074 302.521 40.4226 303.275 42.4751C304.071 44.486 305.202 45.952 306.668 46.8736C304.909 47.7115 303.422 48.5911 302.207 49.5126C301.034 50.4759 299.987 51.8372 299.065 53.5967C298.353 51.8792 297.243 50.4969 295.735 49.4496C294.227 48.4443 292.531 47.5858 290.646 46.8736C291.483 45.659 292.112 44.0879 292.531 42.161C292.95 40.1922 293.159 38.2864 293.159 36.4432C293.159 34.642 293.159 33.0503 293.159 31.6679C293.159 30.2437 293.159 28.9242 293.159 27.7094C293.201 26.4947 293.222 25.3218 293.222 24.1908C293.264 23.0598 293.285 21.845 293.285 20.5464C293.327 19.2479 293.348 17.8237 293.348 16.2738C293.348 14.7239 293.348 12.9017 293.348 10.8073C293.348 10.4722 293.348 10.158 293.348 9.86482C293.348 9.57161 293.306 9.25742 293.222 8.9223C290.457 8.41964 287.818 7.91697 285.305 7.41431C282.834 6.86977 280.571 6.59749 278.519 6.59749C277.597 6.59749 276.613 6.70219 275.566 6.91164L275.503 6.72316C277.765 6.05292 279.608 5.2361 281.032 4.27265C282.498 3.30921 283.964 2.15727 285.431 0.816827C287.609 1.44516 289.452 1.94783 290.96 2.32483C292.51 2.70183 293.934 2.99505 295.232 3.20449C296.573 3.41394 297.871 3.56053 299.128 3.64432C300.427 3.6862 301.893 3.70717 303.527 3.70717C303.107 2.99505 302.814 2.36672 302.647 1.82216C302.479 1.23572 302.375 0.628331 302.333 0C303.715 0.879664 304.993 1.57083 306.166 2.0735C307.38 2.53427 308.532 2.89032 309.621 3.14166C310.71 3.3511 311.799 3.47677 312.889 3.51865C313.978 3.56053 315.109 3.5815 316.282 3.5815C316.952 3.5815 317.559 3.56053 318.104 3.51865C318.69 3.47677 319.277 3.41394 319.863 3.33016L319.989 3.5815Z" fill="white"/>
<path d="M273.775 2.95443C272.896 3.54088 272.142 4.33675 271.514 5.34208C270.927 6.30554 270.445 7.37368 270.068 8.54659C269.733 9.67758 269.482 10.8714 269.314 12.1281C269.147 13.3428 269.063 14.5158 269.063 15.6467C269.063 16.4426 269.084 17.3013 269.126 18.2229C269.21 19.1026 269.314 20.0241 269.44 20.9875C269.607 21.9091 269.796 22.8307 270.005 23.7522C270.257 24.6319 270.55 25.4487 270.885 26.2027C270.215 27.3337 269.754 28.6951 269.503 30.2869C269.293 31.8786 269.189 33.4704 269.189 35.062C269.189 37.7431 269.524 40.2984 270.194 42.7277C270.864 45.1153 272.267 47.4613 274.404 49.7652C272.142 49.4718 270.152 49.2834 268.435 49.1997C266.759 49.074 265.23 49.011 263.848 49.011C261.963 49.011 260.329 49.074 258.947 49.1997C257.565 49.3254 256.182 49.4928 254.8 49.7022C255.679 49.1577 256.496 48.4455 257.25 47.566C258.004 46.6444 258.653 45.6391 259.198 44.5498C259.743 43.4609 260.162 42.3089 260.455 41.0943C260.79 39.8793 260.957 38.6856 260.957 37.5127C260.957 35.3764 260.706 33.3029 260.204 31.2922C259.701 29.2396 258.905 27.5432 257.816 26.2027C258.989 24.0245 259.764 22.0348 260.141 20.2335C260.518 18.4323 260.706 16.5683 260.706 14.6414C260.706 13.4685 260.643 12.2118 260.518 10.8714C258.884 10.2012 257.774 9.15398 257.187 7.72974C256.601 6.26366 256.224 4.65094 256.056 2.8916C257.439 3.2686 258.717 3.54088 259.889 3.70842C261.104 3.876 262.256 3.95975 263.345 3.95975C265.272 3.95975 267.052 3.85503 268.686 3.64561C270.32 3.39426 272.016 3.16388 273.775 2.95443Z" fill="white"/>
<path d="M215.646 49.3867C216.274 49.0096 216.819 48.2978 217.28 47.2505C217.782 46.2032 218.201 45.0092 218.536 43.6689C218.913 42.3285 219.185 40.9462 219.353 39.5218C219.521 38.0557 219.604 36.7154 219.604 35.5007C219.604 33.6156 219.395 31.8144 218.976 30.097C218.599 28.3795 218.054 27.081 217.342 26.2013C218.012 25.5311 218.557 24.6514 218.976 23.5623C219.437 22.4313 219.793 21.2375 220.044 19.9808C220.295 18.6823 220.463 17.3628 220.547 16.0223C220.63 14.6819 220.672 13.4252 220.672 12.2523C220.672 11.2889 220.651 10.4511 220.609 9.73899C220.568 9.02691 220.526 8.48233 220.484 8.10533C219.521 7.77024 218.515 7.07906 217.468 6.03186C216.463 4.98461 215.709 3.85362 215.206 2.63885C217.887 2.93207 220.421 3.14151 222.809 3.26718C225.238 3.35096 227.521 3.39285 229.657 3.39285C234.223 3.39285 237.91 3.24624 240.716 2.95302C243.523 2.6598 245.743 2.51318 247.376 2.51318C247.712 2.51318 248.005 2.53413 248.256 2.57602C248.507 2.57602 248.738 2.59696 248.947 2.63885C248.696 3.14151 248.424 4.08401 248.131 5.46634C247.879 6.84867 247.628 8.35666 247.376 9.99032C247.125 11.624 246.895 13.2158 246.685 14.7656C246.518 16.3155 246.392 17.4884 246.309 18.2843L245.868 18.4728C244.402 17.3837 243.334 16.1899 242.664 14.8913C242.036 13.5509 241.554 11.9172 241.219 9.99032C240.632 9.52957 239.9 9.23633 239.02 9.11066C238.14 8.98499 237.03 8.92218 235.689 8.92218C234.6 8.92218 233.553 8.94312 232.548 8.98499C231.543 9.02691 230.747 9.04784 230.16 9.04784C229.951 10.2626 229.762 11.6659 229.595 13.2576C229.469 14.8494 229.343 16.5459 229.218 18.3471C229.134 20.1483 229.05 22.0333 228.966 24.0021C228.925 25.929 228.904 27.8559 228.904 29.7828C228.904 32.4218 228.925 34.9351 228.966 37.3229C229.05 39.6685 229.176 41.721 229.343 43.4805L239.962 44.5484C240.549 41.9514 241.575 39.6475 243.041 37.637C244.549 35.6264 246.162 33.6785 247.879 31.7935L248.256 31.9191C248.131 32.8825 248.047 33.846 248.005 34.8095C247.963 35.7311 247.942 36.6317 247.942 37.5113C247.942 39.6895 248.047 41.6584 248.256 43.4175C248.466 45.1769 248.717 46.4963 249.01 47.3762C248.298 47.4599 247.586 47.5856 246.874 47.7529C246.203 47.8786 245.471 48.109 244.675 48.4441C243.879 48.7792 243.02 49.24 242.098 49.8265C241.219 50.413 240.235 51.1672 239.145 52.0884C235.627 51.0415 232.15 50.2456 228.715 49.7008C225.28 49.1983 222.181 48.9469 219.416 48.9469C218.075 48.9469 216.839 49.1563 215.709 49.5751L215.646 49.3867Z" fill="white"/>
<path d="M168.726 57.9781C165.543 59.5699 162.569 60.5751 159.804 60.9943C157.039 61.413 154.526 61.6224 152.264 61.6224C149.96 61.6224 147.907 61.3293 146.106 60.7429C144.305 60.1564 142.65 59.4025 141.142 58.4809C139.676 57.601 138.315 56.6378 137.058 55.5905C135.802 54.5432 134.566 53.559 133.351 52.6374C132.136 51.7578 130.901 51.0247 129.644 50.4382C128.429 49.8517 127.089 49.5586 125.623 49.5586C124.282 49.5586 122.921 49.6843 121.539 49.9357C123.214 47.9248 124.45 45.5582 125.245 42.8355C126.041 40.0708 126.439 37.1804 126.439 34.1644C126.439 33.2848 126.397 32.3841 126.314 31.4626C126.23 30.4991 126.062 29.5776 125.811 28.6979C125.602 27.7764 125.266 26.9177 124.806 26.1218C124.387 25.284 123.821 24.551 123.109 23.9226C124.282 21.7444 125.078 19.7547 125.497 17.9535C125.958 16.1523 126.188 14.2882 126.188 12.3613C126.188 10.3926 126.062 8.88456 125.811 7.83731C125.602 6.74823 125.245 5.8895 124.743 5.26117C124.24 4.63284 123.591 4.1092 122.795 3.69033C122.041 3.22956 121.099 2.62217 119.968 1.86817C120.764 1.95195 121.518 2.01478 122.23 2.05667C122.984 2.09856 123.717 2.1195 124.429 2.1195C126.104 2.1195 127.654 2.03573 129.078 1.86817C130.503 1.70061 131.843 1.51212 133.1 1.30267C134.357 1.09323 135.571 0.90473 136.744 0.737172C137.917 0.569618 139.111 0.48584 140.325 0.48584C141.163 0.48584 142.064 0.548673 143.027 0.674343C141.98 0.674343 140.975 1.07228 140.011 1.86817C139.09 2.66406 138.252 3.69033 137.498 4.94699C136.786 6.16178 136.2 7.52317 135.739 9.03116C135.32 10.4973 135.11 11.9424 135.11 13.3666V29.2634C135.11 30.6458 135.152 31.9653 135.236 33.2219C135.362 34.4367 135.509 35.5466 135.676 36.5522C135.885 37.5154 136.116 38.3533 136.367 39.0655C136.618 39.7774 136.891 40.2802 137.184 40.5732C136.472 40.8667 135.634 41.2644 134.671 41.7672C133.749 42.228 133.037 42.9402 132.534 43.9035C132.785 44.7413 133.519 45.7886 134.733 47.0453C135.99 48.2599 137.435 49.4749 139.069 50.6896C140.703 51.9462 142.378 53.0772 144.095 54.0825C145.855 55.0877 147.342 55.7789 148.557 56.156C148.012 55.4438 147.468 54.6063 146.923 53.6427C146.42 52.7211 146.002 51.9042 145.667 51.1924C147.593 52.365 149.373 53.3496 151.007 54.1455C152.641 54.9413 154.17 55.5905 155.594 56.0933C157.06 56.5958 158.464 56.9519 159.804 57.1613C161.144 57.371 162.506 57.4757 163.888 57.4757C164.6 57.4757 165.333 57.4337 166.087 57.35C166.841 57.308 167.637 57.2453 168.475 57.1613L168.726 57.9781Z" fill="#FF0909"/>
<path d="M135.47 57.9781C132.286 59.5699 129.312 60.5751 126.547 60.9943C123.783 61.413 121.269 61.6224 119.007 61.6224C116.703 61.6224 114.651 61.3293 112.85 60.7429C111.048 60.1564 109.394 59.4025 107.886 58.4809C106.42 57.601 105.058 56.6378 103.802 55.5905C102.545 54.5432 101.309 53.559 100.094 52.6374C98.8798 51.7578 97.6441 51.0247 96.3875 50.4382C95.1725 49.8517 93.8321 49.5586 92.3661 49.5586C91.0257 49.5586 89.664 49.6843 88.282 49.9357C89.9575 47.9248 91.1931 45.5582 91.989 42.8355C92.7849 40.0708 93.183 37.1804 93.183 34.1644C93.183 33.2848 93.141 32.3841 93.0573 31.4626C92.9732 30.4991 92.8059 29.5776 92.5545 28.6979C92.3451 27.7764 92.01 26.9177 91.5492 26.1218C91.1304 25.284 90.565 24.551 89.8528 23.9226C91.0257 21.7444 91.8216 19.7547 92.2404 17.9535C92.7012 16.1523 92.9316 14.2882 92.9316 12.3613C92.9316 10.3926 92.8059 8.88456 92.5545 7.83731C92.3451 6.74823 91.989 5.8895 91.4865 5.26117C90.9837 4.63284 90.3346 4.1092 89.5387 3.69033C88.7845 3.22956 87.8419 2.62217 86.7109 1.86817C87.5068 1.95195 88.261 2.01478 88.9729 2.05667C89.7271 2.09856 90.4599 2.1195 91.1721 2.1195C92.8479 2.1195 94.3976 2.03573 95.822 1.86817C97.246 1.70061 98.5864 1.51212 99.843 1.30267C101.1 1.09323 102.315 0.90473 103.487 0.737172C104.66 0.569618 105.854 0.48584 107.069 0.48584C107.907 0.48584 108.807 0.548673 109.771 0.674343C108.724 0.674343 107.718 1.07228 106.755 1.86817C105.833 2.66406 104.995 3.69033 104.242 4.94699C103.529 6.16178 102.943 7.52317 102.482 9.03116C102.063 10.4973 101.854 11.9424 101.854 13.3666V29.2634C101.854 30.6458 101.896 31.9653 101.98 33.2219C102.105 34.4367 102.252 35.5466 102.419 36.5522C102.629 37.5154 102.859 38.3533 103.111 39.0655C103.362 39.7774 103.634 40.2802 103.927 40.5732C103.215 40.8667 102.377 41.2644 101.414 41.7672C100.493 42.228 99.7804 42.9402 99.2776 43.9035C99.529 44.7413 100.262 45.7886 101.477 47.0453C102.733 48.2599 104.179 49.4749 105.812 50.6896C107.446 51.9462 109.121 53.0772 110.839 54.0825C112.598 55.0877 114.085 55.7789 115.3 56.156C114.756 55.4438 114.211 54.6063 113.666 53.6427C113.164 52.7211 112.745 51.9042 112.41 51.1924C114.337 52.365 116.117 53.3496 117.751 54.1455C119.384 54.9413 120.913 55.5905 122.338 56.0933C123.804 56.5958 125.207 56.9519 126.547 57.1613C127.888 57.371 129.249 57.4757 130.631 57.4757C131.344 57.4757 132.076 57.4337 132.831 57.35C133.585 57.308 134.38 57.2453 135.218 57.1613L135.47 57.9781Z" fill="#FF0909"/>
<path d="M49.0062 47.108C49.6347 46.7309 50.1792 46.0187 50.64 44.9714C51.1424 43.9245 51.5615 42.7305 51.8966 41.3902C52.2737 40.0498 52.5458 38.6675 52.7135 37.2431C52.8809 35.7771 52.9646 34.4366 52.9646 33.2218C52.9646 31.3368 52.7552 29.5356 52.3364 27.8181C51.9593 26.1007 51.4148 24.8021 50.7026 23.9225C51.3728 23.2523 51.9176 22.3726 52.3364 21.2835C52.7972 20.1525 53.1533 18.9587 53.4047 17.702C53.6557 16.4034 53.8235 15.084 53.9071 13.7435C53.9908 12.4031 54.0328 11.1464 54.0328 9.97353C54.0328 9.01007 54.0118 8.17229 53.9702 7.4602C53.9281 6.74808 53.8861 6.20354 53.8445 5.82654C52.8809 5.49142 51.8756 4.80024 50.8283 3.75303C49.8231 2.70581 49.0692 1.57482 48.5664 0.360042C51.2471 0.653265 53.7814 0.862706 56.1691 0.988373C58.5987 1.07215 60.8816 1.11404 63.0178 1.11404C67.5841 1.11404 71.27 0.967431 74.0768 0.674211C76.8831 0.380987 79.1034 0.234375 80.7368 0.234375C81.0723 0.234375 81.3653 0.255319 81.6167 0.297207C81.8681 0.297207 82.0985 0.318153 82.3079 0.360042C82.0565 0.820819 81.7841 1.65859 81.491 2.87337C81.2396 4.08815 80.9882 5.4286 80.7368 6.89469C80.4858 8.31893 80.2554 9.72219 80.0456 11.1045C79.8783 12.445 79.7526 13.4503 79.6689 14.1205L79.2291 14.309C77.7627 13.4712 76.6948 12.5287 76.0246 11.4815C75.3961 10.4343 74.9143 9.17762 74.5792 7.71153C73.9927 7.25075 73.2599 6.95754 72.3803 6.83187C71.5004 6.7062 70.3904 6.64335 69.0501 6.64335C67.9608 6.64335 66.9135 6.66429 65.9083 6.7062C64.903 6.74808 64.1071 6.76902 63.5207 6.76902C63.1856 8.40268 62.9342 10.3924 62.7668 12.7382C62.5991 15.084 62.4734 17.5764 62.3897 20.2153C62.9762 20.2991 63.5627 20.3619 64.1492 20.4038C64.7773 20.4038 65.2591 20.4038 65.5942 20.4038C66.4738 20.4038 67.3327 20.0687 68.1702 19.3985C69.0501 18.6864 69.8876 17.7858 70.6835 16.6967C70.8933 17.1994 71.1026 17.7858 71.312 18.456C71.5214 19.0843 71.7518 19.7336 72.0032 20.4038C72.2963 21.0322 72.6107 21.6395 72.9458 22.226C73.2809 22.8124 73.6786 23.2523 74.1394 23.5455C73.7623 23.9225 73.3856 24.4042 73.0085 24.9907C72.6734 25.5771 72.3383 26.2054 72.0032 26.8757C71.7098 27.5459 71.4167 28.2161 71.1237 28.8863C70.8722 29.5565 70.6419 30.1639 70.4325 30.7085C70.1811 30.2477 69.8876 29.745 69.5526 29.2005C69.2175 28.6559 68.8614 28.1533 68.4846 27.6925C68.1075 27.2317 67.6887 26.8547 67.228 26.5615C66.8088 26.2264 66.3481 26.0588 65.8456 26.0588C65.4685 26.0588 64.924 26.0798 64.2118 26.1217C63.4996 26.1635 62.8505 26.2473 62.264 26.373V27.504C62.264 30.143 62.285 32.6563 62.327 35.0438C62.4107 37.3898 62.5364 39.4423 62.7038 41.2015L73.3225 42.2697C73.909 39.6727 74.9353 37.3688 76.4014 35.3583C77.9094 33.3475 79.5222 31.3996 81.2396 29.5146L81.6167 29.6403C81.491 30.6038 81.4073 31.5672 81.3653 32.5306C81.3233 33.4522 81.3027 34.3528 81.3027 35.2326C81.3027 37.4108 81.4073 39.3793 81.6167 41.1388C81.8261 42.8983 82.0775 44.2176 82.3706 45.0972C81.6584 45.1812 80.9466 45.3069 80.2344 45.4743C79.5642 45.6 78.831 45.8303 78.0351 46.1654C77.2392 46.5005 76.3807 46.9613 75.4591 47.5478C74.5792 48.1343 73.595 48.8881 72.5057 49.8097C68.9871 48.7624 65.5105 47.9666 62.0756 47.4221C58.6407 46.9193 55.5409 46.6682 52.7762 46.6682C51.4358 46.6682 50.2002 46.8776 49.0692 47.2964L49.0062 47.108Z" fill="#FF0909"/>
<path d="M18.0331 0.67465C17.4048 1.26109 16.8602 2.05698 16.3995 3.06231C15.9806 4.02574 15.6245 5.09392 15.3313 6.26679C15.0799 7.39779 14.8915 8.59163 14.7658 9.84829C14.6401 11.0631 14.5773 12.236 14.5773 13.3669V21.3468C15.9596 21.5143 17.4048 21.619 18.9128 21.6609C20.4208 21.6609 21.9707 21.6609 23.5624 21.6609C24.6934 21.6609 25.7407 21.64 26.7041 21.5981C27.6675 21.5562 28.7567 21.4934 29.9714 21.4096V12.3616C29.9714 10.3091 29.8248 8.46597 29.5316 6.83231C29.2384 5.15673 28.6729 3.31364 27.8351 1.30298C29.3431 1.55431 30.9139 1.67998 32.5476 1.67998C34.3069 1.67998 36.1081 1.57526 37.9513 1.36581C39.8361 1.15637 41.7423 0.925982 43.6691 0.67465C42.5381 1.34487 41.6582 2.22454 41.0301 3.31364C40.4016 4.36086 39.9201 5.51279 39.585 6.76945C39.2916 8.02612 39.1032 9.30375 39.0196 10.6023C38.9775 11.9008 38.9565 13.1156 38.9565 14.2466C38.9565 15.2101 38.9985 16.1735 39.0822 17.1369C39.1659 18.0585 39.3126 18.9591 39.522 19.8388C39.7734 20.6766 40.0875 21.4515 40.4646 22.1636C40.8834 22.8757 41.4072 23.4622 42.0353 23.9229C41.2815 25.2634 40.5903 26.9389 39.9618 28.9496C39.3753 30.9603 39.0822 32.9709 39.0822 34.9816C39.0822 36.0706 39.1032 37.1388 39.1449 38.1861C39.2289 39.1914 39.3753 40.155 39.585 41.0765C39.8361 41.9561 40.1712 42.773 40.5903 43.5268C41.0511 44.239 41.6376 44.8255 42.3494 45.2863C40.3809 45.9981 38.8939 46.9197 37.8882 48.051C36.883 49.182 36.0454 50.2919 35.3749 51.3809C35.1655 50.8364 34.8096 50.2499 34.3069 49.6218C33.8042 49.0353 33.2178 48.4698 32.5476 47.9253C31.8774 47.3805 31.1234 46.8781 30.2856 46.4173C29.4897 45.9565 28.6519 45.5794 27.7723 45.2863C28.3168 44.6998 28.7357 43.9456 29.0289 43.0244C29.3221 42.0608 29.5316 40.9925 29.6573 39.8199C29.8248 38.6469 29.9086 37.3902 29.9086 36.0499C29.9505 34.7093 29.9714 33.3479 29.9714 31.9656V29.3266C28.7567 29.2009 27.6885 29.1171 26.7669 29.0753C25.8873 28.9915 24.9448 28.9496 23.9394 28.9496C22.0544 28.9496 20.358 28.9915 18.85 29.0753C17.3839 29.159 16.0015 29.2847 14.7029 29.4523V32.7824C14.7029 35.4634 14.9543 38.0184 15.4569 40.448C15.9596 42.8357 17.0278 45.1816 18.6615 47.4852C16.7765 47.1921 15.0799 47.0038 13.572 46.9197C12.1059 46.7944 10.8073 46.7313 9.6763 46.7313C7.79131 46.7313 6.15764 46.7944 4.77532 46.9197C3.39299 47.0454 2.01066 47.2131 0.628331 47.4225C1.50799 46.8781 2.32483 46.1659 3.07883 45.2863C3.83284 44.4064 4.48211 43.4221 5.02665 42.3332C5.57123 41.2439 5.9901 40.0919 6.28331 38.8773C6.61843 37.6623 6.78598 36.4477 6.78598 35.233C6.78598 33.0966 6.53464 31.0231 6.03198 29.0124C5.52931 26.9599 4.73344 25.2634 3.64432 23.9229C4.81719 21.7447 5.6131 19.755 6.03198 17.9538C6.49277 16.1525 6.72316 14.2885 6.72316 12.3616C6.72316 11.1887 6.66031 9.93208 6.53464 8.59163C5.02665 8.21463 3.62338 7.39779 2.32483 6.14112C1.06816 4.88446 0.293221 3.04137 0 0.611816C1.75933 0.988815 3.39299 1.26109 4.90098 1.42865C6.40898 1.5962 7.83322 1.67998 9.17363 1.67998C10.7654 1.67998 12.2525 1.57526 13.6348 1.36581C15.059 1.11448 16.5251 0.884094 18.0331 0.67465Z" fill="#FF0909"/>
<path d="M164.978 46.7481C165.38 51.2884 171.341 52.9249 174.339 49.9386L178.445 45.8828C180.068 44.462 180.994 44.4186 182.297 45.8828L186.409 49.9105C189.304 52.9256 195.918 52.2365 196.224 47.364C196.254 47.0597 196.269 46.7516 196.269 46.4396L197.775 28.8296C197.775 23.5097 193.422 19.1567 188.102 19.1567H172.99C167.67 19.1567 163.317 23.5097 163.317 28.8296L164.973 46.4396C164.973 46.5429 164.975 46.6462 164.979 46.7488L164.978 46.7481Z" fill="#FF0808"/>
<path d="M196.252 46.2932C196.245 46.4161 196.237 46.5393 196.225 46.6619C195.919 51.5345 189.304 52.2235 186.409 49.2085L182.297 45.1808C180.994 43.7165 180.068 43.7595 178.445 45.1808L174.339 49.2365C171.396 52.1682 165.598 50.644 165.007 46.2925H164.959L164.973 46.4395C164.973 46.5428 164.975 46.6461 164.978 46.7487C165.38 51.2887 171.341 52.9252 174.339 49.9392L178.445 45.8835C180.067 44.4623 180.994 44.4189 182.297 45.8835L186.409 49.9108C189.304 52.9259 195.919 52.2372 196.225 47.3646C196.254 47.0603 196.269 46.7522 196.269 46.4402L196.282 46.2932H196.252Z" fill="#FF0808"/>
<path d="M164.675 43.2806C164.731 42.9613 167.59 31.8823 167.59 31.8823C167.59 31.8823 175.946 31.9325 179.808 28.0275L176.951 33.9999C176.951 33.9999 190.562 33.4542 193.118 27.7254C193.118 27.7254 196.542 43.7732 196.538 43.2799C196.534 42.7862 194.581 25.3277 194.581 25.3277L173.62 24.3511L166.039 28.3138L165.235 31.4728L164.675 43.2799V43.2806Z" fill="#B61F24"/>
<path d="M169.692 45.6534C172.244 46.6618 175.357 44.8358 176.644 41.5766L167.403 37.9268C166.115 41.1862 167.14 44.646 169.692 45.6534Z" fill="#B61F24"/>
<path d="M170.049 44.7521C172.601 45.7601 175.554 44.3382 176.645 41.5766L167.404 37.9268C166.313 40.6887 167.497 43.7444 170.049 44.7528V44.7521Z" fill="#8E191C"/>
<path d="M170.199 44.3722C172.751 45.3802 175.637 44.1285 176.645 41.5766L167.404 37.9268C166.395 40.4789 167.647 43.3645 170.199 44.3729V44.3722Z" fill="white"/>
<path d="M191.335 45.6534C188.783 46.6618 185.671 44.8358 184.383 41.5766L193.624 37.9268C194.912 41.1862 193.886 44.646 191.335 45.6534Z" fill="#B61F24"/>
<path d="M190.979 44.7521C188.427 45.7601 185.474 44.3382 184.383 41.5766L193.624 37.9268C194.715 40.6887 193.531 43.7444 190.979 44.7524V44.7521Z" fill="#8E191C"/>
<path d="M190.829 44.3722C188.277 45.3802 185.391 44.1285 184.383 41.5766L193.624 37.9268C194.633 40.4789 193.38 43.3645 190.829 44.3729V44.3722Z" fill="white"/>
<path d="M166.847 30.9829H165.361V39.3979L166.847 30.9829Z" fill="#181A18"/>
<path d="M193.119 27.7251L194.454 29.0031L195.79 40.087L193.119 27.7251Z" fill="#181A18"/>
<path d="M197.775 28.8296C197.775 23.5097 193.422 19.1567 188.102 19.1567H172.99C167.67 19.1567 163.317 23.5097 163.317 28.8296L164.676 43.2823L166.846 30.9851C166.846 30.9851 174.899 31.087 179.809 28.0293C179.464 29.8069 178.126 31.4456 176.363 33.0257C176.363 33.0257 188.38 32.7242 193.118 27.7278L196.539 43.2823L197.775 28.8296Z" fill="#272823"/>
<path d="M172.99 20.9516H188.102C193.057 20.9516 197.173 24.7279 197.714 29.5447L197.775 28.8296C197.775 23.5097 193.422 19.1567 188.102 19.1567H172.99C167.67 19.1567 163.317 23.5097 163.317 28.8296L163.382 29.5158C163.937 24.7134 168.045 20.9523 172.991 20.9523L172.99 20.9516Z" fill="#181A18"/>
<path d="M189.286 19.2295C187.852 22.4868 183.561 24.8509 178.49 24.8509C175.896 24.8509 173.508 24.2322 171.601 23.1929C173.658 25.1833 176.98 26.4757 180.73 26.4757C186.276 26.4757 190.889 23.6472 191.851 19.9163C191.045 19.575 190.184 19.3396 189.286 19.2295Z" fill="#303232"/>
<path d="M196.845 27.4652C197.613 30.7851 197.482 33.6509 196.552 33.8656C195.622 34.0803 194.247 31.5635 193.479 28.2443C192.711 24.925 192.842 22.0585 193.771 21.8438C194.701 21.6291 196.077 24.1459 196.845 27.4652Z" fill="#181A18"/>
<path d="M194.008 22.3528C194.008 22.3528 197.554 21.0004 198.601 20.0858C199.65 19.1712 200.334 17.9709 199.117 15.953C197.9 13.9359 197.404 13.0866 198.1 12.2545C198.796 11.4225 200.604 8.99241 201.71 6.43017C202.817 3.86726 203.374 0.54248 203.374 0.54248C203.374 0.54248 205.831 6.57747 205.307 8.77977C204.784 10.9827 202.555 13.5112 202.804 14.5677C203.051 15.6241 204.591 17.1196 204.905 18.4568C205.22 19.7947 205.702 22.8008 204.111 24.8834C202.52 26.9652 201.091 28.7869 199.508 30.2728C197.925 31.7587 196.169 33.1365 196.169 33.1365C196.169 33.1365 192.673 27.4201 194.008 22.3521V22.3528Z" fill="#FF0808"/>
<path d="M203.686 2.50586L202.83 3.0351C202.756 3.32277 202.675 3.62283 202.586 3.93117L203.686 2.50586H203.686Z" fill="#FF0808"/>
<path d="M201.52 6.83752C201.423 7.04743 201.327 7.25664 201.223 7.46312C201.351 7.59729 201.516 7.64617 201.746 7.53605C202.234 7.30139 202.901 6.61661 203.306 6.1665C203.069 6.38398 202.705 6.6448 202.173 6.84165C201.91 6.93867 201.696 6.91872 201.519 6.83822L201.52 6.83752Z" fill="#FF0808"/>
<path d="M200.536 8.71311C200.474 8.82117 200.411 8.93059 200.348 9.03587C200.525 9.41371 200.988 9.4378 201.502 9.22583C202.341 8.88034 203.638 7.69385 203.638 7.69385C203.638 7.69385 201.799 8.71035 201.025 8.89274C200.774 8.95191 200.628 8.85832 200.536 8.71381V8.71311Z" fill="#FF0808"/>
<path d="M199.629 10.171C199.434 10.4634 199.248 10.7319 199.069 10.981C199.069 10.981 199.069 10.9824 199.07 10.9831C199.261 11.4552 200.228 11.8282 200.878 11.3788C201.528 10.9294 203.43 9.33203 203.43 9.33203C203.43 9.33203 201.226 10.5323 200.539 10.7677C200.175 10.8922 199.785 10.6341 199.629 10.1703V10.171Z" fill="#FF0808"/>
<path d="M199.583 13.3169C198.968 13.4615 198.281 13.2426 197.795 13.0265C197.786 13.2522 197.836 13.5014 197.943 13.7842C198.657 13.8524 199.523 13.8909 199.987 13.7422C200.864 13.4622 202.115 11.8311 202.115 11.8311C202.115 11.8311 200.667 13.0623 199.583 13.3169Z" fill="#FF0808"/>
<path d="M200.273 14.864C199.768 15.0615 199.065 15.0133 198.511 14.9252C198.607 15.0931 198.71 15.2707 198.823 15.4606C199.603 15.4765 200.423 15.3554 200.671 15.2906C201.251 15.1399 202.066 13.7002 202.066 13.7002C202.066 13.7002 201.226 14.4917 200.274 14.864H200.273Z" fill="#FF0808"/>
<path d="M201.313 17.0717C200.87 17.1756 200.155 17.0586 199.57 16.9237C199.66 17.1832 199.715 17.4275 199.738 17.6567C200.259 17.6966 200.838 17.7035 201.287 17.5975C202.344 17.3497 202.188 16.3779 202.188 16.3779C202.188 16.3779 202.157 16.8735 201.313 17.0717Z" fill="#FF0808"/>
<path d="M201.669 20.1824C201.25 20.2808 200.249 19.5699 199.505 18.978C199.429 19.1281 199.34 19.2705 199.238 19.4068C199.814 20.02 200.786 20.9099 201.461 20.7516C202.475 20.5134 203.486 19.7564 203.486 19.7564C203.486 19.7564 202.374 20.0173 201.67 20.1831L201.669 20.1824Z" fill="#FF0808"/>
<path d="M197.965 20.5284C198.312 21.4609 198.778 22.664 198.981 22.9675C199.325 23.4809 199.619 23.7837 199.917 23.7878C200.215 23.7919 201.671 23.0046 201.671 23.0046C201.671 23.0046 200.368 23.3453 199.669 22.7321C199.372 22.4719 198.824 21.1382 198.462 20.1953C198.322 20.3027 198.154 20.4142 197.965 20.5284Z" fill="#FF0808"/>
<path d="M198.118 25.6217C197.793 25.2625 197.812 24.9507 197.665 24.3251C197.563 23.8895 197.279 22.0644 197.115 20.9941C196.916 21.0946 196.712 21.1931 196.507 21.2894C196.789 22.4903 197.259 24.4944 197.373 24.9796C197.538 25.6837 197.746 25.9321 198.014 26.0918C198.282 26.2515 199.062 25.8454 199.062 25.8454C199.062 25.8454 198.461 26.0009 198.118 25.621V25.6217Z" fill="#FF0808"/>
<path d="M195.548 21.7212C195.272 21.841 195.017 21.9469 194.794 22.0392C194.815 22.7529 194.856 23.5932 194.942 24.1148C195.114 25.1637 196.128 26.6344 196.128 26.6344C196.128 26.6344 195.936 26.1347 195.825 25.3433C195.741 24.7501 195.609 22.7067 195.549 21.7212H195.548Z" fill="#FF0808"/>
<path d="M202.801 5.38411C203.339 5.00694 203.988 3.79639 203.988 3.79639C203.988 3.79639 202.79 4.94156 202.41 4.98838C202.36 4.99458 202.309 4.98838 202.259 4.97598C202.192 5.1742 202.122 5.37238 202.05 5.56923C202.23 5.64976 202.464 5.62014 202.801 5.38411Z" fill="#FF0808"/>
<path d="M202.804 14.57C202.643 13.8853 203.523 12.5811 204.304 11.1489C203.582 12.2907 202.542 13.4751 202.438 14.4331C202.296 15.729 203.718 17.6264 204.374 19.4068C205.03 21.1872 203.761 23.7054 202.159 25.9016C200.822 27.7349 196.803 30.8911 195.509 31.8863C195.883 32.6653 196.17 33.1395 196.17 33.1395C196.17 33.1395 197.926 31.7617 199.509 30.2759C201.091 28.79 202.521 26.969 204.112 24.8864C205.703 22.8045 205.22 19.7977 204.906 18.4598C204.593 17.1219 203.052 15.6264 202.805 14.57H202.804Z" fill="#FF0808"/>
<path d="M204.903 9.9412C204.954 9.82488 205.004 9.7079 205.049 9.59229C205.006 9.65902 204.957 9.77464 204.903 9.9412Z" fill="#D09A2D"/>
<path d="M164.31 27.4652C163.542 30.7851 163.673 33.6509 164.602 33.8656C165.532 34.0803 166.908 31.5635 167.676 28.2443C168.444 24.9243 168.313 22.0585 167.383 21.8438C166.454 21.6291 165.078 24.1459 164.31 27.4652Z" fill="#181A18"/>
<path d="M167.146 22.3528C167.146 22.3528 163.6 21.0004 162.552 20.0858C161.504 19.1712 160.82 17.9709 162.037 15.953C163.254 13.9359 163.75 13.0866 163.054 12.2545C162.358 11.4225 160.551 8.99241 159.444 6.43017C158.337 3.86726 157.78 0.54248 157.78 0.54248C157.78 0.54248 155.323 6.57747 155.847 8.77977C156.37 10.9827 158.599 13.5112 158.35 14.5677C158.102 15.6241 156.563 17.1196 156.248 18.4568C155.935 19.7947 155.452 22.8008 157.043 24.8834C158.634 26.9652 160.063 28.7869 161.646 30.2728C163.229 31.7587 164.986 33.1365 164.986 33.1365C164.986 33.1365 168.481 27.4201 167.146 22.3521V22.3528Z" fill="#FF0808"/>
<path d="M157.468 2.50586L158.324 3.0351C158.397 3.32277 158.479 3.62283 158.567 3.93117L157.467 2.50586H157.468Z" fill="#FF0808"/>
<path d="M159.635 6.83752C159.732 7.04743 159.828 7.25664 159.932 7.46312C159.804 7.59729 159.639 7.64617 159.409 7.53605C158.921 7.30139 158.254 6.61661 157.849 6.1665C158.086 6.38398 158.45 6.6448 158.982 6.84165C159.245 6.93867 159.459 6.91872 159.636 6.83822L159.635 6.83752Z" fill="#FF0808"/>
<path d="M160.616 8.71311C160.679 8.82117 160.742 8.93059 160.805 9.03587C160.627 9.41371 160.164 9.4378 159.65 9.22583C158.812 8.88034 157.515 7.69385 157.515 7.69385C157.515 7.69385 159.353 8.71035 160.128 8.89274C160.379 8.95191 160.525 8.85832 160.616 8.71381V8.71311Z" fill="#FF0808"/>
<path d="M161.525 10.171C161.72 10.4634 161.907 10.7319 162.085 10.981C162.085 10.981 162.085 10.9824 162.084 10.9831C161.893 11.4552 160.926 11.8282 160.276 11.3788C159.627 10.9294 157.724 9.33203 157.724 9.33203C157.724 9.33203 160.007 10.6183 160.694 10.8537C161.057 10.9783 161.369 10.6341 161.526 10.1703L161.525 10.171Z" fill="#FF0808"/>
<path d="M161.571 13.3169C162.186 13.4615 162.872 13.2426 163.359 13.0265C163.368 13.2522 163.318 13.5014 163.211 13.7842C162.497 13.8524 161.631 13.8909 161.167 13.7422C160.29 13.4622 159.039 11.8311 159.039 11.8311C159.039 11.8311 160.487 13.0623 161.571 13.3169Z" fill="#FF0808"/>
<path d="M160.882 14.864C161.387 15.0615 162.09 15.0133 162.644 14.9252C162.548 15.0931 162.445 15.2707 162.332 15.4606C161.552 15.4765 160.681 15.4544 160.484 15.2906C160.111 14.9803 159.089 13.7002 159.089 13.7002C159.089 13.7002 159.929 14.4917 160.882 14.864Z" fill="#FF0808"/>
<path d="M159.841 17.0726C160.285 17.1765 161 17.0595 161.584 16.9246C161.494 17.1841 161.439 17.4284 161.417 17.6576C160.895 17.6975 160.316 17.7044 159.867 17.5984C158.811 17.3507 159.038 16.3789 159.038 16.3789C159.038 16.3789 158.997 16.8744 159.842 17.0726H159.841Z" fill="#FF0808"/>
<path d="M159.484 20.1824C159.977 20.1666 160.904 19.5699 161.648 18.978C161.724 19.1281 161.813 19.2705 161.915 19.4068C161.339 20.02 160.275 20.947 159.599 20.7888C158.586 20.5506 157.667 19.7564 157.667 19.7564C157.667 19.7564 158.76 20.2065 159.483 20.1831L159.484 20.1824Z" fill="#FF0808"/>
<path d="M163.188 20.5284C162.842 21.4609 162.376 22.664 162.172 22.9675C161.829 23.4809 161.611 23.6467 161.335 23.7004C161.043 23.7575 159.482 23.0046 159.482 23.0046C159.482 23.0046 160.924 23.1946 161.485 22.7321C161.789 22.4809 162.329 21.1382 162.691 20.1953C162.831 20.3027 162.999 20.4142 163.188 20.5284Z" fill="#FF0808"/>
<path d="M162.93 25.5708C163.366 25.3017 163.342 24.9507 163.488 24.3251C163.59 23.8895 163.875 22.0644 164.039 20.9941C164.237 21.0946 164.441 21.1931 164.646 21.2894C164.364 22.4903 163.894 24.4944 163.78 24.9796C163.615 25.6837 163.407 25.9321 163.139 26.0918C162.871 26.2515 162.091 25.8454 162.091 25.8454C162.091 25.8454 162.496 25.8399 162.93 25.5701V25.5708Z" fill="#FF0808"/>
<path d="M165.607 21.7212C165.883 21.841 166.138 21.9469 166.361 22.0392C166.341 22.7529 166.299 23.5932 166.213 24.1148C166.041 25.1637 165.027 26.6344 165.027 26.6344C165.027 26.6344 165.219 26.1347 165.33 25.3433C165.414 24.7501 165.546 22.7067 165.606 21.7212H165.607Z" fill="#FF0808"/>
<path d="M158.353 5.38411C157.815 5.00694 157.166 3.79639 157.166 3.79639C157.166 3.79639 158.364 4.94156 158.743 4.98838C158.794 4.99458 158.845 4.98838 158.895 4.97598C158.962 5.1742 159.032 5.37238 159.104 5.56923C158.924 5.64976 158.69 5.62014 158.353 5.38411Z" fill="#FF0808"/>
<path d="M158.349 14.57C158.51 13.8853 157.63 12.5811 156.848 11.1489C157.57 12.2907 158.61 13.4751 158.715 14.4331C158.857 15.729 157.475 17.9134 156.82 19.6938C156.164 21.4742 157.393 23.7054 158.995 25.9016C160.332 27.7349 164.351 30.8911 165.645 31.8863C165.27 32.6653 164.984 33.1395 164.984 33.1395C164.984 33.1395 163.228 31.7617 161.645 30.2759C160.062 28.79 158.632 26.969 157.041 24.8864C155.45 22.8045 155.933 19.7977 156.247 18.4598C156.561 17.1219 158.101 15.6264 158.349 14.57Z" fill="#FF0808"/>
<path d="M156.25 9.9412C156.199 9.82488 156.149 9.7079 156.104 9.59229C156.147 9.65902 156.196 9.77464 156.25 9.9412Z" fill="#FF0808"/>
<path d="M177.691 40.5305L165.031 35.5298C164.716 35.4059 164.561 35.0473 164.685 34.7329L164.187 35.9951C164.063 36.3096 164.219 36.6681 164.532 36.7921L177.193 41.7928C177.508 41.9164 177.866 41.7609 177.99 41.4472L178.488 40.1849C178.364 40.4994 178.006 40.6552 177.691 40.5305Z" fill="#181A18"/>
<path d="M183.335 40.5305L195.995 35.5298C196.31 35.4059 196.465 35.0473 196.341 34.7329L196.839 35.9951C196.963 36.3096 196.807 36.6681 196.494 36.7921L183.833 41.7928C183.518 41.9164 183.16 41.7609 183.036 41.4472L182.538 40.1849C182.662 40.4994 183.02 40.6552 183.335 40.5305Z" fill="#181A18"/>
</g>
<defs>
<clipPath id="clip0_51_9457">
<rect width="368" height="61.6251" fill="white"/>
</clipPath>
</defs>
</svg>
