<svg width="28" height="27" viewBox="0 0 28 27" fill="none" xmlns="http://www.w3.org/2000/svg">
<g clip-path="url(#clip0_87_1212)">
<path d="M21.4375 0H6.5625C2.93813 0 0 2.8332 0 6.32812V20.6719C0 24.1668 2.93813 27 6.5625 27H21.4375C25.0619 27 28 24.1668 28 20.6719V6.32812C28 2.8332 25.0619 0 21.4375 0Z" fill="#5865F2"/>
<mask id="mask0_87_1212" style="mask-type:luminance" maskUnits="userSpaceOnUse" x="3" y="5" width="22" height="17">
<path d="M3.0625 5.37891H24.9375V21.7192H3.0625V5.37891Z" fill="white"/>
</mask>
<g mask="url(#mask0_87_1212)">
<path d="M21.5805 6.83382C20.1623 6.20605 18.6656 5.75839 17.1279 5.50206C17.114 5.49957 17.0995 5.50139 17.0867 5.50726C17.0739 5.51313 17.0633 5.52275 17.0564 5.53476C16.8641 5.86445 16.6511 6.29477 16.502 6.6329C14.8206 6.39011 13.1479 6.39011 11.501 6.6329C11.3519 6.28717 11.1311 5.86445 10.938 5.53476C10.9308 5.523 10.9202 5.51359 10.9074 5.50775C10.8946 5.50192 10.8803 5.49994 10.8663 5.50206C9.32854 5.75788 7.83179 6.20555 6.41379 6.83382C6.40166 6.83879 6.39142 6.84726 6.38448 6.85808C3.54861 10.9435 2.77182 14.9285 3.15289 18.8642C3.15395 18.8739 3.15701 18.8832 3.1619 18.8917C3.16678 18.9002 3.17339 18.9076 3.18132 18.9136C5.05229 20.2386 6.86475 21.043 8.64351 21.5761C8.65735 21.5801 8.67212 21.5799 8.68584 21.5756C8.69956 21.5713 8.71158 21.563 8.72029 21.5519C9.14106 20.9977 9.51611 20.4136 9.83778 19.7992C9.84221 19.7908 9.84474 19.7816 9.8452 19.7721C9.84566 19.7627 9.84405 19.7533 9.84046 19.7445C9.83687 19.7357 9.8314 19.7278 9.82439 19.7212C9.81739 19.7146 9.80901 19.7095 9.79982 19.7063C9.20482 19.4886 8.63837 19.2233 8.09346 18.922C8.08354 18.9164 8.07521 18.9085 8.0692 18.899C8.06319 18.8895 8.05969 18.8788 8.05901 18.8677C8.05833 18.8566 8.06049 18.8455 8.06529 18.8354C8.0701 18.8253 8.07741 18.8165 8.08657 18.8098C8.20152 18.7269 8.3145 18.6415 8.42542 18.5537C8.43513 18.546 8.44689 18.541 8.45937 18.5394C8.47186 18.5377 8.48457 18.5395 8.49607 18.5444C12.0761 20.1206 15.9518 20.1206 19.4896 18.5444C19.5011 18.5392 19.514 18.5371 19.5267 18.5386C19.5393 18.5401 19.5513 18.5451 19.5612 18.5529C19.6722 18.6412 19.7855 18.7269 19.9009 18.8098C19.9101 18.8165 19.9175 18.8252 19.9224 18.8353C19.9273 18.8453 19.9295 18.8564 19.9289 18.8674C19.9283 18.8785 19.9249 18.8893 19.919 18.8988C19.9131 18.9083 19.9048 18.9163 19.8949 18.922C19.3497 19.229 18.7786 19.4911 18.1877 19.7054C18.1785 19.7088 18.1702 19.714 18.1632 19.7207C18.1563 19.7274 18.1509 19.7355 18.1474 19.7443C18.1439 19.7532 18.1424 19.7626 18.1429 19.7721C18.1435 19.7815 18.1461 19.7908 18.1506 19.7992C18.4779 20.4087 18.851 20.9942 19.2671 21.551C19.2756 21.5624 19.2875 21.571 19.3013 21.5755C19.3151 21.58 19.33 21.5802 19.3439 21.5761C21.1313 21.043 22.9437 20.2386 24.8148 18.9136C24.8228 18.9079 24.8295 18.9006 24.8344 18.8923C24.8393 18.8839 24.8423 18.8746 24.8433 18.8651C25.2994 14.315 24.0793 10.3626 21.6089 6.85892C21.6029 6.84754 21.5928 6.83863 21.5805 6.83382ZM10.3724 16.4679C9.29451 16.4679 8.40639 15.5137 8.40639 14.3418C8.40639 13.17 9.27734 12.2158 10.3724 12.2158C11.476 12.2158 12.3555 13.1784 12.3382 14.3418C12.3382 15.5137 11.4675 16.4679 10.3724 16.4679ZM17.641 16.4679C16.5631 16.4679 15.6751 15.5137 15.6751 14.3418C15.6751 13.17 16.546 12.2158 17.641 12.2158C18.7446 12.2158 19.6241 13.1784 19.6069 14.3418C19.6069 15.5137 18.7446 16.4679 17.641 16.4679Z" fill="white"/>
</g>
</g>
<defs>
<clipPath id="clip0_87_1212">
<rect width="28" height="27" fill="white"/>
</clipPath>
</defs>
</svg>
