<svg width="27" height="27" viewBox="0 0 27 27" fill="none" xmlns="http://www.w3.org/2000/svg">
<path d="M13.5 0C6.04575 0 0 6.04575 0 13.5C0 20.9543 6.04575 27 13.5 27C20.9543 27 27 20.9543 27 13.5C27 6.04575 20.9576 0 13.5 0ZM6.66 13.9534L6.71738 13.8622L10.2308 8.36775C10.2425 8.34969 10.2589 8.33512 10.2782 8.32556C10.2976 8.316 10.3191 8.31181 10.3406 8.31342C10.3621 8.31503 10.3828 8.32238 10.4004 8.33471C10.4181 8.34704 10.4322 8.36389 10.4411 8.3835C11.0261 9.69863 11.5346 11.3344 11.2961 12.3525C11.1971 12.771 10.9193 13.338 10.6054 13.8622C10.5651 13.9389 10.5212 14.0136 10.4738 14.0861C10.4624 14.1023 10.4472 14.1154 10.4295 14.1242C10.4118 14.1331 10.3923 14.1374 10.3725 14.1368H6.76463C6.74309 14.1371 6.72187 14.1316 6.70321 14.1208C6.68455 14.1101 6.66916 14.0944 6.65866 14.0756C6.64816 14.0568 6.64295 14.0355 6.64358 14.014C6.64422 13.9925 6.65067 13.9715 6.66225 13.9534H6.66ZM22.3132 15.8434C22.3135 15.8674 22.3067 15.891 22.2937 15.9112C22.2807 15.9314 22.2621 15.9473 22.2401 15.957C21.9667 16.0729 21.0364 16.5026 20.6494 17.0392C19.6616 18.414 18.9079 20.3805 17.2204 20.3805H10.1846C9.59059 20.3796 9.00254 20.2617 8.4541 20.0334C7.90566 19.8052 7.40758 19.4711 6.98831 19.0503C6.56904 18.6294 6.23682 18.1301 6.01061 17.5808C5.78441 17.0315 5.66867 16.443 5.67 15.849V15.768C5.67 15.7028 5.724 15.6488 5.7915 15.6488H9.71213C9.79088 15.6488 9.84713 15.7196 9.8415 15.7972C9.81225 16.0515 9.86063 16.3136 9.98213 16.551C10.2139 17.0235 10.6976 17.3183 11.2185 17.3183H13.1602V15.8029H11.2387C11.2162 15.8026 11.1942 15.7963 11.1751 15.7844C11.1559 15.7726 11.1403 15.7558 11.13 15.7357C11.1197 15.7157 11.1151 15.6933 11.1166 15.6708C11.1181 15.6483 11.1257 15.6267 11.1386 15.6082L11.2095 15.507C11.3895 15.2471 11.6494 14.8477 11.9081 14.391C12.0836 14.0827 12.2546 13.7543 12.3919 13.4235C12.4189 13.365 12.4402 13.3031 12.465 13.2435C12.5021 13.1378 12.5404 13.0388 12.5674 12.9409C12.5939 12.8579 12.6183 12.7742 12.6405 12.69C12.7046 12.4087 12.7316 12.1117 12.7316 11.8046C12.7316 11.6831 12.7271 11.556 12.7159 11.4368C12.7103 11.3051 12.6934 11.1724 12.6776 11.0408C12.665 10.923 12.647 10.8059 12.6236 10.6897C12.5934 10.513 12.5566 10.3373 12.5134 10.1632L12.4976 10.0957C12.4639 9.97425 12.4346 9.8595 12.3964 9.73912C12.2893 9.36946 12.1661 9.00461 12.0274 8.64563C11.979 8.51059 11.9257 8.37738 11.8676 8.24625C11.7866 8.046 11.7034 7.86488 11.628 7.695C11.5905 7.62222 11.5552 7.54831 11.5222 7.47338C11.4857 7.39253 11.447 7.31263 11.4064 7.23375C11.3794 7.17412 11.3468 7.11675 11.3254 7.06275L11.088 6.62625C11.0554 6.56662 11.1094 6.4935 11.1746 6.51263L12.6596 6.91425H12.6709L12.8655 6.9705L13.0815 7.03125L13.1602 7.05263V6.17175C13.1602 5.74538 13.5 5.4 13.9241 5.4C14.0243 5.39973 14.1234 5.41972 14.2157 5.45878C14.3079 5.49783 14.3913 5.55514 14.4608 5.62725C14.6044 5.77213 14.6852 5.96773 14.6858 6.17175V7.48125L14.8444 7.52513C14.8556 7.53075 14.8691 7.53638 14.8792 7.54425C14.9175 7.57125 14.9738 7.614 15.0446 7.668C15.1009 7.71075 15.1605 7.76475 15.2303 7.82212C15.4524 8.00312 15.6678 8.19224 15.876 8.38912C16.1168 8.613 16.3867 8.87512 16.6455 9.1665C16.7186 9.24975 16.7884 9.33075 16.8615 9.42075C16.9312 9.50962 17.01 9.59625 17.0753 9.68175C17.1641 9.79875 17.2553 9.92025 17.3396 10.0463C17.3768 10.1059 17.4229 10.1677 17.4578 10.2274C17.5658 10.3871 17.658 10.5514 17.7469 10.7168C17.7851 10.7921 17.8223 10.8754 17.8549 10.9564C17.955 11.178 18.0338 11.4019 18.0821 11.6291C18.0981 11.6774 18.1091 11.7271 18.1147 11.7776V11.7889C18.1305 11.853 18.1361 11.9239 18.1418 11.9959C18.1734 12.3284 18.1327 12.6638 18.0225 12.9791C17.9876 13.0736 17.955 13.1704 17.9123 13.2649C17.8279 13.4561 17.7311 13.6508 17.6152 13.8296C17.577 13.8971 17.5309 13.9669 17.4881 14.0344C17.4398 14.1053 17.388 14.1727 17.3453 14.2369C17.2834 14.3221 17.2185 14.405 17.1506 14.4855C17.091 14.5665 17.0314 14.6475 16.9639 14.7206C16.8728 14.8309 16.7839 14.9344 16.6882 15.0334C16.6342 15.0986 16.5758 15.1661 16.5128 15.2246C16.4543 15.2921 16.3913 15.3518 16.3372 15.4058C16.2428 15.5002 16.1685 15.5711 16.1033 15.633L15.9491 15.7702C15.9277 15.7918 15.8985 15.8039 15.8681 15.804H14.6858V17.3183H16.173C16.5049 17.3183 16.821 17.2013 17.0775 16.983C17.1641 16.9076 17.5444 16.578 17.9955 16.0807C18.0102 16.0638 18.0299 16.052 18.0518 16.047L22.158 14.8579C22.176 14.8527 22.195 14.8517 22.2135 14.8551C22.232 14.8584 22.2494 14.866 22.2644 14.8772C22.2795 14.8884 22.2917 14.903 22.3002 14.9198C22.3086 14.9365 22.3131 14.955 22.3132 14.9738V15.8434Z" fill="#2756FF"/>
</svg>
