<svg width="25" height="27" viewBox="0 0 25 27" fill="none" xmlns="http://www.w3.org/2000/svg">
<path d="M12.5 0C10.0277 0 7.61099 0.791761 5.55538 2.27516C3.49976 3.75856 1.89761 5.86697 0.951511 8.33377C0.00541605 10.8006 -0.242126 13.515 0.24019 16.1337C0.722505 18.7525 1.91301 21.1579 3.66117 23.0459C5.40933 24.9339 7.63661 26.2197 10.0614 26.7406C12.4861 27.2615 14.9995 26.9942 17.2835 25.9724C19.5676 24.9506 21.5199 23.2203 22.8934 21.0002C24.2669 18.7801 25 16.17 25 13.5C25 11.7272 24.6767 9.97167 24.0485 8.33377C23.4203 6.69588 22.4996 5.20765 21.3388 3.95406C20.1781 2.70047 18.8001 1.70606 17.2835 1.02763C15.767 0.349188 14.1415 0 12.5 0ZM16.475 20.4552C16.4284 20.5813 16.3573 20.6952 16.2665 20.7892C16.1757 20.8832 16.0674 20.9551 15.9487 21.0001C15.8301 21.0451 15.7039 21.0622 15.5786 21.0502C15.4534 21.0381 15.3319 20.9973 15.2225 20.9304L11.8288 18.0819L9.65125 20.2527C9.60071 20.293 9.5416 20.3189 9.47935 20.3281C9.4171 20.3373 9.35371 20.3295 9.295 20.3053L9.7125 16.2702L9.725 16.2823L9.73375 16.2027C9.73375 16.2027 15.84 10.1979 16.0888 9.94275C16.3413 9.6876 16.2575 9.63225 16.2575 9.63225C16.2725 9.32175 15.8063 9.63225 15.8063 9.63225L7.715 15.2536L4.34626 14.0143C4.34626 14.0143 3.82876 13.8145 3.78001 13.3731C3.72876 12.9357 4.3625 12.6981 4.3625 12.6981L17.7588 6.9498C17.7588 6.9498 18.86 6.4206 18.86 7.2981L16.475 20.4552Z" fill="#5865F2"/>
</svg>
